<svg width="14" height="15" viewBox="0 0 14 15" fill="none" xmlns="http://www.w3.org/2000/svg">
<path fill-rule="evenodd" clip-rule="evenodd" d="M6.99994 4.33294C6.9998 3.78628 7.12771 3.24718 7.37343 2.75885C7.61915 2.27051 7.97583 1.84653 8.41491 1.52087C8.85399 1.19521 9.36324 0.976922 9.90187 0.883509C10.4405 0.790096 10.9935 0.82415 11.5166 0.982944C11.5993 1.00799 11.6741 1.05403 11.7337 1.11658C11.7932 1.17912 11.8356 1.25604 11.8566 1.33983C11.8776 1.42363 11.8766 1.51144 11.8536 1.5947C11.8305 1.67796 11.7863 1.75384 11.7253 1.81494L9.51194 4.02761C9.55394 4.34428 9.69594 4.65028 9.93928 4.89361C10.1826 5.13694 10.4886 5.27894 10.8059 5.32028L13.0179 3.10761C13.079 3.04654 13.1549 3.00234 13.2382 2.97932C13.3215 2.9563 13.4093 2.95525 13.4931 2.97626C13.5768 2.99728 13.6538 3.03964 13.7163 3.09923C13.7789 3.15882 13.8249 3.2336 13.8499 3.31628C14.0161 3.86351 14.0456 4.44313 13.9359 5.00441C13.8262 5.56569 13.5806 6.09154 13.2207 6.53596C12.8607 6.98037 12.3974 7.32981 11.8711 7.5537C11.3449 7.7776 10.7718 7.86912 10.2019 7.82028C9.52328 7.76294 8.95528 7.88694 8.66261 8.24294L3.89594 14.0329C3.70077 14.2688 3.4585 14.4613 3.18464 14.5981C2.91078 14.7349 2.61137 14.813 2.30558 14.8274C1.9998 14.8418 1.69437 14.7922 1.40886 14.6818C1.12335 14.5713 0.864048 14.4025 0.64756 14.186C0.431072 13.9696 0.262168 13.7103 0.151664 13.4248C0.0411588 13.1393 -0.00851144 12.8339 0.00583327 12.5281C0.020178 12.2223 0.0982215 11.9229 0.234967 11.649C0.371712 11.3751 0.564145 11.1328 0.799944 10.9376L6.58928 6.17028C6.94461 5.87694 7.06928 5.30961 7.01194 4.63094C7.00378 4.53182 6.99978 4.4324 6.99994 4.33294ZM1.74461 12.5829C1.74461 12.4503 1.79729 12.3232 1.89106 12.2294C1.98483 12.1356 2.112 12.0829 2.24461 12.0829H2.24994C2.38255 12.0829 2.50973 12.1356 2.6035 12.2294C2.69727 12.3232 2.74994 12.4503 2.74994 12.5829V12.5883C2.74994 12.7209 2.69727 12.8481 2.6035 12.9418C2.50973 13.0356 2.38255 13.0883 2.24994 13.0883H2.24461C2.112 13.0883 1.98483 13.0356 1.89106 12.9418C1.79729 12.8481 1.74461 12.7209 1.74461 12.5883V12.5829Z" fill="white" fill-opacity="0.8"/>
<path d="M5.71715 5.59349L4.24982 4.12683V3.08283C4.24981 2.9965 4.22746 2.91166 4.18494 2.83654C4.14241 2.76142 4.08116 2.69859 4.00715 2.65416L1.50715 1.15416C1.41153 1.09684 1.2995 1.07312 1.18886 1.08677C1.07821 1.10042 0.975306 1.15065 0.896485 1.22949L0.396485 1.72949C0.317646 1.80831 0.267412 1.91122 0.253762 2.02187C0.240113 2.13251 0.263832 2.24454 0.321151 2.34016L1.82115 4.84016C1.86558 4.91417 1.92841 4.97542 2.00353 5.01794C2.07865 5.06047 2.1635 5.08282 2.24982 5.08283H3.29248L4.66715 6.45749L5.71715 5.59283V5.59349Z" fill="white" fill-opacity="0.8"/>
<path fill-rule="evenodd" clip-rule="evenodd" d="M7.37061 11.3854L10.1593 14.1734C10.3682 14.3824 10.6162 14.5481 10.8892 14.6612C11.1622 14.7742 11.4548 14.8324 11.7503 14.8324C12.0457 14.8324 12.3383 14.7742 12.6113 14.6612C12.8843 14.5481 13.1323 14.3824 13.3413 14.1734C13.5502 13.9645 13.7159 13.7164 13.829 13.4435C13.9421 13.1705 14.0003 12.8779 14.0003 12.5824C14.0003 12.2869 13.9421 11.9944 13.829 11.7214C13.7159 11.4484 13.5502 11.2004 13.3413 10.9914L11.1373 8.78809C10.7994 8.83598 10.4573 8.8456 10.1173 8.81675C9.85461 8.79409 9.66261 8.81275 9.53927 8.84475C9.50024 8.85302 9.4627 8.86718 9.42794 8.88675L7.37061 11.3854ZM9.64661 10.4788C9.74036 10.3851 9.86744 10.3325 9.99994 10.3325C10.1324 10.3325 10.2595 10.3851 10.3533 10.4788L11.6033 11.7294C11.6524 11.7752 11.6918 11.8304 11.7191 11.8917C11.7465 11.9531 11.7611 12.0193 11.7623 12.0864C11.7635 12.1535 11.7512 12.2202 11.726 12.2825C11.7009 12.3447 11.6634 12.4013 11.616 12.4488C11.5685 12.4963 11.5119 12.5337 11.4497 12.5588C11.3874 12.584 11.3207 12.5963 11.2536 12.5951C11.1865 12.594 11.1202 12.5793 11.0589 12.5519C10.9976 12.5246 10.9424 12.4852 10.8966 12.4361L9.64661 11.1861C9.55297 11.0923 9.50038 10.9653 9.50038 10.8328C9.50038 10.7003 9.55297 10.5732 9.64661 10.4794V10.4788Z" fill="white" fill-opacity="0.8"/>
</svg>
