<svg width="14" height="14" viewBox="0 0 14 14" fill="none" xmlns="http://www.w3.org/2000/svg">
<path fill-rule="evenodd" clip-rule="evenodd" d="M7.344 0.279723C7.25112 0.191663 7.128 0.142578 7 0.142578C6.87201 0.142578 6.74889 0.191663 6.656 0.279723C5.24085 1.62364 3.35609 2.36061 1.40467 2.33306C1.29836 2.33167 1.19438 2.36422 1.10782 2.42596C1.02126 2.4877 0.956642 2.57542 0.923338 2.67639C0.641986 3.53383 0.499083 4.43063 0.500004 5.33306C0.500004 9.29439 3.20934 12.6217 6.87534 13.5651C6.95711 13.5861 7.0429 13.5861 7.12467 13.5651C10.7907 12.6217 13.5 9.29439 13.5 5.33306C13.5 4.40639 13.3513 3.51306 13.0767 2.67639C13.0435 2.5753 12.9789 2.48743 12.8923 2.42556C12.8058 2.36369 12.7017 2.33105 12.5953 2.33239L12.5 2.33306C10.5027 2.33306 8.68867 1.55306 7.344 0.279723ZM9.40667 5.62372C9.44667 5.57042 9.47561 5.50967 9.4918 5.44502C9.50798 5.38038 9.51108 5.31315 9.50091 5.24729C9.49074 5.18143 9.4675 5.11827 9.43257 5.06152C9.39764 5.00477 9.35172 4.95557 9.29751 4.91682C9.24329 4.87807 9.18188 4.85055 9.11688 4.83588C9.05187 4.8212 8.98459 4.81967 8.91899 4.83136C8.85338 4.84306 8.79078 4.86776 8.73486 4.904C8.67893 4.94024 8.63082 4.98729 8.59334 5.04239L6.436 8.06239L5.35334 6.97972C5.25855 6.8914 5.13319 6.84332 5.00366 6.84561C4.87412 6.84789 4.75053 6.90037 4.65892 6.99197C4.56732 7.08358 4.51484 7.20717 4.51255 7.33671C4.51027 7.46624 4.55835 7.59161 4.64667 7.68639L6.14667 9.18639C6.198 9.23768 6.25987 9.27718 6.328 9.30215C6.39612 9.32713 6.46887 9.33697 6.54118 9.33101C6.61349 9.32505 6.68364 9.30342 6.74676 9.26762C6.80987 9.23183 6.86444 9.18272 6.90667 9.12372L9.40667 5.62372Z" fill="white" fill-opacity="0.8"/>
</svg>
