<svg width="14" height="14" viewBox="0 0 14 14" fill="none" xmlns="http://www.w3.org/2000/svg">
<path fill-rule="evenodd" clip-rule="evenodd" d="M7 0.333008C3.41 0.333008 0.5 3.24301 0.5 6.83301C0.5 10.423 3.41 13.333 7 13.333C10.59 13.333 13.5 10.423 13.5 6.83301C13.5 3.24301 10.59 0.333008 7 0.333008ZM5.25 4.33301C4.89 4.33301 4.698 4.61234 4.626 4.75567C4.54046 4.93597 4.49736 5.13347 4.5 5.33301C4.5 5.53167 4.53933 5.73634 4.626 5.91034C4.698 6.05367 4.88933 6.33301 5.25 6.33301C5.61 6.33301 5.802 6.05367 5.874 5.91034C5.96067 5.73701 6 5.53167 6 5.33301C6 5.13434 5.96067 4.92967 5.874 4.75567C5.802 4.61234 5.61067 4.33301 5.25 4.33301ZM8.126 4.75567C8.198 4.61234 8.38933 4.33301 8.75 4.33301C9.11 4.33301 9.302 4.61234 9.374 4.75567C9.46067 4.92901 9.5 5.13434 9.5 5.33301C9.5 5.53167 9.46067 5.73634 9.374 5.91034C9.302 6.05367 9.11067 6.33301 8.75 6.33301C8.39 6.33301 8.198 6.05367 8.126 5.91034C8.04047 5.73004 7.99736 5.53255 8 5.33301C8 5.13434 8.03933 4.92967 8.126 4.75567ZM9.47467 9.30767C9.52379 9.2619 9.56319 9.2067 9.59052 9.14537C9.61785 9.08403 9.63254 9.01783 9.63373 8.95069C9.63491 8.88355 9.62256 8.81687 9.59742 8.75461C9.57227 8.69235 9.53484 8.63579 9.48736 8.58832C9.43988 8.54084 9.38332 8.50341 9.32107 8.47826C9.25881 8.45311 9.19212 8.44076 9.12498 8.44195C9.05785 8.44313 8.99164 8.45783 8.93031 8.48515C8.86898 8.51248 8.81378 8.55188 8.768 8.60101C8.53585 8.83322 8.26022 9.01743 7.95686 9.14311C7.6535 9.26879 7.32836 9.33347 7 9.33347C6.67164 9.33347 6.3465 9.26879 6.04314 9.14311C5.73978 9.01743 5.46415 8.83322 5.232 8.60101C5.13722 8.51269 5.01185 8.46461 4.88232 8.46689C4.75278 8.46918 4.62919 8.52165 4.53759 8.61326C4.44598 8.70487 4.3935 8.82846 4.39122 8.95799C4.38893 9.08753 4.43701 9.21289 4.52533 9.30767C5.18169 9.96393 6.07184 10.3326 7 10.3326C7.92816 10.3326 8.81831 9.96393 9.47467 9.30767Z" fill="white" fill-opacity="0.8"/>
</svg>
