<svg width="22" height="16" viewBox="0 0 22 16" fill="none" xmlns="http://www.w3.org/2000/svg">
<path d="M3.1665 0.0664062C2.37085 0.0664062 1.60779 0.382477 1.04518 0.945086C0.482575 1.5077 0.166504 2.27076 0.166504 3.06641V12.0664C0.166504 12.8621 0.482575 13.6251 1.04518 14.1877C1.60779 14.7503 2.37085 15.0664 3.1665 15.0664H11.4165C12.2122 15.0664 12.9752 14.7503 13.5378 14.1877C14.1004 13.6251 14.4165 12.8621 14.4165 12.0664V3.06641C14.4165 2.27076 14.1004 1.5077 13.5378 0.945086C12.9752 0.382477 12.2122 0.0664062 11.4165 0.0664062H3.1665ZM18.6065 14.3164L15.9165 11.6264V3.50641L18.6065 0.816406C19.5505 -0.128594 21.1665 0.540406 21.1665 1.87641V13.2564C21.1665 14.5924 19.5505 15.2614 18.6065 14.3164Z" fill="#51FF57"/>
</svg>
