<svg width="23" height="17" viewBox="0 0 23 17" fill="none" xmlns="http://www.w3.org/2000/svg">
<path d="M11.333 11.5664C12.1287 11.5664 12.8917 11.2503 13.4543 10.6877C14.0169 10.1251 14.333 9.36206 14.333 8.56641C14.333 7.77076 14.0169 7.00769 13.4543 6.44509C12.8917 5.88248 12.1287 5.56641 11.333 5.56641C10.5374 5.56641 9.7743 5.88248 9.21169 6.44509C8.64908 7.00769 8.33301 7.77076 8.33301 8.56641C8.33301 9.36206 8.64908 10.1251 9.21169 10.6877C9.7743 11.2503 10.5374 11.5664 11.333 11.5664Z" fill="#51D9FF"/>
<path fill-rule="evenodd" clip-rule="evenodd" d="M0.655595 8.01341C2.1436 3.54241 6.3606 0.316406 11.3336 0.316406C16.3036 0.316406 20.5186 3.53941 22.0086 8.00641C22.1286 8.36841 22.1286 8.75841 22.0086 9.11941C20.5216 13.5904 16.3036 16.8164 11.3316 16.8164C6.36159 16.8164 2.1456 13.5934 0.656595 9.12641C0.536343 8.76515 0.536343 8.37466 0.656595 8.01341H0.655595ZM16.5826 8.56641C16.5826 9.95879 16.0295 11.2942 15.0449 12.2787C14.0603 13.2633 12.725 13.8164 11.3326 13.8164C9.94021 13.8164 8.60485 13.2633 7.62028 12.2787C6.63572 11.2942 6.0826 9.95879 6.0826 8.56641C6.0826 7.17402 6.63572 5.83866 7.62028 4.8541C8.60485 3.86953 9.94021 3.31641 11.3326 3.31641C12.725 3.31641 14.0603 3.86953 15.0449 4.8541C16.0295 5.83866 16.5826 7.17402 16.5826 8.56641Z" fill="#51D9FF"/>
</svg>
