<svg width="20" height="21" viewBox="0 0 20 21" fill="none" xmlns="http://www.w3.org/2000/svg">
<path d="M3.51627 2.06673C3.64146 1.91754 3.7037 1.72551 3.68984 1.53125C3.67598 1.33699 3.5871 1.15575 3.442 1.02585C3.2969 0.895946 3.10696 0.82758 2.91236 0.83521C2.71776 0.842839 2.53376 0.925864 2.39927 1.06673C1.17074 2.43697 0.356507 4.12787 0.0512742 5.94273C0.0230402 6.13678 0.0719338 6.33418 0.187479 6.49262C0.303025 6.65107 0.476031 6.75795 0.669431 6.79038C0.862831 6.82281 1.06124 6.7782 1.22215 6.66612C1.38306 6.55403 1.49366 6.38338 1.53027 6.19073C1.78841 4.65573 2.47712 3.2256 3.51627 2.06673ZM16.9333 1.06673C16.8678 0.99266 16.7883 0.93227 16.6994 0.889029C16.6105 0.845788 16.514 0.820548 16.4153 0.814762C16.3166 0.808976 16.2177 0.822758 16.1244 0.855315C16.031 0.887871 15.945 0.938561 15.8714 1.00447C15.7977 1.07037 15.7377 1.1502 15.695 1.23935C15.6523 1.3285 15.6276 1.42521 15.6224 1.52393C15.6172 1.62265 15.6316 1.72143 15.6647 1.81458C15.6978 1.90774 15.7489 1.99343 15.8153 2.06673C16.8547 3.22551 17.5438 4.65564 17.8023 6.19073C17.8352 6.38699 17.9447 6.56214 18.1067 6.67767C18.1869 6.73487 18.2776 6.7757 18.3736 6.79785C18.4697 6.81999 18.5691 6.82301 18.6663 6.80673C18.7635 6.79044 18.8565 6.75518 18.94 6.70294C19.0236 6.65071 19.096 6.58253 19.1532 6.5023C19.2104 6.42207 19.2513 6.33136 19.2734 6.23535C19.2955 6.13934 19.2986 6.0399 19.2823 5.94273C18.9764 4.12767 18.1625 2.43677 16.9333 1.06673Z" fill="#FFEB51"/>
<path fill-rule="evenodd" clip-rule="evenodd" d="M9.66642 0.816406C7.87621 0.816406 6.15932 1.52757 4.89345 2.79344C3.62758 4.05931 2.91642 5.7762 2.91642 7.56641V8.31641C2.9195 10.3556 2.16423 12.3231 0.79742 13.8364C0.715339 13.9275 0.65683 14.0373 0.627013 14.1562C0.597197 14.2751 0.596984 14.3995 0.626391 14.5185C0.655798 14.6375 0.71393 14.7475 0.795698 14.8388C0.877466 14.9302 0.980376 15.0001 1.09542 15.0424C2.63942 15.6124 4.25542 16.0324 5.92642 16.2854C5.8888 16.7995 5.95759 17.3159 6.12849 17.8023C6.29939 18.2886 6.56874 18.7346 6.91971 19.1121C7.27068 19.4897 7.69574 19.7909 8.16833 19.9969C8.64093 20.2028 9.1509 20.3091 9.66642 20.3091C10.1819 20.3091 10.6919 20.2028 11.1645 19.9969C11.6371 19.7909 12.0622 19.4897 12.4131 19.1121C12.7641 18.7346 13.0334 18.2886 13.2044 17.8023C13.3753 17.3159 13.444 16.7995 13.4064 16.2854C15.0544 16.0356 16.6728 15.6187 18.2364 15.0414C18.3513 14.999 18.454 14.9291 18.5357 14.8379C18.6173 14.7466 18.6753 14.6367 18.7047 14.5179C18.7341 14.399 18.734 14.2748 18.7043 14.156C18.6746 14.0372 18.6163 13.9275 18.5344 13.8364C17.168 12.3229 16.4131 10.3555 16.4164 8.31641V7.56641C16.4164 5.7762 15.7053 4.05931 14.4394 2.79344C13.1735 1.52757 11.4566 0.816406 9.66642 0.816406ZM7.41642 16.5664C7.41642 16.5324 7.41642 16.4994 7.41842 16.4664C8.91406 16.6012 10.4188 16.6012 11.9144 16.4664L11.9164 16.5664C11.9164 17.1631 11.6794 17.7354 11.2574 18.1574C10.8355 18.5794 10.2632 18.8164 9.66642 18.8164C9.06968 18.8164 8.49739 18.5794 8.07543 18.1574C7.65347 17.7354 7.41642 17.1631 7.41642 16.5664Z" fill="#FFEB51"/>
</svg>
