<svg width="22" height="22" viewBox="0 0 22 22" fill="none" xmlns="http://www.w3.org/2000/svg">
<path fill-rule="evenodd" clip-rule="evenodd" d="M8.33344 3.06641C8.49641 3.06644 8.65493 3.11955 8.78501 3.2177C8.9151 3.31586 9.00968 3.45371 9.05444 3.61041L9.86744 6.45641C10.0425 7.06932 10.3709 7.62751 10.8216 8.07823C11.2723 8.52896 11.8305 8.85736 12.4434 9.03241L15.2894 9.84541C15.446 9.89027 15.5838 9.98489 15.6818 10.115C15.7799 10.245 15.8329 10.4035 15.8329 10.5664C15.8329 10.7293 15.7799 10.8878 15.6818 11.0178C15.5838 11.1479 15.446 11.2425 15.2894 11.2874L12.4434 12.1004C11.8305 12.2755 11.2723 12.6039 10.8216 13.0546C10.3709 13.5053 10.0425 14.0635 9.86744 14.6764L9.05444 17.5224C9.00958 17.679 8.91496 17.8167 8.78488 17.9148C8.6548 18.0128 8.49634 18.0659 8.33344 18.0659C8.17055 18.0659 8.01208 18.0128 7.882 17.9148C7.75192 17.8167 7.6573 17.679 7.61244 17.5224L6.79944 14.6764C6.62439 14.0635 6.296 13.5053 5.84527 13.0546C5.39454 12.6039 4.83636 12.2755 4.22344 12.1004L1.37744 11.2874C1.22085 11.2425 1.08312 11.1479 0.985067 11.0178C0.887018 10.8878 0.833984 10.7293 0.833984 10.5664C0.833984 10.4035 0.887018 10.245 0.985067 10.115C1.08312 9.98489 1.22085 9.89027 1.37744 9.84541L4.22344 9.03241C4.83636 8.85736 5.39454 8.52896 5.84527 8.07823C6.296 7.62751 6.62439 7.06932 6.79944 6.45641L7.61244 3.61041C7.6572 3.45371 7.75178 3.31586 7.88187 3.2177C8.01196 3.11955 8.17048 3.06644 8.33344 3.06641ZM17.3334 0.0664064C17.5008 0.0663132 17.6633 0.12217 17.7952 0.225093C17.9271 0.328015 18.0208 0.472092 18.0614 0.634406L18.3194 1.67041C18.5554 2.61041 19.2894 3.34441 20.2294 3.58041L21.2654 3.83841C21.4281 3.87869 21.5725 3.97226 21.6758 4.10421C21.779 4.23615 21.8351 4.39887 21.8351 4.56641C21.8351 4.73395 21.779 4.89666 21.6758 5.02861C21.5725 5.16055 21.4281 5.25412 21.2654 5.29441L20.2294 5.55241C19.2894 5.78841 18.5554 6.52241 18.3194 7.46241L18.0614 8.49841C18.0212 8.66103 17.9276 8.80549 17.7956 8.90874C17.6637 9.01199 17.501 9.06808 17.3334 9.06808C17.1659 9.06808 17.0032 9.01199 16.8712 8.90874C16.7393 8.80549 16.6457 8.66103 16.6054 8.49841L16.3474 7.46241C16.2321 7.00084 15.9934 6.5793 15.657 6.24288C15.3205 5.90646 14.899 5.66779 14.4374 5.55241L13.4014 5.29441C13.2388 5.25412 13.0944 5.16055 12.9911 5.02861C12.8879 4.89666 12.8318 4.73395 12.8318 4.56641C12.8318 4.39887 12.8879 4.23615 12.9911 4.10421C13.0944 3.97226 13.2388 3.87869 13.4014 3.83841L14.4374 3.58041C14.899 3.46502 15.3205 3.22635 15.657 2.88993C15.9934 2.55351 16.2321 2.13198 16.3474 1.67041L16.6054 0.634406C16.646 0.472092 16.7398 0.328015 16.8717 0.225093C17.0036 0.12217 17.1661 0.0663132 17.3334 0.0664064ZM15.8334 13.5664C15.991 13.5663 16.1445 13.6158 16.2723 13.7079C16.4001 13.8 16.4957 13.93 16.5454 14.0794L16.9394 15.2624C17.0894 15.7094 17.4394 16.0614 17.8874 16.2104L19.0704 16.6054C19.2194 16.6554 19.3489 16.751 19.4406 16.8785C19.5324 17.0061 19.5817 17.1593 19.5817 17.3164C19.5817 17.4735 19.5324 17.6267 19.4406 17.7543C19.3489 17.8819 19.2194 17.9774 19.0704 18.0274L17.8874 18.4224C17.4404 18.5724 17.0884 18.9224 16.9394 19.3704L16.5444 20.5534C16.4944 20.7024 16.3989 20.8319 16.2713 20.9236C16.1437 21.0153 15.9906 21.0647 15.8334 21.0647C15.6763 21.0647 15.5231 21.0153 15.3956 20.9236C15.268 20.8319 15.1725 20.7024 15.1224 20.5534L14.7274 19.3704C14.6538 19.1497 14.5298 18.9491 14.3652 18.7846C14.2007 18.6201 14.0002 18.4961 13.7794 18.4224L12.5964 18.0274C12.4475 17.9774 12.318 17.8819 12.2262 17.7543C12.1345 17.6267 12.0851 17.4735 12.0851 17.3164C12.0851 17.1593 12.1345 17.0061 12.2262 16.8785C12.318 16.751 12.4475 16.6554 12.5964 16.6054L13.7794 16.2104C14.2264 16.0604 14.5784 15.7104 14.7274 15.2624L15.1224 14.0794C15.1722 13.9301 15.2676 13.8003 15.3952 13.7082C15.5228 13.6161 15.6761 13.5665 15.8334 13.5664Z" fill="#CE51FF"/>
</svg>
