<svg width="20" height="19" viewBox="0 0 20 19" fill="none" xmlns="http://www.w3.org/2000/svg">
<path fill-rule="evenodd" clip-rule="evenodd" d="M2.75489 7.62496C3.09537 6.3531 3.76467 5.19328 4.69552 4.26211C5.62636 3.33093 6.78594 2.6612 8.05768 2.32026C9.32941 1.97932 10.6685 1.97918 11.9403 2.31985C13.2121 2.66051 14.3718 3.32999 15.3029 4.26096L17.2059 6.16396H14.0229C13.824 6.16396 13.6332 6.24298 13.4926 6.38363C13.3519 6.52428 13.2729 6.71505 13.2729 6.91396C13.2729 7.11287 13.3519 7.30364 13.4926 7.44429C13.6332 7.58495 13.824 7.66396 14.0229 7.66396H19.0149C19.2138 7.66396 19.4046 7.58495 19.5452 7.44429C19.6859 7.30364 19.7649 7.11287 19.7649 6.91396V1.92196C19.7649 1.72305 19.6859 1.53229 19.5452 1.39163C19.4046 1.25098 19.2138 1.17196 19.0149 1.17196C18.816 1.17196 18.6252 1.25098 18.4846 1.39163C18.3439 1.53229 18.2649 1.72305 18.2649 1.92196V5.10196L16.3649 3.20196C15.2479 2.08442 13.8563 1.28065 12.3301 0.871466C10.8039 0.462284 9.19692 0.462113 7.67065 0.87097C6.14438 1.27983 4.75265 2.0833 3.63538 3.20061C2.51811 4.31792 1.71469 5.70968 1.30589 7.23596C1.28041 7.33117 1.27394 7.43046 1.28683 7.52818C1.29973 7.62589 1.33175 7.7201 1.38106 7.80544C1.43036 7.89077 1.496 7.96556 1.57421 8.02553C1.65242 8.08551 1.74168 8.12949 1.83689 8.15496C1.9321 8.18044 2.03139 8.18691 2.1291 8.17402C2.22681 8.16112 2.32102 8.1291 2.40636 8.07979C2.4917 8.03049 2.56649 7.96485 2.62646 7.88664C2.68643 7.80843 2.73041 7.71917 2.75589 7.62396L2.75489 7.62496ZM18.1629 10.977C18.0677 10.9514 17.9685 10.9448 17.8708 10.9576C17.7731 10.9704 17.6789 11.0024 17.5936 11.0516C17.5082 11.1008 17.4334 11.1663 17.3734 11.2445C17.3134 11.3226 17.2694 11.4118 17.2439 11.507C16.9034 12.7788 16.2341 13.9386 15.3033 14.8698C14.3724 15.801 13.2128 16.4707 11.9411 16.8117C10.6694 17.1526 9.33028 17.1527 8.05846 16.8121C6.78665 16.4714 5.62693 15.8019 4.69589 14.871L2.79389 12.968H5.97689C6.1758 12.968 6.36656 12.8889 6.50722 12.7483C6.64787 12.6076 6.72689 12.4169 6.72689 12.218C6.72689 12.0191 6.64787 11.8283 6.50722 11.6876C6.36656 11.547 6.1758 11.468 5.97689 11.468H0.983887C0.784974 11.468 0.594209 11.547 0.453557 11.6876C0.312904 11.8283 0.233887 12.0191 0.233887 12.218V17.21C0.233887 17.4089 0.312904 17.5996 0.453557 17.7403C0.594209 17.8809 0.784974 17.96 0.983887 17.96C1.1828 17.96 1.37356 17.8809 1.51422 17.7403C1.65487 17.5996 1.73389 17.4089 1.73389 17.21V14.03L3.63389 15.93C4.75098 17.0475 6.14262 17.8512 7.66886 18.2604C9.19511 18.6695 10.8022 18.6696 12.3285 18.2606C13.8547 17.8516 15.2465 17.048 16.3637 15.9306C17.4809 14.8132 18.2842 13.4213 18.6929 11.895C18.7442 11.703 18.7172 11.4984 18.6178 11.3263C18.5185 11.1542 18.3548 11.0285 18.1629 10.977Z" fill="#51D9FF"/>
</svg>
