<svg width="250" height="201" viewBox="0 0 250 201" fill="none" xmlns="http://www.w3.org/2000/svg">
<g clip-path="url(#clip0_104_188)">
<rect y="0.833008" width="250" height="200" rx="16" fill="black" fill-opacity="0.2"/>
<path d="M26.76 34.825C27.64 34.057 28.872 33.673 30.456 33.673C32.04 33.673 33.68 34.065 35.376 34.849L34.056 37.657C32.712 36.969 31.52 36.625 30.48 36.625C29.312 36.625 28.728 37.033 28.728 37.849C28.728 38.169 28.824 38.457 29.016 38.713C29.208 38.953 29.544 39.241 30.024 39.577L32.928 41.617C33.904 42.289 34.624 42.993 35.088 43.729C35.568 44.449 35.808 45.321 35.808 46.345C35.808 47.913 35.296 49.113 34.272 49.945C33.264 50.777 31.864 51.193 30.072 51.193C27.944 51.193 26.008 50.649 24.264 49.561L25.632 46.753C27.296 47.729 28.808 48.217 30.168 48.217C30.936 48.217 31.52 48.065 31.92 47.761C32.336 47.441 32.544 47.025 32.544 46.513C32.544 46.113 32.408 45.753 32.136 45.433C31.864 45.113 31.432 44.737 30.84 44.305L28.128 42.361C26.352 41.145 25.464 39.673 25.464 37.945C25.464 36.617 25.896 35.577 26.76 34.825ZM41.3156 51.193C40.0996 51.193 39.1076 50.809 38.3396 50.041C37.5876 49.273 37.2116 48.105 37.2116 46.537V39.745H40.2356V46.009C40.2356 47.657 40.9316 48.481 42.3236 48.481C43.9556 48.481 44.7716 47.345 44.7716 45.073V39.745H47.7236V50.833H44.8196V49.129H44.7716C44.0036 50.505 42.8516 51.193 41.3156 51.193ZM49.836 50.833V39.745H52.74V41.425H52.788C53.412 40.065 54.54 39.385 56.172 39.385C57.836 39.385 58.972 40.121 59.58 41.593H59.628C60.364 40.121 61.572 39.385 63.252 39.385C64.388 39.385 65.316 39.761 66.036 40.513C66.756 41.265 67.116 42.361 67.116 43.801V50.833H64.164V44.425C64.164 42.889 63.492 42.121 62.148 42.121C60.66 42.121 59.916 43.145 59.916 45.193V50.833H57.012V44.425C57.012 42.889 56.348 42.121 55.02 42.121C53.516 42.121 52.764 43.153 52.764 45.217V50.833H49.836ZM69.0904 50.833V39.745H71.9944V41.425H72.0424C72.6664 40.065 73.7944 39.385 75.4264 39.385C77.0904 39.385 78.2264 40.121 78.8344 41.593H78.8824C79.6184 40.121 80.8264 39.385 82.5064 39.385C83.6424 39.385 84.5704 39.761 85.2904 40.513C86.0104 41.265 86.3704 42.361 86.3704 43.801V50.833H83.4184V44.425C83.4184 42.889 82.7464 42.121 81.4024 42.121C79.9144 42.121 79.1704 43.145 79.1704 45.193V50.833H76.2664V44.425C76.2664 42.889 75.6024 42.121 74.2744 42.121C72.7704 42.121 72.0184 43.153 72.0184 45.217V50.833H69.0904ZM93.0008 51.193C91.4808 51.193 90.2088 50.665 89.1848 49.609C88.1768 48.553 87.6728 47.113 87.6728 45.289C87.6728 43.465 88.1768 42.025 89.1848 40.969C90.2088 39.913 91.4808 39.385 93.0008 39.385C94.6968 39.385 95.9288 40.025 96.6968 41.305H96.7448V39.745H99.6728V50.833H96.7448V49.273H96.6968C95.9288 50.553 94.6968 51.193 93.0008 51.193ZM91.5608 47.545C92.1208 48.121 92.8488 48.409 93.7448 48.409C94.6408 48.409 95.3608 48.121 95.9048 47.545C96.4648 46.969 96.7448 46.217 96.7448 45.289C96.7448 44.361 96.4648 43.609 95.9048 43.033C95.3608 42.457 94.6408 42.169 93.7448 42.169C92.8488 42.169 92.1208 42.457 91.5608 43.033C91.0168 43.609 90.7448 44.361 90.7448 45.289C90.7448 46.217 91.0168 46.969 91.5608 47.545ZM108.484 39.409V42.577H108.148C106.948 42.577 106.068 42.865 105.508 43.441C104.948 44.017 104.668 44.969 104.668 46.297V50.833H101.74V39.745H104.644V42.097H104.692C105.284 40.305 106.508 39.409 108.364 39.409H108.484ZM117.501 39.745H120.597L113.493 55.633H110.445L113.157 49.801L108.357 39.745H111.813L114.621 46.489L117.501 39.745Z" fill="white" fill-opacity="0.8"/>
<g opacity="0.25" filter="url(#filter0_b_104_188)">
<rect x="48" y="93.833" width="309" height="73" rx="16" fill="url(#paint0_linear_104_188)" fill-opacity="0.1"/>
<rect x="47" y="92.833" width="311" height="75" rx="17" stroke="url(#paint1_linear_104_188)" stroke-opacity="0.2" stroke-width="2"/>
<path d="M69.8498 121.833C69.975 121.684 70.0372 121.492 70.0233 121.298C70.0095 121.104 69.9206 120.922 69.7755 120.792C69.6304 120.663 69.4405 120.594 69.2459 120.602C69.0513 120.609 68.8673 120.692 68.7328 120.833C67.5042 122.204 66.69 123.894 66.3848 125.709C66.3565 125.903 66.4054 126.101 66.521 126.259C66.6365 126.418 66.8095 126.525 67.0029 126.557C67.1963 126.589 67.3947 126.545 67.5556 126.433C67.7166 126.321 67.8272 126.15 67.8638 125.957C68.1219 124.422 68.8106 122.992 69.8498 121.833ZM83.2668 120.833C83.2013 120.759 83.1218 120.699 83.0329 120.656C82.944 120.612 82.8474 120.587 82.7488 120.581C82.6501 120.576 82.5512 120.589 82.4579 120.622C82.3645 120.654 82.2785 120.705 82.2049 120.771C82.1312 120.837 82.0712 120.917 82.0285 121.006C81.9858 121.095 81.9611 121.192 81.9559 121.291C81.9507 121.389 81.9651 121.488 81.9981 121.581C82.0312 121.674 82.0824 121.76 82.1488 121.833C83.1882 122.992 83.8773 124.422 84.1358 125.957C84.1687 126.154 84.2782 126.329 84.4402 126.444C84.5204 126.501 84.6111 126.542 84.7071 126.564C84.8032 126.587 84.9026 126.59 84.9998 126.573C85.0969 126.557 85.19 126.522 85.2735 126.47C85.3571 126.417 85.4295 126.349 85.4867 126.269C85.5439 126.189 85.5848 126.098 85.6069 126.002C85.629 125.906 85.6321 125.807 85.6158 125.709C85.3099 123.894 84.496 122.203 83.2668 120.833Z" fill="white" fill-opacity="0.8"/>
<path fill-rule="evenodd" clip-rule="evenodd" d="M76.0004 120.583C74.2102 120.583 72.4933 121.294 71.2274 122.56C69.9616 123.826 69.2504 125.543 69.2504 127.333V128.083C69.2535 130.122 68.4982 132.09 67.1314 133.603C67.0493 133.694 66.9908 133.804 66.961 133.923C66.9312 134.042 66.931 134.166 66.9604 134.285C66.9898 134.404 67.0479 134.514 67.1297 134.605C67.2114 134.697 67.3144 134.767 67.4294 134.809C68.9734 135.379 70.5894 135.799 72.2604 136.052C72.2228 136.566 72.2916 137.083 72.4625 137.569C72.6334 138.055 72.9027 138.501 73.2537 138.879C73.6047 139.256 74.0297 139.558 74.5023 139.763C74.9749 139.969 75.4849 140.076 76.0004 140.076C76.5159 140.076 77.0259 139.969 77.4985 139.763C77.9711 139.558 78.3961 139.256 78.7471 138.879C79.0981 138.501 79.3674 138.055 79.5383 137.569C79.7092 137.083 79.778 136.566 79.7404 136.052C81.3884 135.802 83.0067 135.385 84.5704 134.808C84.6853 134.766 84.788 134.696 84.8696 134.604C84.9513 134.513 85.0093 134.403 85.0387 134.284C85.0681 134.166 85.068 134.041 85.0383 133.923C85.0086 133.804 84.9503 133.694 84.8684 133.603C83.502 132.09 82.7471 130.122 82.7504 128.083V127.333C82.7504 125.543 82.0392 123.826 80.7734 122.56C79.5075 121.294 77.7906 120.583 76.0004 120.583ZM73.7504 136.333C73.7504 136.299 73.7504 136.266 73.7524 136.233C75.248 136.368 76.7528 136.368 78.2484 136.233L78.2504 136.333C78.2504 136.93 78.0134 137.502 77.5914 137.924C77.1694 138.346 76.5971 138.583 76.0004 138.583C75.4037 138.583 74.8314 138.346 74.4094 137.924C73.9875 137.502 73.7504 136.93 73.7504 136.333Z" fill="white" fill-opacity="0.8"/>
<path d="M111.5 114.958H110.195C110.125 114.448 109.935 114.048 109.625 113.758C109.325 113.458 108.915 113.308 108.395 113.308C108.035 113.308 107.71 113.373 107.42 113.503C107.14 113.633 106.91 113.823 106.73 114.073C106.56 114.313 106.415 114.558 106.295 114.808C106.175 115.058 106.085 115.363 106.025 115.723C105.965 116.083 105.925 116.378 105.905 116.608C105.885 116.828 105.865 117.098 105.845 117.418C106.425 116.488 107.305 116.023 108.485 116.023C109.475 116.023 110.27 116.338 110.87 116.968C111.48 117.588 111.785 118.408 111.785 119.428C111.785 120.478 111.465 121.343 110.825 122.023C110.195 122.703 109.35 123.043 108.29 123.043C105.82 123.043 104.585 121.283 104.585 117.763C104.585 117.213 104.615 116.693 104.675 116.203C104.745 115.713 104.865 115.218 105.035 114.718C105.215 114.208 105.445 113.773 105.725 113.413C106.005 113.053 106.375 112.763 106.835 112.543C107.305 112.313 107.84 112.198 108.44 112.198C109.33 112.198 110.045 112.443 110.585 112.933C111.125 113.413 111.43 114.088 111.5 114.958ZM108.26 117.133C107.61 117.133 107.085 117.353 106.685 117.793C106.285 118.223 106.085 118.788 106.085 119.488C106.085 120.218 106.285 120.803 106.685 121.243C107.095 121.683 107.63 121.903 108.29 121.903C108.93 121.903 109.445 121.693 109.835 121.273C110.235 120.843 110.435 120.268 110.435 119.548C110.435 118.808 110.24 118.223 109.85 117.793C109.46 117.353 108.93 117.133 108.26 117.133ZM114.945 121.168V122.833H113.28V121.168H114.945ZM114.945 115.093V116.758H113.28V115.093H114.945ZM116.6 115.648C116.63 114.548 116.935 113.698 117.515 113.098C118.105 112.498 118.925 112.198 119.975 112.198C120.915 112.198 121.67 112.453 122.24 112.963C122.81 113.473 123.095 114.143 123.095 114.973C123.095 115.473 122.965 115.923 122.705 116.323C122.455 116.713 122.1 117.003 121.64 117.193C122.24 117.333 122.715 117.633 123.065 118.093C123.415 118.553 123.59 119.108 123.59 119.758C123.6 120.738 123.26 121.533 122.57 122.143C121.89 122.743 121.005 123.043 119.915 123.043C118.835 123.043 117.97 122.748 117.32 122.158C116.68 121.558 116.36 120.753 116.36 119.743V119.548H117.62C117.65 120.308 117.865 120.893 118.265 121.303C118.665 121.713 119.22 121.918 119.93 121.918C120.61 121.918 121.16 121.728 121.58 121.348C122.01 120.958 122.225 120.458 122.225 119.848C122.225 119.228 122.01 118.733 121.58 118.363C121.16 117.993 120.59 117.808 119.87 117.808C119.69 117.808 119.46 117.828 119.18 117.868V116.788C119.32 116.798 119.465 116.803 119.615 116.803C120.275 116.803 120.795 116.648 121.175 116.338C121.565 116.018 121.76 115.588 121.76 115.048C121.76 114.528 121.59 114.108 121.25 113.788C120.92 113.468 120.475 113.308 119.915 113.308C119.275 113.308 118.775 113.513 118.415 113.923C118.055 114.323 117.865 114.898 117.845 115.648H116.6ZM128.1 112.198C128.74 112.198 129.285 112.318 129.735 112.558C130.195 112.788 130.545 113.073 130.785 113.413C131.025 113.753 131.215 114.198 131.355 114.748C131.495 115.288 131.58 115.778 131.61 116.218C131.64 116.648 131.655 117.168 131.655 117.778C131.655 118.338 131.63 118.843 131.58 119.293C131.54 119.743 131.445 120.213 131.295 120.703C131.155 121.193 130.96 121.603 130.71 121.933C130.46 122.253 130.12 122.518 129.69 122.728C129.26 122.938 128.75 123.043 128.16 123.043C127.54 123.043 127 122.938 126.54 122.728C126.09 122.508 125.74 122.238 125.49 121.918C125.24 121.598 125.04 121.193 124.89 120.703C124.75 120.203 124.66 119.733 124.62 119.293C124.58 118.843 124.56 118.328 124.56 117.748C124.56 117.248 124.57 116.813 124.59 116.443C124.62 116.073 124.67 115.658 124.74 115.198C124.82 114.728 124.94 114.333 125.1 114.013C125.26 113.683 125.465 113.373 125.715 113.083C125.965 112.793 126.29 112.573 126.69 112.423C127.1 112.273 127.57 112.198 128.1 112.198ZM128.925 113.518C128.685 113.398 128.41 113.338 128.1 113.338C127.79 113.338 127.515 113.398 127.275 113.518C127.035 113.628 126.84 113.758 126.69 113.908C126.54 114.058 126.41 114.283 126.3 114.583C126.19 114.873 126.11 115.118 126.06 115.318C126.02 115.518 125.985 115.808 125.955 116.188C125.925 116.558 125.91 116.823 125.91 116.983C125.91 117.133 125.91 117.388 125.91 117.748C125.91 118.098 125.915 118.388 125.925 118.618C125.935 118.848 125.96 119.148 126 119.518C126.04 119.888 126.11 120.198 126.21 120.448C126.31 120.688 126.435 120.933 126.585 121.183C126.735 121.423 126.94 121.608 127.2 121.738C127.47 121.858 127.78 121.918 128.13 121.918C128.43 121.918 128.695 121.863 128.925 121.753C129.165 121.643 129.36 121.513 129.51 121.363C129.66 121.213 129.785 121.003 129.885 120.733C129.995 120.453 130.075 120.213 130.125 120.013C130.175 119.803 130.21 119.528 130.23 119.188C130.26 118.838 130.275 118.583 130.275 118.423C130.285 118.253 130.29 118.008 130.29 117.688C130.29 117.338 130.29 117.088 130.29 116.938C130.29 116.788 130.275 116.528 130.245 116.158C130.215 115.788 130.175 115.503 130.125 115.303C130.085 115.103 130.01 114.858 129.9 114.568C129.79 114.278 129.66 114.058 129.51 113.908C129.36 113.758 129.165 113.628 128.925 113.518ZM133.225 112.153H137.62C138.71 112.153 139.575 112.403 140.215 112.903C140.855 113.393 141.175 114.168 141.175 115.228C141.175 117.378 139.96 118.453 137.53 118.453H134.635V122.833H133.225V112.153ZM134.635 113.368V117.268H137.35C138.11 117.268 138.7 117.128 139.12 116.848C139.55 116.558 139.765 116.048 139.765 115.318C139.765 114.908 139.695 114.568 139.555 114.298C139.425 114.028 139.23 113.828 138.97 113.698C138.71 113.568 138.44 113.483 138.16 113.443C137.88 113.393 137.545 113.368 137.155 113.368H134.635ZM142.606 112.153H144.556L147.991 121.198L151.306 112.153H153.271V122.833H151.936V113.923L148.591 122.833H147.361L143.956 113.923V122.833H142.606V112.153Z" fill="white" fill-opacity="0.5"/>
<path d="M106.3 135.493C107.033 134.853 108.06 134.533 109.38 134.533C110.7 134.533 112.067 134.86 113.48 135.513L112.38 137.853C111.26 137.28 110.267 136.993 109.4 136.993C108.427 136.993 107.94 137.333 107.94 138.013C107.94 138.28 108.02 138.52 108.18 138.733C108.34 138.933 108.62 139.173 109.02 139.453L111.44 141.153C112.253 141.713 112.853 142.3 113.24 142.913C113.64 143.513 113.84 144.24 113.84 145.093C113.84 146.4 113.413 147.4 112.56 148.093C111.72 148.786 110.553 149.133 109.06 149.133C107.287 149.133 105.673 148.68 104.22 147.773L105.36 145.433C106.747 146.246 108.007 146.653 109.14 146.653C109.78 146.653 110.267 146.526 110.6 146.273C110.947 146.006 111.12 145.66 111.12 145.233C111.12 144.9 111.007 144.6 110.78 144.333C110.553 144.066 110.193 143.753 109.7 143.393L107.44 141.773C105.96 140.76 105.22 139.533 105.22 138.093C105.22 136.986 105.58 136.12 106.3 135.493ZM115.99 140.673C116.963 139.753 118.19 139.293 119.67 139.293C121.15 139.293 122.37 139.753 123.33 140.673C124.303 141.593 124.79 142.773 124.79 144.213C124.79 145.653 124.303 146.833 123.33 147.753C122.37 148.673 121.15 149.133 119.67 149.133C118.19 149.133 116.963 148.673 115.99 147.753C115.03 146.833 114.55 145.653 114.55 144.213C114.55 142.773 115.03 141.593 115.99 140.673ZM121.53 142.333C121.05 141.853 120.43 141.613 119.67 141.613C118.91 141.613 118.283 141.853 117.79 142.333C117.31 142.8 117.07 143.426 117.07 144.213C117.07 145 117.31 145.633 117.79 146.113C118.283 146.58 118.91 146.813 119.67 146.813C120.43 146.813 121.05 146.58 121.53 146.113C122.01 145.633 122.25 145 122.25 144.213C122.25 143.426 122.01 142.8 121.53 142.333ZM129.299 149.133C128.286 149.133 127.459 148.813 126.819 148.173C126.193 147.533 125.879 146.56 125.879 145.253V139.593H128.399V144.813C128.399 146.186 128.979 146.873 130.139 146.873C131.499 146.873 132.179 145.926 132.179 144.033V139.593H134.639V148.833H132.219V147.413H132.179C131.539 148.56 130.579 149.133 129.299 149.133ZM141.88 139.293C142.946 139.293 143.793 139.613 144.42 140.253C145.046 140.88 145.36 141.84 145.36 143.133V148.833H142.9V143.713C142.9 142.286 142.266 141.573 141 141.573C139.56 141.573 138.84 142.486 138.84 144.313V148.833H136.4V139.593H138.82V140.993H138.86C139.526 139.86 140.533 139.293 141.88 139.293ZM150.895 149.133C149.628 149.133 148.568 148.693 147.715 147.813C146.875 146.933 146.455 145.733 146.455 144.213C146.455 142.693 146.875 141.493 147.715 140.613C148.568 139.733 149.628 139.293 150.895 139.293C152.308 139.293 153.335 139.826 153.975 140.893H154.015V134.833H156.455V148.833H154.015V147.533H153.975C153.335 148.6 152.308 149.133 150.895 149.133ZM149.695 146.093C150.162 146.573 150.768 146.813 151.515 146.813C152.262 146.813 152.862 146.573 153.315 146.093C153.782 145.613 154.015 144.986 154.015 144.213C154.015 143.44 153.782 142.813 153.315 142.333C152.862 141.853 152.262 141.613 151.515 141.613C150.768 141.613 150.162 141.853 149.695 142.333C149.242 142.813 149.015 143.44 149.015 144.213C149.015 144.986 149.242 145.613 149.695 146.093Z" fill="white" fill-opacity="0.8"/>
</g>
<g opacity="0.5" filter="url(#filter1_b_104_188)">
<rect x="32" y="84.833" width="309" height="73" rx="16" fill="url(#paint2_linear_104_188)" fill-opacity="0.1"/>
<rect x="31" y="83.833" width="311" height="75" rx="17" stroke="url(#paint3_linear_104_188)" stroke-opacity="0.2" stroke-width="2"/>
<path d="M53.8498 112.833C53.975 112.684 54.0372 112.492 54.0233 112.298C54.0095 112.104 53.9206 111.922 53.7755 111.792C53.6304 111.663 53.4405 111.594 53.2459 111.602C53.0513 111.609 52.8673 111.692 52.7328 111.833C51.5042 113.204 50.69 114.894 50.3848 116.709C50.3565 116.903 50.4054 117.101 50.521 117.259C50.6365 117.418 50.8095 117.525 51.0029 117.557C51.1963 117.589 51.3947 117.545 51.5556 117.433C51.7166 117.321 51.8272 117.15 51.8638 116.957C52.1219 115.422 52.8106 113.992 53.8498 112.833ZM67.2668 111.833C67.2013 111.759 67.1218 111.699 67.0329 111.656C66.944 111.612 66.8474 111.587 66.7488 111.581C66.6501 111.576 66.5512 111.589 66.4579 111.622C66.3645 111.654 66.2785 111.705 66.2049 111.771C66.1312 111.837 66.0712 111.917 66.0285 112.006C65.9858 112.095 65.9611 112.192 65.9559 112.291C65.9507 112.389 65.9651 112.488 65.9981 112.581C66.0312 112.674 66.0824 112.76 66.1488 112.833C67.1882 113.992 67.8773 115.422 68.1358 116.957C68.1687 117.154 68.2782 117.329 68.4402 117.444C68.5204 117.501 68.6111 117.542 68.7071 117.564C68.8032 117.587 68.9026 117.59 68.9998 117.573C69.0969 117.557 69.19 117.522 69.2735 117.47C69.3571 117.417 69.4295 117.349 69.4867 117.269C69.5439 117.189 69.5848 117.098 69.6069 117.002C69.629 116.906 69.6321 116.807 69.6158 116.709C69.3099 114.894 68.496 113.203 67.2668 111.833Z" fill="white" fill-opacity="0.8"/>
<path fill-rule="evenodd" clip-rule="evenodd" d="M60.0004 111.583C58.2102 111.583 56.4933 112.294 55.2274 113.56C53.9616 114.826 53.2504 116.543 53.2504 118.333V119.083C53.2535 121.122 52.4982 123.09 51.1314 124.603C51.0493 124.694 50.9908 124.804 50.961 124.923C50.9312 125.042 50.931 125.166 50.9604 125.285C50.9898 125.404 51.0479 125.514 51.1297 125.605C51.2114 125.697 51.3144 125.767 51.4294 125.809C52.9734 126.379 54.5894 126.799 56.2604 127.052C56.2228 127.566 56.2916 128.083 56.4625 128.569C56.6334 129.055 56.9027 129.501 57.2537 129.879C57.6047 130.256 58.0297 130.558 58.5023 130.763C58.9749 130.969 59.4849 131.076 60.0004 131.076C60.5159 131.076 61.0259 130.969 61.4985 130.763C61.9711 130.558 62.3961 130.256 62.7471 129.879C63.0981 129.501 63.3674 129.055 63.5383 128.569C63.7092 128.083 63.778 127.566 63.7404 127.052C65.3884 126.802 67.0067 126.385 68.5704 125.808C68.6853 125.766 68.788 125.696 68.8696 125.604C68.9513 125.513 69.0093 125.403 69.0387 125.284C69.0681 125.166 69.068 125.041 69.0383 124.923C69.0086 124.804 68.9503 124.694 68.8684 124.603C67.502 123.09 66.7471 121.122 66.7504 119.083V118.333C66.7504 116.543 66.0392 114.826 64.7734 113.56C63.5075 112.294 61.7906 111.583 60.0004 111.583ZM57.7504 127.333C57.7504 127.299 57.7504 127.266 57.7524 127.233C59.248 127.368 60.7528 127.368 62.2484 127.233L62.2504 127.333C62.2504 127.93 62.0134 128.502 61.5914 128.924C61.1694 129.346 60.5971 129.583 60.0004 129.583C59.4037 129.583 58.8314 129.346 58.4094 128.924C57.9875 128.502 57.7504 127.93 57.7504 127.333Z" fill="white" fill-opacity="0.8"/>
<path d="M95.5 105.958H94.195C94.125 105.448 93.935 105.048 93.625 104.758C93.325 104.458 92.915 104.308 92.395 104.308C92.035 104.308 91.71 104.373 91.42 104.503C91.14 104.633 90.91 104.823 90.73 105.073C90.56 105.313 90.415 105.558 90.295 105.808C90.175 106.058 90.085 106.363 90.025 106.723C89.965 107.083 89.925 107.378 89.905 107.608C89.885 107.828 89.865 108.098 89.845 108.418C90.425 107.488 91.305 107.023 92.485 107.023C93.475 107.023 94.27 107.338 94.87 107.968C95.48 108.588 95.785 109.408 95.785 110.428C95.785 111.478 95.465 112.343 94.825 113.023C94.195 113.703 93.35 114.043 92.29 114.043C89.82 114.043 88.585 112.283 88.585 108.763C88.585 108.213 88.615 107.693 88.675 107.203C88.745 106.713 88.865 106.218 89.035 105.718C89.215 105.208 89.445 104.773 89.725 104.413C90.005 104.053 90.375 103.763 90.835 103.543C91.305 103.313 91.84 103.198 92.44 103.198C93.33 103.198 94.045 103.443 94.585 103.933C95.125 104.413 95.43 105.088 95.5 105.958ZM92.26 108.133C91.61 108.133 91.085 108.353 90.685 108.793C90.285 109.223 90.085 109.788 90.085 110.488C90.085 111.218 90.285 111.803 90.685 112.243C91.095 112.683 91.63 112.903 92.29 112.903C92.93 112.903 93.445 112.693 93.835 112.273C94.235 111.843 94.435 111.268 94.435 110.548C94.435 109.808 94.24 109.223 93.85 108.793C93.46 108.353 92.93 108.133 92.26 108.133ZM98.945 112.168V113.833H97.28V112.168H98.945ZM98.945 106.093V107.758H97.28V106.093H98.945ZM100.6 106.648C100.63 105.548 100.935 104.698 101.515 104.098C102.105 103.498 102.925 103.198 103.975 103.198C104.915 103.198 105.67 103.453 106.24 103.963C106.81 104.473 107.095 105.143 107.095 105.973C107.095 106.473 106.965 106.923 106.705 107.323C106.455 107.713 106.1 108.003 105.64 108.193C106.24 108.333 106.715 108.633 107.065 109.093C107.415 109.553 107.59 110.108 107.59 110.758C107.6 111.738 107.26 112.533 106.57 113.143C105.89 113.743 105.005 114.043 103.915 114.043C102.835 114.043 101.97 113.748 101.32 113.158C100.68 112.558 100.36 111.753 100.36 110.743V110.548H101.62C101.65 111.308 101.865 111.893 102.265 112.303C102.665 112.713 103.22 112.918 103.93 112.918C104.61 112.918 105.16 112.728 105.58 112.348C106.01 111.958 106.225 111.458 106.225 110.848C106.225 110.228 106.01 109.733 105.58 109.363C105.16 108.993 104.59 108.808 103.87 108.808C103.69 108.808 103.46 108.828 103.18 108.868V107.788C103.32 107.798 103.465 107.803 103.615 107.803C104.275 107.803 104.795 107.648 105.175 107.338C105.565 107.018 105.76 106.588 105.76 106.048C105.76 105.528 105.59 105.108 105.25 104.788C104.92 104.468 104.475 104.308 103.915 104.308C103.275 104.308 102.775 104.513 102.415 104.923C102.055 105.323 101.865 105.898 101.845 106.648H100.6ZM112.1 103.198C112.74 103.198 113.285 103.318 113.735 103.558C114.195 103.788 114.545 104.073 114.785 104.413C115.025 104.753 115.215 105.198 115.355 105.748C115.495 106.288 115.58 106.778 115.61 107.218C115.64 107.648 115.655 108.168 115.655 108.778C115.655 109.338 115.63 109.843 115.58 110.293C115.54 110.743 115.445 111.213 115.295 111.703C115.155 112.193 114.96 112.603 114.71 112.933C114.46 113.253 114.12 113.518 113.69 113.728C113.26 113.938 112.75 114.043 112.16 114.043C111.54 114.043 111 113.938 110.54 113.728C110.09 113.508 109.74 113.238 109.49 112.918C109.24 112.598 109.04 112.193 108.89 111.703C108.75 111.203 108.66 110.733 108.62 110.293C108.58 109.843 108.56 109.328 108.56 108.748C108.56 108.248 108.57 107.813 108.59 107.443C108.62 107.073 108.67 106.658 108.74 106.198C108.82 105.728 108.94 105.333 109.1 105.013C109.26 104.683 109.465 104.373 109.715 104.083C109.965 103.793 110.29 103.573 110.69 103.423C111.1 103.273 111.57 103.198 112.1 103.198ZM112.925 104.518C112.685 104.398 112.41 104.338 112.1 104.338C111.79 104.338 111.515 104.398 111.275 104.518C111.035 104.628 110.84 104.758 110.69 104.908C110.54 105.058 110.41 105.283 110.3 105.583C110.19 105.873 110.11 106.118 110.06 106.318C110.02 106.518 109.985 106.808 109.955 107.188C109.925 107.558 109.91 107.823 109.91 107.983C109.91 108.133 109.91 108.388 109.91 108.748C109.91 109.098 109.915 109.388 109.925 109.618C109.935 109.848 109.96 110.148 110 110.518C110.04 110.888 110.11 111.198 110.21 111.448C110.31 111.688 110.435 111.933 110.585 112.183C110.735 112.423 110.94 112.608 111.2 112.738C111.47 112.858 111.78 112.918 112.13 112.918C112.43 112.918 112.695 112.863 112.925 112.753C113.165 112.643 113.36 112.513 113.51 112.363C113.66 112.213 113.785 112.003 113.885 111.733C113.995 111.453 114.075 111.213 114.125 111.013C114.175 110.803 114.21 110.528 114.23 110.188C114.26 109.838 114.275 109.583 114.275 109.423C114.285 109.253 114.29 109.008 114.29 108.688C114.29 108.338 114.29 108.088 114.29 107.938C114.29 107.788 114.275 107.528 114.245 107.158C114.215 106.788 114.175 106.503 114.125 106.303C114.085 106.103 114.01 105.858 113.9 105.568C113.79 105.278 113.66 105.058 113.51 104.908C113.36 104.758 113.165 104.628 112.925 104.518ZM117.225 103.153H121.62C122.71 103.153 123.575 103.403 124.215 103.903C124.855 104.393 125.175 105.168 125.175 106.228C125.175 108.378 123.96 109.453 121.53 109.453H118.635V113.833H117.225V103.153ZM118.635 104.368V108.268H121.35C122.11 108.268 122.7 108.128 123.12 107.848C123.55 107.558 123.765 107.048 123.765 106.318C123.765 105.908 123.695 105.568 123.555 105.298C123.425 105.028 123.23 104.828 122.97 104.698C122.71 104.568 122.44 104.483 122.16 104.443C121.88 104.393 121.545 104.368 121.155 104.368H118.635ZM126.606 103.153H128.556L131.991 112.198L135.306 103.153H137.271V113.833H135.936V104.923L132.591 113.833H131.361L127.956 104.923V113.833H126.606V103.153Z" fill="white" fill-opacity="0.5"/>
<path d="M90.3 126.493C91.0333 125.853 92.06 125.533 93.38 125.533C94.7 125.533 96.0667 125.86 97.48 126.513L96.38 128.853C95.26 128.28 94.2667 127.993 93.4 127.993C92.4267 127.993 91.94 128.333 91.94 129.013C91.94 129.28 92.02 129.52 92.18 129.733C92.34 129.933 92.62 130.173 93.02 130.453L95.44 132.153C96.2533 132.713 96.8533 133.3 97.24 133.913C97.64 134.513 97.84 135.24 97.84 136.093C97.84 137.4 97.4133 138.4 96.56 139.093C95.72 139.786 94.5533 140.133 93.06 140.133C91.2867 140.133 89.6733 139.68 88.22 138.773L89.36 136.433C90.7467 137.246 92.0067 137.653 93.14 137.653C93.78 137.653 94.2667 137.526 94.6 137.273C94.9467 137.006 95.12 136.66 95.12 136.233C95.12 135.9 95.0067 135.6 94.78 135.333C94.5533 135.066 94.1933 134.753 93.7 134.393L91.44 132.773C89.96 131.76 89.22 130.533 89.22 129.093C89.22 127.986 89.58 127.12 90.3 126.493ZM99.9897 131.673C100.963 130.753 102.19 130.293 103.67 130.293C105.15 130.293 106.37 130.753 107.33 131.673C108.303 132.593 108.79 133.773 108.79 135.213C108.79 136.653 108.303 137.833 107.33 138.753C106.37 139.673 105.15 140.133 103.67 140.133C102.19 140.133 100.963 139.673 99.9897 138.753C99.0297 137.833 98.5497 136.653 98.5497 135.213C98.5497 133.773 99.0297 132.593 99.9897 131.673ZM105.53 133.333C105.05 132.853 104.43 132.613 103.67 132.613C102.91 132.613 102.283 132.853 101.79 133.333C101.31 133.8 101.07 134.426 101.07 135.213C101.07 136 101.31 136.633 101.79 137.113C102.283 137.58 102.91 137.813 103.67 137.813C104.43 137.813 105.05 137.58 105.53 137.113C106.01 136.633 106.25 136 106.25 135.213C106.25 134.426 106.01 133.8 105.53 133.333ZM113.299 140.133C112.286 140.133 111.459 139.813 110.819 139.173C110.193 138.533 109.879 137.56 109.879 136.253V130.593H112.399V135.813C112.399 137.186 112.979 137.873 114.139 137.873C115.499 137.873 116.179 136.926 116.179 135.033V130.593H118.639V139.833H116.219V138.413H116.179C115.539 139.56 114.579 140.133 113.299 140.133ZM125.88 130.293C126.946 130.293 127.793 130.613 128.42 131.253C129.046 131.88 129.36 132.84 129.36 134.133V139.833H126.9V134.713C126.9 133.286 126.266 132.573 125 132.573C123.56 132.573 122.84 133.486 122.84 135.313V139.833H120.4V130.593H122.82V131.993H122.86C123.526 130.86 124.533 130.293 125.88 130.293ZM134.895 140.133C133.628 140.133 132.568 139.693 131.715 138.813C130.875 137.933 130.455 136.733 130.455 135.213C130.455 133.693 130.875 132.493 131.715 131.613C132.568 130.733 133.628 130.293 134.895 130.293C136.308 130.293 137.335 130.826 137.975 131.893H138.015V125.833H140.455V139.833H138.015V138.533H137.975C137.335 139.6 136.308 140.133 134.895 140.133ZM133.695 137.093C134.162 137.573 134.768 137.813 135.515 137.813C136.262 137.813 136.862 137.573 137.315 137.093C137.782 136.613 138.015 135.986 138.015 135.213C138.015 134.44 137.782 133.813 137.315 133.333C136.862 132.853 136.262 132.613 135.515 132.613C134.768 132.613 134.162 132.853 133.695 133.333C133.242 133.813 133.015 134.44 133.015 135.213C133.015 135.986 133.242 136.613 133.695 137.093Z" fill="white" fill-opacity="0.8"/>
</g>
<g filter="url(#filter2_b_104_188)">
<rect x="24" y="74.833" width="309" height="73" rx="16" fill="url(#paint4_linear_104_188)" fill-opacity="0.1"/>
<rect x="23" y="73.833" width="311" height="75" rx="17" stroke="url(#paint5_linear_104_188)" stroke-opacity="0.2" stroke-width="2"/>
<path d="M45.8498 102.833C45.975 102.684 46.0372 102.492 46.0233 102.298C46.0095 102.104 45.9206 101.922 45.7755 101.792C45.6304 101.663 45.4405 101.594 45.2459 101.602C45.0513 101.609 44.8673 101.692 44.7328 101.833C43.5042 103.204 42.69 104.894 42.3848 106.709C42.3565 106.903 42.4054 107.101 42.521 107.259C42.6365 107.418 42.8095 107.525 43.0029 107.557C43.1963 107.589 43.3947 107.545 43.5556 107.433C43.7166 107.321 43.8272 107.15 43.8638 106.957C44.1219 105.422 44.8106 103.992 45.8498 102.833ZM59.2668 101.833C59.2013 101.759 59.1218 101.699 59.0329 101.656C58.944 101.612 58.8474 101.587 58.7488 101.581C58.6501 101.576 58.5512 101.589 58.4579 101.622C58.3645 101.654 58.2785 101.705 58.2049 101.771C58.1312 101.837 58.0712 101.917 58.0285 102.006C57.9858 102.095 57.9611 102.192 57.9559 102.291C57.9507 102.389 57.9651 102.488 57.9981 102.581C58.0312 102.674 58.0824 102.76 58.1488 102.833C59.1882 103.992 59.8773 105.422 60.1358 106.957C60.1687 107.154 60.2782 107.329 60.4402 107.444C60.5204 107.501 60.6111 107.542 60.7071 107.564C60.8032 107.587 60.9026 107.59 60.9998 107.573C61.0969 107.557 61.19 107.522 61.2735 107.47C61.3571 107.417 61.4295 107.349 61.4867 107.269C61.5439 107.189 61.5848 107.098 61.6069 107.002C61.629 106.906 61.6321 106.807 61.6158 106.709C61.3099 104.894 60.496 103.203 59.2668 101.833Z" fill="white" fill-opacity="0.8"/>
<path fill-rule="evenodd" clip-rule="evenodd" d="M52.0004 101.583C50.2102 101.583 48.4933 102.294 47.2274 103.56C45.9616 104.826 45.2504 106.543 45.2504 108.333V109.083C45.2535 111.122 44.4982 113.09 43.1314 114.603C43.0493 114.694 42.9908 114.804 42.961 114.923C42.9312 115.042 42.931 115.166 42.9604 115.285C42.9898 115.404 43.0479 115.514 43.1297 115.605C43.2114 115.697 43.3144 115.767 43.4294 115.809C44.9734 116.379 46.5894 116.799 48.2604 117.052C48.2228 117.566 48.2916 118.083 48.4625 118.569C48.6334 119.055 48.9027 119.501 49.2537 119.879C49.6047 120.256 50.0297 120.558 50.5023 120.763C50.9749 120.969 51.4849 121.076 52.0004 121.076C52.5159 121.076 53.0259 120.969 53.4985 120.763C53.9711 120.558 54.3961 120.256 54.7471 119.879C55.0981 119.501 55.3674 119.055 55.5383 118.569C55.7092 118.083 55.778 117.566 55.7404 117.052C57.3884 116.802 59.0067 116.385 60.5704 115.808C60.6853 115.766 60.788 115.696 60.8696 115.604C60.9513 115.513 61.0093 115.403 61.0387 115.284C61.0681 115.166 61.068 115.041 61.0383 114.923C61.0086 114.804 60.9503 114.694 60.8684 114.603C59.502 113.09 58.7471 111.122 58.7504 109.083V108.333C58.7504 106.543 58.0392 104.826 56.7734 103.56C55.5075 102.294 53.7906 101.583 52.0004 101.583ZM49.7504 117.333C49.7504 117.299 49.7504 117.266 49.7524 117.233C51.248 117.368 52.7528 117.368 54.2484 117.233L54.2504 117.333C54.2504 117.93 54.0134 118.502 53.5914 118.924C53.1694 119.346 52.5971 119.583 52.0004 119.583C51.4037 119.583 50.8314 119.346 50.4094 118.924C49.9875 118.502 49.7504 117.93 49.7504 117.333Z" fill="white" fill-opacity="0.8"/>
<path d="M87.5 95.958H86.195C86.125 95.448 85.935 95.048 85.625 94.758C85.325 94.458 84.915 94.308 84.395 94.308C84.035 94.308 83.71 94.373 83.42 94.503C83.14 94.633 82.91 94.823 82.73 95.073C82.56 95.313 82.415 95.558 82.295 95.808C82.175 96.058 82.085 96.363 82.025 96.723C81.965 97.083 81.925 97.378 81.905 97.608C81.885 97.828 81.865 98.098 81.845 98.418C82.425 97.488 83.305 97.023 84.485 97.023C85.475 97.023 86.27 97.338 86.87 97.968C87.48 98.588 87.785 99.408 87.785 100.428C87.785 101.478 87.465 102.343 86.825 103.023C86.195 103.703 85.35 104.043 84.29 104.043C81.82 104.043 80.585 102.283 80.585 98.763C80.585 98.213 80.615 97.693 80.675 97.203C80.745 96.713 80.865 96.218 81.035 95.718C81.215 95.208 81.445 94.773 81.725 94.413C82.005 94.053 82.375 93.763 82.835 93.543C83.305 93.313 83.84 93.198 84.44 93.198C85.33 93.198 86.045 93.443 86.585 93.933C87.125 94.413 87.43 95.088 87.5 95.958ZM84.26 98.133C83.61 98.133 83.085 98.353 82.685 98.793C82.285 99.223 82.085 99.788 82.085 100.488C82.085 101.218 82.285 101.803 82.685 102.243C83.095 102.683 83.63 102.903 84.29 102.903C84.93 102.903 85.445 102.693 85.835 102.273C86.235 101.843 86.435 101.268 86.435 100.548C86.435 99.808 86.24 99.223 85.85 98.793C85.46 98.353 84.93 98.133 84.26 98.133ZM90.945 102.168V103.833H89.28V102.168H90.945ZM90.945 96.093V97.758H89.28V96.093H90.945ZM96.0648 93.198C96.7048 93.198 97.2498 93.318 97.6998 93.558C98.1598 93.788 98.5098 94.073 98.7498 94.413C98.9898 94.753 99.1798 95.198 99.3198 95.748C99.4598 96.288 99.5448 96.778 99.5748 97.218C99.6048 97.648 99.6198 98.168 99.6198 98.778C99.6198 99.338 99.5948 99.843 99.5448 100.293C99.5048 100.743 99.4098 101.213 99.2598 101.703C99.1198 102.193 98.9248 102.603 98.6748 102.933C98.4248 103.253 98.0848 103.518 97.6548 103.728C97.2248 103.938 96.7148 104.043 96.1248 104.043C95.5048 104.043 94.9648 103.938 94.5048 103.728C94.0548 103.508 93.7048 103.238 93.4548 102.918C93.2048 102.598 93.0048 102.193 92.8548 101.703C92.7148 101.203 92.6248 100.733 92.5848 100.293C92.5448 99.843 92.5248 99.328 92.5248 98.748C92.5248 98.248 92.5348 97.813 92.5548 97.443C92.5848 97.073 92.6348 96.658 92.7048 96.198C92.7848 95.728 92.9048 95.333 93.0648 95.013C93.2248 94.683 93.4298 94.373 93.6798 94.083C93.9298 93.793 94.2548 93.573 94.6548 93.423C95.0648 93.273 95.5348 93.198 96.0648 93.198ZM96.8898 94.518C96.6498 94.398 96.3748 94.338 96.0648 94.338C95.7548 94.338 95.4798 94.398 95.2398 94.518C94.9998 94.628 94.8048 94.758 94.6548 94.908C94.5048 95.058 94.3748 95.283 94.2648 95.583C94.1548 95.873 94.0748 96.118 94.0248 96.318C93.9848 96.518 93.9498 96.808 93.9198 97.188C93.8898 97.558 93.8748 97.823 93.8748 97.983C93.8748 98.133 93.8748 98.388 93.8748 98.748C93.8748 99.098 93.8798 99.388 93.8898 99.618C93.8998 99.848 93.9248 100.148 93.9648 100.518C94.0048 100.888 94.0748 101.198 94.1748 101.448C94.2748 101.688 94.3998 101.933 94.5498 102.183C94.6998 102.423 94.9048 102.608 95.1648 102.738C95.4348 102.858 95.7448 102.918 96.0948 102.918C96.3948 102.918 96.6598 102.863 96.8898 102.753C97.1298 102.643 97.3248 102.513 97.4748 102.363C97.6248 102.213 97.7498 102.003 97.8498 101.733C97.9598 101.453 98.0398 101.213 98.0898 101.013C98.1398 100.803 98.1748 100.528 98.1948 100.188C98.2248 99.838 98.2398 99.583 98.2398 99.423C98.2498 99.253 98.2548 99.008 98.2548 98.688C98.2548 98.338 98.2548 98.088 98.2548 97.938C98.2548 97.788 98.2398 97.528 98.2098 97.158C98.1798 96.788 98.1398 96.503 98.0898 96.303C98.0498 96.103 97.9748 95.858 97.8648 95.568C97.7548 95.278 97.6248 95.058 97.4748 94.908C97.3248 94.758 97.1298 94.628 96.8898 94.518ZM104.1 93.198C104.74 93.198 105.285 93.318 105.735 93.558C106.195 93.788 106.545 94.073 106.785 94.413C107.025 94.753 107.215 95.198 107.355 95.748C107.495 96.288 107.58 96.778 107.61 97.218C107.64 97.648 107.655 98.168 107.655 98.778C107.655 99.338 107.63 99.843 107.58 100.293C107.54 100.743 107.445 101.213 107.295 101.703C107.155 102.193 106.96 102.603 106.71 102.933C106.46 103.253 106.12 103.518 105.69 103.728C105.26 103.938 104.75 104.043 104.16 104.043C103.54 104.043 103 103.938 102.54 103.728C102.09 103.508 101.74 103.238 101.49 102.918C101.24 102.598 101.04 102.193 100.89 101.703C100.75 101.203 100.66 100.733 100.62 100.293C100.58 99.843 100.56 99.328 100.56 98.748C100.56 98.248 100.57 97.813 100.59 97.443C100.62 97.073 100.67 96.658 100.74 96.198C100.82 95.728 100.94 95.333 101.1 95.013C101.26 94.683 101.465 94.373 101.715 94.083C101.965 93.793 102.29 93.573 102.69 93.423C103.1 93.273 103.57 93.198 104.1 93.198ZM104.925 94.518C104.685 94.398 104.41 94.338 104.1 94.338C103.79 94.338 103.515 94.398 103.275 94.518C103.035 94.628 102.84 94.758 102.69 94.908C102.54 95.058 102.41 95.283 102.3 95.583C102.19 95.873 102.11 96.118 102.06 96.318C102.02 96.518 101.985 96.808 101.955 97.188C101.925 97.558 101.91 97.823 101.91 97.983C101.91 98.133 101.91 98.388 101.91 98.748C101.91 99.098 101.915 99.388 101.925 99.618C101.935 99.848 101.96 100.148 102 100.518C102.04 100.888 102.11 101.198 102.21 101.448C102.31 101.688 102.435 101.933 102.585 102.183C102.735 102.423 102.94 102.608 103.2 102.738C103.47 102.858 103.78 102.918 104.13 102.918C104.43 102.918 104.695 102.863 104.925 102.753C105.165 102.643 105.36 102.513 105.51 102.363C105.66 102.213 105.785 102.003 105.885 101.733C105.995 101.453 106.075 101.213 106.125 101.013C106.175 100.803 106.21 100.528 106.23 100.188C106.26 99.838 106.275 99.583 106.275 99.423C106.285 99.253 106.29 99.008 106.29 98.688C106.29 98.338 106.29 98.088 106.29 97.938C106.29 97.788 106.275 97.528 106.245 97.158C106.215 96.788 106.175 96.503 106.125 96.303C106.085 96.103 106.01 95.858 105.9 95.568C105.79 95.278 105.66 95.058 105.51 94.908C105.36 94.758 105.165 94.628 104.925 94.518ZM109.225 93.153H113.62C114.71 93.153 115.575 93.403 116.215 93.903C116.855 94.393 117.175 95.168 117.175 96.228C117.175 98.378 115.96 99.453 113.53 99.453H110.635V103.833H109.225V93.153ZM110.635 94.368V98.268H113.35C114.11 98.268 114.7 98.128 115.12 97.848C115.55 97.558 115.765 97.048 115.765 96.318C115.765 95.908 115.695 95.568 115.555 95.298C115.425 95.028 115.23 94.828 114.97 94.698C114.71 94.568 114.44 94.483 114.16 94.443C113.88 94.393 113.545 94.368 113.155 94.368H110.635ZM118.606 93.153H120.556L123.991 102.198L127.306 93.153H129.271V103.833H127.936V94.923L124.591 103.833H123.361L119.956 94.923V103.833H118.606V93.153Z" fill="white" fill-opacity="0.5"/>
<path d="M93 115.833L87.82 129.833H85.24L80.06 115.833H83.06L86.5 126.393H86.56L90 115.833H93ZM96.3092 115.953V118.653H93.5092V115.953H96.3092ZM93.6692 129.833V120.593H96.1292V129.833H93.6692ZM101.836 130.133C100.569 130.133 99.5091 129.693 98.6558 128.813C97.8158 127.933 97.3958 126.733 97.3958 125.213C97.3958 123.693 97.8158 122.493 98.6558 121.613C99.5091 120.733 100.569 120.293 101.836 120.293C103.249 120.293 104.276 120.826 104.916 121.893H104.956V115.833H107.396V129.833H104.956V128.533H104.916C104.276 129.6 103.249 130.133 101.836 130.133ZM100.636 127.093C101.102 127.573 101.709 127.813 102.456 127.813C103.202 127.813 103.802 127.573 104.256 127.093C104.722 126.613 104.956 125.986 104.956 125.213C104.956 124.44 104.722 123.813 104.256 123.333C103.802 122.853 103.202 122.613 102.456 122.613C101.709 122.613 101.102 122.853 100.636 123.333C100.182 123.813 99.9558 124.44 99.9558 125.213C99.9558 125.986 100.182 126.613 100.636 127.093ZM113.456 120.293C114.869 120.293 115.969 120.726 116.756 121.593C117.543 122.446 117.936 123.66 117.936 125.233V125.713H111.036C111.103 126.42 111.369 126.973 111.836 127.373C112.316 127.76 112.916 127.953 113.636 127.953C114.636 127.953 115.556 127.533 116.396 126.693L117.636 128.473C116.436 129.58 115.103 130.133 113.636 130.133C112.129 130.133 110.923 129.686 110.016 128.793C109.109 127.9 108.656 126.713 108.656 125.233C108.656 123.753 109.096 122.56 109.976 121.653C110.856 120.746 112.016 120.293 113.456 120.293ZM113.336 122.273C112.043 122.273 111.296 122.893 111.096 124.133H115.456C115.416 123.546 115.203 123.093 114.816 122.773C114.443 122.44 113.949 122.273 113.336 122.273ZM119.969 121.673C120.943 120.753 122.169 120.293 123.649 120.293C125.129 120.293 126.349 120.753 127.309 121.673C128.283 122.593 128.769 123.773 128.769 125.213C128.769 126.653 128.283 127.833 127.309 128.753C126.349 129.673 125.129 130.133 123.649 130.133C122.169 130.133 120.943 129.673 119.969 128.753C119.009 127.833 118.529 126.653 118.529 125.213C118.529 123.773 119.009 122.593 119.969 121.673ZM125.509 123.333C125.029 122.853 124.409 122.613 123.649 122.613C122.889 122.613 122.263 122.853 121.769 123.333C121.289 123.8 121.049 124.426 121.049 125.213C121.049 126 121.289 126.633 121.769 127.113C122.263 127.58 122.889 127.813 123.649 127.813C124.409 127.813 125.029 127.58 125.509 127.113C125.989 126.633 126.229 126 126.229 125.213C126.229 124.426 125.989 123.8 125.509 123.333Z" fill="white" fill-opacity="0.8"/>
</g>
<g filter="url(#filter3_b_104_188)">
<rect x="201" y="151.833" width="40" height="40" rx="12" fill="white" fill-opacity="0.1"/>
<rect x="202" y="152.833" width="38" height="38" rx="11" stroke="white" stroke-opacity="0.1" stroke-width="2"/>
<path d="M221 164.333V179.333M228.5 171.833H213.5" stroke="white" stroke-width="1.5" stroke-linecap="round" stroke-linejoin="round"/>
</g>
</g>
<rect x="1" y="1.83301" width="248" height="198" rx="15" stroke="white" stroke-opacity="0.1" stroke-width="2"/>
<defs>
<filter id="filter0_b_104_188" x="10" y="55.833" width="385" height="149" filterUnits="userSpaceOnUse" color-interpolation-filters="sRGB">
<feFlood flood-opacity="0" result="BackgroundImageFix"/>
<feGaussianBlur in="BackgroundImageFix" stdDeviation="18"/>
<feComposite in2="SourceAlpha" operator="in" result="effect1_backgroundBlur_104_188"/>
<feBlend mode="normal" in="SourceGraphic" in2="effect1_backgroundBlur_104_188" result="shape"/>
</filter>
<filter id="filter1_b_104_188" x="-6" y="46.833" width="385" height="149" filterUnits="userSpaceOnUse" color-interpolation-filters="sRGB">
<feFlood flood-opacity="0" result="BackgroundImageFix"/>
<feGaussianBlur in="BackgroundImageFix" stdDeviation="18"/>
<feComposite in2="SourceAlpha" operator="in" result="effect1_backgroundBlur_104_188"/>
<feBlend mode="normal" in="SourceGraphic" in2="effect1_backgroundBlur_104_188" result="shape"/>
</filter>
<filter id="filter2_b_104_188" x="-14" y="36.833" width="385" height="149" filterUnits="userSpaceOnUse" color-interpolation-filters="sRGB">
<feFlood flood-opacity="0" result="BackgroundImageFix"/>
<feGaussianBlur in="BackgroundImageFix" stdDeviation="18"/>
<feComposite in2="SourceAlpha" operator="in" result="effect1_backgroundBlur_104_188"/>
<feBlend mode="normal" in="SourceGraphic" in2="effect1_backgroundBlur_104_188" result="shape"/>
</filter>
<filter id="filter3_b_104_188" x="188" y="138.833" width="66" height="66" filterUnits="userSpaceOnUse" color-interpolation-filters="sRGB">
<feFlood flood-opacity="0" result="BackgroundImageFix"/>
<feGaussianBlur in="BackgroundImageFix" stdDeviation="6.5"/>
<feComposite in2="SourceAlpha" operator="in" result="effect1_backgroundBlur_104_188"/>
<feBlend mode="normal" in="SourceGraphic" in2="effect1_backgroundBlur_104_188" result="shape"/>
</filter>
<linearGradient id="paint0_linear_104_188" x1="48" y1="93.833" x2="288.92" y2="263.503" gradientUnits="userSpaceOnUse">
<stop stop-color="white"/>
<stop offset="1" stop-color="white" stop-opacity="0.3"/>
</linearGradient>
<linearGradient id="paint1_linear_104_188" x1="48" y1="93.833" x2="288.92" y2="263.503" gradientUnits="userSpaceOnUse">
<stop stop-color="white"/>
<stop offset="1" stop-color="white" stop-opacity="0.2"/>
</linearGradient>
<linearGradient id="paint2_linear_104_188" x1="32" y1="84.833" x2="272.92" y2="254.503" gradientUnits="userSpaceOnUse">
<stop stop-color="white"/>
<stop offset="1" stop-color="white" stop-opacity="0.3"/>
</linearGradient>
<linearGradient id="paint3_linear_104_188" x1="32" y1="84.833" x2="272.92" y2="254.503" gradientUnits="userSpaceOnUse">
<stop stop-color="white"/>
<stop offset="1" stop-color="white" stop-opacity="0.2"/>
</linearGradient>
<linearGradient id="paint4_linear_104_188" x1="24" y1="74.833" x2="264.92" y2="244.503" gradientUnits="userSpaceOnUse">
<stop stop-color="white"/>
<stop offset="1" stop-color="white" stop-opacity="0.3"/>
</linearGradient>
<linearGradient id="paint5_linear_104_188" x1="24" y1="74.833" x2="264.92" y2="244.503" gradientUnits="userSpaceOnUse">
<stop stop-color="white"/>
<stop offset="1" stop-color="white" stop-opacity="0.2"/>
</linearGradient>
<clipPath id="clip0_104_188">
<rect y="0.833008" width="250" height="200" rx="16" fill="white"/>
</clipPath>
</defs>
</svg>
