<svg width="250" height="201" viewBox="0 0 250 201" fill="none" xmlns="http://www.w3.org/2000/svg">
<g clip-path="url(#clip0_104_314)">
<rect y="0.833008" width="250" height="200" rx="16" fill="black" fill-opacity="0.2"/>
<path d="M37.432 28.033V30.913H32.848V44.833H29.776V30.913H25.192V28.033H37.432ZM37.1845 35.041C38.3525 33.937 39.8245 33.385 41.6005 33.385C43.3765 33.385 44.8405 33.937 45.9925 35.041C47.1605 36.145 47.7445 37.561 47.7445 39.289C47.7445 41.017 47.1605 42.433 45.9925 43.537C44.8405 44.641 43.3765 45.193 41.6005 45.193C39.8245 45.193 38.3525 44.641 37.1845 43.537C36.0325 42.433 35.4565 41.017 35.4565 39.289C35.4565 37.561 36.0325 36.145 37.1845 35.041ZM43.8325 37.033C43.2565 36.457 42.5125 36.169 41.6005 36.169C40.6885 36.169 39.9365 36.457 39.3445 37.033C38.7685 37.593 38.4805 38.345 38.4805 39.289C38.4805 40.233 38.7685 40.993 39.3445 41.569C39.9365 42.129 40.6885 42.409 41.6005 42.409C42.5125 42.409 43.2565 42.129 43.8325 41.569C44.4085 40.993 44.6965 40.233 44.6965 39.289C44.6965 38.345 44.4085 37.593 43.8325 37.033ZM61.0122 28.033C63.5882 28.033 65.6842 28.793 67.3002 30.313C68.9322 31.817 69.7482 33.857 69.7482 36.433C69.7482 39.009 68.9322 41.057 67.3002 42.577C65.6842 44.081 63.5882 44.833 61.0122 44.833H55.6362V28.033H61.0122ZM61.1562 30.865H58.7082V42.001H61.1562C62.7242 42.001 63.9962 41.513 64.9722 40.537C65.9482 39.561 66.4362 38.193 66.4362 36.433C66.4362 34.673 65.9482 33.305 64.9722 32.329C63.9962 31.353 62.7242 30.865 61.1562 30.865ZM72.1664 35.041C73.3344 33.937 74.8064 33.385 76.5824 33.385C78.3584 33.385 79.8224 33.937 80.9744 35.041C82.1424 36.145 82.7264 37.561 82.7264 39.289C82.7264 41.017 82.1424 42.433 80.9744 43.537C79.8224 44.641 78.3584 45.193 76.5824 45.193C74.8064 45.193 73.3344 44.641 72.1664 43.537C71.0144 42.433 70.4384 41.017 70.4384 39.289C70.4384 37.561 71.0144 36.145 72.1664 35.041ZM78.8144 37.033C78.2384 36.457 77.4944 36.169 76.5824 36.169C75.6704 36.169 74.9184 36.457 74.3264 37.033C73.7504 37.593 73.4624 38.345 73.4624 39.289C73.4624 40.233 73.7504 40.993 74.3264 41.569C74.9184 42.129 75.6704 42.409 76.5824 42.409C77.4944 42.409 78.2384 42.129 78.8144 41.569C79.3904 40.993 79.6784 40.233 79.6784 39.289C79.6784 38.345 79.3904 37.593 78.8144 37.033ZM93.6901 28.033V41.929H100.698V44.833H90.6181V28.033H93.6901ZM104.808 28.177V31.417H101.448V28.177H104.808ZM101.64 44.833V33.745H104.592V44.833H101.64ZM110.201 45.193C108.441 45.193 106.857 44.801 105.449 44.017L106.649 41.521C107.961 42.289 109.201 42.673 110.369 42.673C111.281 42.673 111.737 42.409 111.737 41.881C111.737 41.673 111.665 41.505 111.521 41.377C111.377 41.249 111.129 41.097 110.777 40.921L108.785 40.057C107.121 39.321 106.289 38.217 106.289 36.745C106.289 35.657 106.657 34.825 107.393 34.249C108.129 33.673 109.193 33.385 110.585 33.385C111.833 33.385 113.145 33.641 114.521 34.153L113.537 36.625C112.337 36.113 111.297 35.857 110.417 35.857C109.665 35.857 109.289 36.081 109.289 36.529C109.289 36.737 109.361 36.913 109.505 37.057C109.665 37.201 109.945 37.361 110.345 37.537L112.337 38.401C113.969 39.073 114.785 40.153 114.785 41.641C114.785 42.825 114.377 43.713 113.561 44.305C112.745 44.897 111.625 45.193 110.201 45.193ZM122.272 36.217H119.992V40.873C119.992 41.321 120.08 41.641 120.256 41.833C120.432 42.025 120.736 42.121 121.168 42.121H121.672V44.857H120.376C119.304 44.857 118.48 44.585 117.904 44.041C117.328 43.481 117.04 42.657 117.04 41.569V36.217H115V33.745H117.04V29.305H119.992V33.745H122.272V36.217Z" fill="white" fill-opacity="0.8"/>
<g filter="url(#filter0_b_104_314)">
<rect x="25" y="68.833" width="309" height="44" rx="22" fill="url(#paint0_linear_104_314)" fill-opacity="0.1"/>
<rect x="24" y="67.833" width="311" height="46" rx="23" stroke="url(#paint1_linear_104_314)" stroke-opacity="0.2" stroke-width="2"/>
<circle cx="51" cy="90.833" r="9.25" stroke="white" stroke-opacity="0.6" stroke-width="1.5"/>
<path d="M83.98 84.733L79.408 97.333H77.662L73.09 84.733H75.25L78.508 94.669H78.562L81.82 84.733H83.98ZM86.6704 84.913V87.073H84.5104V84.913H86.6704ZM84.7084 97.333V89.017H86.4724V97.333H84.7084ZM91.8641 97.603C90.7241 97.603 89.7641 97.201 88.9841 96.397C88.2041 95.593 87.8141 94.519 87.8141 93.175C87.8141 91.831 88.2041 90.757 88.9841 89.953C89.7641 89.149 90.7241 88.747 91.8641 88.747C93.1601 88.747 94.0961 89.245 94.6721 90.241H94.7081V84.733H96.4721V97.333H94.7081V96.109H94.6721C94.0961 97.105 93.1601 97.603 91.8641 97.603ZM90.3881 95.137C90.8561 95.629 91.4741 95.875 92.2421 95.875C93.0101 95.875 93.6281 95.629 94.0961 95.137C94.5641 94.633 94.7981 93.979 94.7981 93.175C94.7981 92.371 94.5641 91.723 94.0961 91.231C93.6281 90.727 93.0101 90.475 92.2421 90.475C91.4741 90.475 90.8561 90.727 90.3881 91.231C89.9201 91.723 89.6861 92.371 89.6861 93.175C89.6861 93.979 89.9201 94.633 90.3881 95.137ZM102.073 88.747C103.321 88.747 104.293 89.149 104.989 89.953C105.697 90.745 106.051 91.819 106.051 93.175V93.463H99.6072C99.6432 94.195 99.8892 94.789 100.345 95.245C100.813 95.689 101.407 95.911 102.127 95.911C103.111 95.911 103.963 95.425 104.683 94.453L105.925 95.623C104.965 96.943 103.711 97.603 102.163 97.603C100.843 97.603 99.7872 97.201 98.9952 96.397C98.2152 95.581 97.8252 94.513 97.8252 93.193C97.8252 91.897 98.2032 90.835 98.9592 90.007C99.7272 89.167 100.765 88.747 102.073 88.747ZM101.965 90.367C101.353 90.367 100.849 90.523 100.453 90.835C100.057 91.147 99.8052 91.597 99.6972 92.185H104.143C104.107 91.609 103.891 91.165 103.495 90.853C103.111 90.529 102.601 90.367 101.965 90.367ZM108.06 90.007C108.924 89.167 110.01 88.747 111.318 88.747C112.626 88.747 113.712 89.167 114.576 90.007C115.44 90.847 115.872 91.903 115.872 93.175C115.872 94.447 115.44 95.503 114.576 96.343C113.712 97.183 112.626 97.603 111.318 97.603C110.01 97.603 108.924 97.183 108.06 96.343C107.196 95.503 106.764 94.447 106.764 93.175C106.764 91.903 107.196 90.847 108.06 90.007ZM113.244 91.213C112.752 90.721 112.11 90.475 111.318 90.475C110.526 90.475 109.878 90.721 109.374 91.213C108.882 91.705 108.636 92.359 108.636 93.175C108.636 93.991 108.882 94.645 109.374 95.137C109.878 95.629 110.526 95.875 111.318 95.875C112.11 95.875 112.752 95.629 113.244 95.137C113.748 94.645 114 93.991 114 93.175C114 92.359 113.748 91.705 113.244 91.213Z" fill="white" fill-opacity="0.8"/>
</g>
<g opacity="0.6" filter="url(#filter1_b_104_314)">
<rect x="25" y="120.833" width="309" height="44" rx="22" fill="url(#paint2_linear_104_314)" fill-opacity="0.1"/>
<rect x="24" y="119.833" width="311" height="46" rx="23" stroke="url(#paint3_linear_104_314)" stroke-opacity="0.2" stroke-width="2"/>
<rect x="41" y="132.833" width="20" height="20" rx="10" fill="white" fill-opacity="0.6"/>
<path d="M47.25 143.208L50.25 146.208L54.75 139.458" stroke="#242424" stroke-width="1.5" stroke-linecap="round" stroke-linejoin="round"/>
<path d="M83.062 149.333L81.856 146.201H76.348L75.142 149.333H73.09L78.238 136.733H79.966L85.114 149.333H83.062ZM77.014 144.473H81.19L79.102 139.073L77.014 144.473ZM88.3174 149.603C87.0694 149.603 85.9414 149.309 84.9334 148.721L85.7254 147.155C86.6374 147.683 87.5194 147.947 88.3714 147.947C89.2354 147.947 89.6674 147.689 89.6674 147.173C89.6674 146.837 89.3734 146.525 88.7854 146.237L87.2734 145.499C86.1094 144.947 85.5274 144.149 85.5274 143.105C85.5274 142.349 85.7854 141.767 86.3014 141.359C86.8294 140.951 87.5554 140.747 88.4794 140.747C89.4394 140.747 90.3994 140.963 91.3594 141.395L90.6394 142.925C89.7994 142.565 89.0614 142.385 88.4254 142.385C87.7414 142.385 87.3994 142.595 87.3994 143.015C87.3994 143.219 87.4654 143.393 87.5974 143.537C87.7414 143.681 87.9934 143.837 88.3534 144.005L89.9014 144.743C91.0054 145.259 91.5574 146.039 91.5574 147.083C91.5574 147.911 91.2634 148.541 90.6754 148.973C90.0994 149.393 89.3134 149.603 88.3174 149.603ZM95.2172 149.603C93.9692 149.603 92.8412 149.309 91.8332 148.721L92.6252 147.155C93.5372 147.683 94.4192 147.947 95.2712 147.947C96.1352 147.947 96.5672 147.689 96.5672 147.173C96.5672 146.837 96.2732 146.525 95.6852 146.237L94.1732 145.499C93.0092 144.947 92.4272 144.149 92.4272 143.105C92.4272 142.349 92.6852 141.767 93.2012 141.359C93.7292 140.951 94.4552 140.747 95.3792 140.747C96.3392 140.747 97.2992 140.963 98.2592 141.395L97.5392 142.925C96.6992 142.565 95.9612 142.385 95.3252 142.385C94.6412 142.385 94.2992 142.595 94.2992 143.015C94.2992 143.219 94.3652 143.393 94.4972 143.537C94.6412 143.681 94.8932 143.837 95.2532 144.005L96.8012 144.743C97.9052 145.259 98.4572 146.039 98.4572 147.083C98.4572 147.911 98.1632 148.541 97.5752 148.973C96.9992 149.393 96.2132 149.603 95.2172 149.603ZM103.251 140.747C104.499 140.747 105.471 141.149 106.167 141.953C106.875 142.745 107.229 143.819 107.229 145.175V145.463H100.785C100.821 146.195 101.067 146.789 101.523 147.245C101.991 147.689 102.585 147.911 103.305 147.911C104.289 147.911 105.141 147.425 105.861 146.453L107.103 147.623C106.143 148.943 104.889 149.603 103.341 149.603C102.021 149.603 100.965 149.201 100.173 148.397C99.393 147.581 99.003 146.513 99.003 145.193C99.003 143.897 99.381 142.835 100.137 142.007C100.905 141.167 101.943 140.747 103.251 140.747ZM103.143 142.367C102.531 142.367 102.027 142.523 101.631 142.835C101.235 143.147 100.983 143.597 100.875 144.185H105.321C105.285 143.609 105.069 143.165 104.673 142.853C104.289 142.529 103.779 142.367 103.143 142.367ZM108.482 149.333V141.017H110.246V142.313H110.282C110.738 141.269 111.572 140.747 112.784 140.747C113.996 140.747 114.836 141.311 115.304 142.439H115.34C115.58 141.875 115.934 141.455 116.402 141.179C116.87 140.891 117.386 140.747 117.95 140.747C118.79 140.747 119.474 141.029 120.002 141.593C120.53 142.157 120.794 143.021 120.794 144.185V149.333H119.03V144.275C119.03 143.099 118.484 142.511 117.392 142.511C116.816 142.511 116.36 142.715 116.024 143.123C115.688 143.519 115.52 144.149 115.52 145.013V149.333H113.756V144.275C113.756 143.099 113.204 142.511 112.1 142.511C111.536 142.511 111.086 142.715 110.75 143.123C110.414 143.531 110.246 144.167 110.246 145.031V149.333H108.482ZM127.199 149.603C125.903 149.603 124.967 149.105 124.391 148.109H124.355V149.333H122.591V136.733H124.355V142.241H124.391C124.967 141.245 125.903 140.747 127.199 140.747C128.339 140.747 129.299 141.149 130.079 141.953C130.859 142.757 131.249 143.831 131.249 145.175C131.249 146.519 130.859 147.593 130.079 148.397C129.299 149.201 128.339 149.603 127.199 149.603ZM124.967 147.137C125.435 147.629 126.053 147.875 126.821 147.875C127.589 147.875 128.207 147.629 128.675 147.137C129.143 146.633 129.377 145.979 129.377 145.175C129.377 144.371 129.143 143.723 128.675 143.231C128.207 142.727 127.589 142.475 126.821 142.475C126.053 142.475 125.435 142.727 124.967 143.231C124.499 143.723 124.265 144.371 124.265 145.175C124.265 145.979 124.499 146.633 124.967 147.137ZM134.366 136.733V149.333H132.602V136.733H134.366ZM141.688 141.017H143.632L138.448 152.933H136.576L138.574 148.577L135.082 141.017H137.188L139.474 146.471L141.688 141.017Z" fill="white" fill-opacity="0.8"/>
</g>
<g opacity="0.25" filter="url(#filter2_b_104_314)">
<rect x="25" y="172.833" width="309" height="44" rx="22" fill="url(#paint4_linear_104_314)" fill-opacity="0.1"/>
<rect x="24" y="171.833" width="311" height="46" rx="23" stroke="url(#paint5_linear_104_314)" stroke-opacity="0.2" stroke-width="2"/>
<circle cx="51" cy="194.833" r="9.25" stroke="white" stroke-opacity="0.6" stroke-width="1.5"/>
<path d="M77.68 188.463C78.796 188.463 79.906 188.745 81.01 189.309L80.164 191.091C79.3 190.599 78.454 190.353 77.626 190.353C76.666 190.353 76.186 190.713 76.186 191.433C76.186 191.913 76.516 192.411 77.176 192.927L79.426 194.655C80.098 195.171 80.59 195.699 80.902 196.239C81.214 196.767 81.37 197.379 81.37 198.075C81.37 199.203 81.004 200.073 80.272 200.685C79.54 201.297 78.562 201.603 77.338 201.603C75.85 201.603 74.494 201.213 73.27 200.433L74.116 198.669C75.304 199.353 76.384 199.695 77.356 199.695C78.004 199.695 78.496 199.557 78.832 199.281C79.18 198.993 79.354 198.627 79.354 198.183C79.354 197.847 79.246 197.535 79.03 197.247C78.826 196.959 78.49 196.629 78.022 196.257L75.88 194.565C74.728 193.665 74.152 192.645 74.152 191.505C74.152 190.569 74.464 189.831 75.088 189.291C75.712 188.739 76.576 188.463 77.68 188.463ZM83.476 194.007C84.34 193.167 85.426 192.747 86.734 192.747C88.042 192.747 89.128 193.167 89.992 194.007C90.856 194.847 91.288 195.903 91.288 197.175C91.288 198.447 90.856 199.503 89.992 200.343C89.128 201.183 88.042 201.603 86.734 201.603C85.426 201.603 84.34 201.183 83.476 200.343C82.612 199.503 82.18 198.447 82.18 197.175C82.18 195.903 82.612 194.847 83.476 194.007ZM88.66 195.213C88.168 194.721 87.526 194.475 86.734 194.475C85.942 194.475 85.294 194.721 84.79 195.213C84.298 195.705 84.052 196.359 84.052 197.175C84.052 197.991 84.298 198.645 84.79 199.137C85.294 199.629 85.942 199.875 86.734 199.875C87.526 199.875 88.168 199.629 88.66 199.137C89.164 198.645 89.416 197.991 89.416 197.175C89.416 196.359 89.164 195.705 88.66 195.213ZM95.5073 201.603C94.6193 201.603 93.8873 201.315 93.3113 200.739C92.7473 200.151 92.4653 199.257 92.4653 198.057V193.017H94.2653V197.877C94.2653 198.549 94.4153 199.053 94.7153 199.389C95.0273 199.725 95.4593 199.893 96.0113 199.893C97.4033 199.893 98.0993 198.927 98.0993 196.995V193.017H99.8633V201.333H98.0993V200.073H98.0633C97.5593 201.093 96.7073 201.603 95.5073 201.603ZM106.188 192.747C107.148 192.747 107.91 193.029 108.474 193.593C109.038 194.145 109.32 195.021 109.32 196.221V201.333H107.556V196.527C107.556 195.183 106.92 194.511 105.648 194.511C104.172 194.511 103.434 195.459 103.434 197.355V201.333H101.67V193.017H103.434V194.277H103.47C104.046 193.257 104.952 192.747 106.188 192.747ZM114.541 201.603C113.401 201.603 112.441 201.201 111.661 200.397C110.881 199.593 110.491 198.519 110.491 197.175C110.491 195.831 110.881 194.757 111.661 193.953C112.441 193.149 113.401 192.747 114.541 192.747C115.837 192.747 116.773 193.245 117.349 194.241H117.385V188.733H119.149V201.333H117.385V200.109H117.349C116.773 201.105 115.837 201.603 114.541 201.603ZM113.065 199.137C113.533 199.629 114.151 199.875 114.919 199.875C115.687 199.875 116.305 199.629 116.773 199.137C117.241 198.633 117.475 197.979 117.475 197.175C117.475 196.371 117.241 195.723 116.773 195.231C116.305 194.727 115.687 194.475 114.919 194.475C114.151 194.475 113.533 194.727 113.065 195.231C112.597 195.723 112.363 196.371 112.363 197.175C112.363 197.979 112.597 198.633 113.065 199.137Z" fill="white" fill-opacity="0.8"/>
</g>
<g filter="url(#filter3_b_104_314)">
<rect x="201" y="151.833" width="40" height="40" rx="12" fill="white" fill-opacity="0.1"/>
<rect x="202" y="152.833" width="38" height="38" rx="11" stroke="white" stroke-opacity="0.1" stroke-width="2"/>
<path d="M221 164.333V179.333M228.5 171.833H213.5" stroke="white" stroke-width="1.5" stroke-linecap="round" stroke-linejoin="round"/>
</g>
</g>
<rect x="1" y="1.83301" width="248" height="198" rx="15" stroke="white" stroke-opacity="0.1" stroke-width="2"/>
<defs>
<filter id="filter0_b_104_314" x="-13" y="30.833" width="385" height="120" filterUnits="userSpaceOnUse" color-interpolation-filters="sRGB">
<feFlood flood-opacity="0" result="BackgroundImageFix"/>
<feGaussianBlur in="BackgroundImageFix" stdDeviation="18"/>
<feComposite in2="SourceAlpha" operator="in" result="effect1_backgroundBlur_104_314"/>
<feBlend mode="normal" in="SourceGraphic" in2="effect1_backgroundBlur_104_314" result="shape"/>
</filter>
<filter id="filter1_b_104_314" x="-13" y="82.833" width="385" height="120" filterUnits="userSpaceOnUse" color-interpolation-filters="sRGB">
<feFlood flood-opacity="0" result="BackgroundImageFix"/>
<feGaussianBlur in="BackgroundImageFix" stdDeviation="18"/>
<feComposite in2="SourceAlpha" operator="in" result="effect1_backgroundBlur_104_314"/>
<feBlend mode="normal" in="SourceGraphic" in2="effect1_backgroundBlur_104_314" result="shape"/>
</filter>
<filter id="filter2_b_104_314" x="-13" y="134.833" width="385" height="120" filterUnits="userSpaceOnUse" color-interpolation-filters="sRGB">
<feFlood flood-opacity="0" result="BackgroundImageFix"/>
<feGaussianBlur in="BackgroundImageFix" stdDeviation="18"/>
<feComposite in2="SourceAlpha" operator="in" result="effect1_backgroundBlur_104_314"/>
<feBlend mode="normal" in="SourceGraphic" in2="effect1_backgroundBlur_104_314" result="shape"/>
</filter>
<filter id="filter3_b_104_314" x="188" y="138.833" width="66" height="66" filterUnits="userSpaceOnUse" color-interpolation-filters="sRGB">
<feFlood flood-opacity="0" result="BackgroundImageFix"/>
<feGaussianBlur in="BackgroundImageFix" stdDeviation="6.5"/>
<feComposite in2="SourceAlpha" operator="in" result="effect1_backgroundBlur_104_314"/>
<feBlend mode="normal" in="SourceGraphic" in2="effect1_backgroundBlur_104_314" result="shape"/>
</filter>
<linearGradient id="paint0_linear_104_314" x1="25" y1="68.833" x2="177.379" y2="246.877" gradientUnits="userSpaceOnUse">
<stop stop-color="white"/>
<stop offset="1" stop-color="white" stop-opacity="0.3"/>
</linearGradient>
<linearGradient id="paint1_linear_104_314" x1="25" y1="68.833" x2="177.379" y2="246.877" gradientUnits="userSpaceOnUse">
<stop stop-color="white"/>
<stop offset="1" stop-color="white" stop-opacity="0.2"/>
</linearGradient>
<linearGradient id="paint2_linear_104_314" x1="25" y1="120.833" x2="177.379" y2="298.877" gradientUnits="userSpaceOnUse">
<stop stop-color="white"/>
<stop offset="1" stop-color="white" stop-opacity="0.3"/>
</linearGradient>
<linearGradient id="paint3_linear_104_314" x1="25" y1="120.833" x2="177.379" y2="298.877" gradientUnits="userSpaceOnUse">
<stop stop-color="white"/>
<stop offset="1" stop-color="white" stop-opacity="0.2"/>
</linearGradient>
<linearGradient id="paint4_linear_104_314" x1="25" y1="172.833" x2="177.379" y2="350.877" gradientUnits="userSpaceOnUse">
<stop stop-color="white"/>
<stop offset="1" stop-color="white" stop-opacity="0.3"/>
</linearGradient>
<linearGradient id="paint5_linear_104_314" x1="25" y1="172.833" x2="177.379" y2="350.877" gradientUnits="userSpaceOnUse">
<stop stop-color="white"/>
<stop offset="1" stop-color="white" stop-opacity="0.2"/>
</linearGradient>
<clipPath id="clip0_104_314">
<rect y="0.833008" width="250" height="200" rx="16" fill="white"/>
</clipPath>
</defs>
</svg>
