<svg width="250" height="200" viewBox="0 0 250 200" fill="none" xmlns="http://www.w3.org/2000/svg">
<g clip-path="url(#clip0_250_35)">
<rect width="250" height="200" rx="16" fill="black" fill-opacity="0.2"/>
<path d="M23.976 23.456H25.224L27.684 30.896L30.168 23.456H31.356L28.308 32H27.012L23.976 23.456ZM33.2199 23.456V32H32.0919V23.456H33.2199ZM34.9094 23.456H37.6934C39.1414 23.456 40.2094 23.792 40.8974 24.464C41.5854 25.136 41.9294 26.2 41.9294 27.656C41.9294 29.088 41.6094 30.172 40.9694 30.908C40.3294 31.636 39.3054 32 37.8974 32H34.9094V23.456ZM36.0374 24.428V31.028H37.7534C38.8254 31.028 39.6014 30.768 40.0814 30.248C40.5694 29.72 40.8134 28.9 40.8134 27.788C40.8134 26.62 40.5774 25.768 40.1054 25.232C39.6334 24.696 38.8334 24.428 37.7054 24.428H36.0374ZM49.0346 23.456V24.44H44.2466V27.116H48.7226V28.064H44.2466V31.016H49.0946V32H43.1186V23.456H49.0346ZM53.8146 23.252C55.1106 23.252 56.1186 23.66 56.8386 24.476C57.5586 25.284 57.9186 26.344 57.9186 27.656C57.9186 28.976 57.5626 30.064 56.8506 30.92C56.1386 31.776 55.1306 32.204 53.8266 32.204C53.1626 32.204 52.5666 32.084 52.0386 31.844C51.5106 31.604 51.0786 31.272 50.7426 30.848C50.4146 30.424 50.1626 29.94 49.9866 29.396C49.8186 28.852 49.7346 28.264 49.7346 27.632C49.7346 26.296 50.1026 25.232 50.8386 24.44C51.5826 23.648 52.5746 23.252 53.8146 23.252ZM53.8146 24.236C52.8626 24.236 52.1306 24.572 51.6186 25.244C51.1146 25.908 50.8626 26.732 50.8626 27.716C50.8626 28.788 51.1306 29.644 51.6666 30.284C52.2106 30.916 52.9346 31.232 53.8386 31.232C54.7346 31.232 55.4506 30.912 55.9866 30.272C56.5226 29.632 56.7906 28.78 56.7906 27.716C56.7906 26.66 56.5186 25.816 55.9746 25.184C55.4386 24.552 54.7186 24.236 53.8146 24.236Z" fill="white" fill-opacity="0.4"/>
<rect x="24" y="40" width="272" height="35" rx="8" fill="url(#paint0_linear_250_35)" fill-opacity="0.1"/>
<rect x="23" y="39" width="274" height="37" rx="9" stroke="white" stroke-opacity="0.1" stroke-width="2"/>
<path d="M24 48C24 43.5817 27.5817 40 32 40H206C210.418 40 214 43.5817 214 48V67C214 71.4183 210.418 75 206 75H32C27.5817 75 24 71.4183 24 67V48Z" fill="url(#paint1_linear_250_35)" fill-opacity="0.3"/>
<path d="M182.24 59.112V60.264H180.704V63H179.424V60.264H174.448V58.984L179.6 51.656H180.704V59.112H182.24ZM179.424 59.112V53.656L175.648 59.112H179.424ZM183.307 55.336C183.339 54.1627 183.664 53.256 184.283 52.616C184.912 51.976 185.787 51.656 186.907 51.656C187.909 51.656 188.715 51.928 189.323 52.472C189.931 53.016 190.235 53.7307 190.235 54.616C190.235 55.1493 190.096 55.6293 189.819 56.056C189.552 56.472 189.173 56.7813 188.683 56.984C189.323 57.1333 189.829 57.4533 190.203 57.944C190.576 58.4347 190.763 59.0267 190.763 59.72C190.773 60.7653 190.411 61.6133 189.675 62.264C188.949 62.904 188.005 63.224 186.843 63.224C185.691 63.224 184.768 62.9093 184.075 62.28C183.392 61.64 183.051 60.7813 183.051 59.704V59.496H184.395C184.427 60.3067 184.656 60.9307 185.083 61.368C185.509 61.8053 186.101 62.024 186.859 62.024C187.584 62.024 188.171 61.8213 188.619 61.416C189.077 61 189.307 60.4667 189.307 59.816C189.307 59.1547 189.077 58.6267 188.619 58.232C188.171 57.8373 187.563 57.64 186.795 57.64C186.603 57.64 186.357 57.6613 186.059 57.704V56.552C186.208 56.5627 186.363 56.568 186.523 56.568C187.227 56.568 187.781 56.4027 188.187 56.072C188.603 55.7307 188.811 55.272 188.811 54.696C188.811 54.1413 188.629 53.6933 188.267 53.352C187.915 53.0107 187.44 52.84 186.843 52.84C186.16 52.84 185.627 53.0587 185.243 53.496C184.859 53.9227 184.656 54.536 184.635 55.336H183.307ZM202.773 51.304L196.389 63.544H195.301L201.717 51.304H202.773ZM195.269 51.624C196.08 51.624 196.699 51.8853 197.125 52.408C197.563 52.9307 197.781 53.688 197.781 54.68C197.781 55.768 197.563 56.6 197.125 57.176C196.688 57.752 196.048 58.04 195.205 58.04C193.488 58.04 192.629 56.9627 192.629 54.808C192.629 53.7947 192.859 53.0107 193.317 52.456C193.776 51.9013 194.427 51.624 195.269 51.624ZM196.581 54.744C196.581 53.2827 196.123 52.552 195.205 52.552C194.288 52.552 193.829 53.3307 193.829 54.888C193.829 56.3813 194.288 57.128 195.205 57.128C196.123 57.128 196.581 56.3333 196.581 54.744ZM203.237 56.824C204.048 56.824 204.667 57.0853 205.093 57.608C205.531 58.1307 205.749 58.888 205.749 59.88C205.749 60.968 205.531 61.8 205.093 62.376C204.656 62.952 204.016 63.24 203.173 63.24C201.456 63.24 200.597 62.1627 200.597 60.008C200.597 58.9947 200.827 58.2107 201.285 57.656C201.744 57.1013 202.395 56.824 203.237 56.824ZM204.549 59.944C204.549 58.4827 204.091 57.752 203.173 57.752C202.256 57.752 201.797 58.5307 201.797 60.088C201.797 61.5813 202.256 62.328 203.173 62.328C204.091 62.328 204.549 61.5333 204.549 59.944Z" fill="white" fill-opacity="0.7"/>
<g opacity="0.5">
<path d="M28.536 92.456L31.872 101H30.612L29.664 98.384H26.076L25.104 101H23.904L27.264 92.456H28.536ZM29.328 97.484L27.876 93.536L26.4 97.484H29.328ZM38.5373 94.964H37.4453C37.3253 93.804 36.6173 93.224 35.3213 93.224C34.7053 93.224 34.2293 93.348 33.8933 93.596C33.5573 93.844 33.3893 94.192 33.3893 94.64C33.3893 94.8 33.4133 94.94 33.4613 95.06C33.5093 95.18 33.5893 95.288 33.7013 95.384C33.8213 95.472 33.9333 95.548 34.0373 95.612C34.1413 95.676 34.3053 95.74 34.5293 95.804C34.7533 95.868 34.9333 95.916 35.0693 95.948C35.2053 95.972 35.4173 96.016 35.7053 96.08C36.0573 96.152 36.3493 96.22 36.5813 96.284C36.8133 96.34 37.0893 96.436 37.4093 96.572C37.7293 96.708 37.9813 96.86 38.1653 97.028C38.3573 97.188 38.5213 97.404 38.6573 97.676C38.8013 97.948 38.8733 98.256 38.8733 98.6C38.8733 99.2 38.7053 99.704 38.3693 100.112C38.0333 100.512 37.6253 100.792 37.1453 100.952C36.6653 101.112 36.1333 101.192 35.5493 101.192C34.4773 101.192 33.6173 100.94 32.9693 100.436C32.3293 99.924 32.0093 99.172 32.0093 98.18H33.1013C33.1253 98.908 33.3693 99.44 33.8333 99.776C34.2973 100.104 34.9013 100.268 35.6453 100.268C36.2293 100.268 36.7293 100.148 37.1453 99.908C37.5613 99.66 37.7693 99.26 37.7693 98.708C37.7693 98.452 37.7133 98.236 37.6013 98.06C37.4893 97.876 37.3133 97.728 37.0733 97.616C36.8333 97.496 36.5933 97.4 36.3533 97.328C36.1133 97.256 35.7973 97.176 35.4053 97.088C35.3493 97.08 35.3093 97.072 35.2853 97.064C34.4053 96.864 33.8293 96.704 33.5573 96.584C32.7253 96.224 32.3093 95.604 32.3093 94.724C32.3093 93.908 32.6093 93.3 33.2093 92.9C33.8173 92.492 34.5493 92.288 35.4053 92.288C36.3413 92.288 37.0893 92.512 37.6493 92.96C38.2093 93.408 38.5053 94.076 38.5373 94.964ZM46.0785 94.964H44.9865C44.8665 93.804 44.1585 93.224 42.8625 93.224C42.2465 93.224 41.7705 93.348 41.4345 93.596C41.0985 93.844 40.9305 94.192 40.9305 94.64C40.9305 94.8 40.9545 94.94 41.0025 95.06C41.0505 95.18 41.1305 95.288 41.2425 95.384C41.3625 95.472 41.4745 95.548 41.5785 95.612C41.6825 95.676 41.8465 95.74 42.0705 95.804C42.2945 95.868 42.4745 95.916 42.6105 95.948C42.7465 95.972 42.9585 96.016 43.2465 96.08C43.5985 96.152 43.8905 96.22 44.1225 96.284C44.3545 96.34 44.6305 96.436 44.9505 96.572C45.2705 96.708 45.5225 96.86 45.7065 97.028C45.8985 97.188 46.0625 97.404 46.1985 97.676C46.3425 97.948 46.4145 98.256 46.4145 98.6C46.4145 99.2 46.2465 99.704 45.9105 100.112C45.5745 100.512 45.1665 100.792 44.6865 100.952C44.2065 101.112 43.6745 101.192 43.0905 101.192C42.0185 101.192 41.1585 100.94 40.5105 100.436C39.8705 99.924 39.5505 99.172 39.5505 98.18H40.6425C40.6665 98.908 40.9105 99.44 41.3745 99.776C41.8385 100.104 42.4425 100.268 43.1865 100.268C43.7705 100.268 44.2705 100.148 44.6865 99.908C45.1025 99.66 45.3105 99.26 45.3105 98.708C45.3105 98.452 45.2545 98.236 45.1425 98.06C45.0305 97.876 44.8545 97.728 44.6145 97.616C44.3745 97.496 44.1345 97.4 43.8945 97.328C43.6545 97.256 43.3385 97.176 42.9465 97.088C42.8905 97.08 42.8505 97.072 42.8265 97.064C41.9465 96.864 41.3705 96.704 41.0985 96.584C40.2665 96.224 39.8505 95.604 39.8505 94.724C39.8505 93.908 40.1505 93.3 40.7505 92.9C41.3585 92.492 42.0905 92.288 42.9465 92.288C43.8825 92.288 44.6305 92.512 45.1905 92.96C45.7505 93.408 46.0465 94.076 46.0785 94.964ZM53.4878 92.456V93.44H48.6998V96.116H53.1758V97.064H48.6998V100.016H53.5478V101H47.5718V92.456H53.4878ZM54.6797 92.456H56.2397L58.9877 99.692L61.6397 92.456H63.2117V101H62.1437V93.872L59.4677 101H58.4837L55.7597 93.872V101H54.6797V92.456ZM64.8808 92.456H68.5288C69.3128 92.456 69.9608 92.628 70.4728 92.972C70.9928 93.316 71.2528 93.856 71.2528 94.592C71.2528 95.016 71.1368 95.396 70.9048 95.732C70.6808 96.06 70.3768 96.292 69.9928 96.428C70.5208 96.548 70.9248 96.796 71.2048 97.172C71.4928 97.548 71.6368 98.02 71.6368 98.588C71.6368 100.196 70.5568 101 68.3968 101H64.8808V92.456ZM65.9848 93.416V96.116H68.0128C68.2448 96.116 68.4408 96.112 68.6008 96.104C68.7688 96.088 68.9568 96.056 69.1648 96.008C69.3728 95.96 69.5368 95.892 69.6568 95.804C69.7848 95.708 69.8928 95.572 69.9808 95.396C70.0768 95.22 70.1248 95.008 70.1248 94.76C70.1248 94.512 70.0848 94.304 70.0048 94.136C69.9248 93.96 69.8288 93.828 69.7168 93.74C69.6048 93.644 69.4488 93.572 69.2488 93.524C69.0568 93.476 68.8808 93.448 68.7208 93.44C68.5688 93.424 68.3688 93.416 68.1208 93.416H65.9848ZM65.9848 97.004V100.052H68.2408C68.5208 100.052 68.7488 100.048 68.9248 100.04C69.1008 100.024 69.2968 99.988 69.5128 99.932C69.7368 99.876 69.9128 99.796 70.0408 99.692C70.1688 99.58 70.2768 99.424 70.3648 99.224C70.4528 99.016 70.4968 98.768 70.4968 98.48C70.4968 98.24 70.4648 98.032 70.4008 97.856C70.3448 97.68 70.2448 97.54 70.1008 97.436C69.9648 97.332 69.8328 97.248 69.7048 97.184C69.5848 97.12 69.4088 97.076 69.1768 97.052C68.9448 97.028 68.7648 97.016 68.6368 97.016C68.5088 97.008 68.3128 97.004 68.0488 97.004H65.9848ZM78.5317 100.016V101H72.8677V92.456H73.9957V100.016H78.5317ZM84.7757 92.456L81.4757 97.508V101H80.3597V97.508L77.0357 92.456H78.3917L80.9477 96.524L83.4797 92.456H84.7757Z" fill="white" fill-opacity="0.4"/>
<g clip-path="url(#clip1_250_35)">
<rect x="24" y="109" width="272" height="35" rx="8" fill="url(#paint2_linear_250_35)" fill-opacity="0.1"/>
<path d="M24 117C24 112.582 27.5817 109 32 109H288C292.418 109 296 112.582 296 117V136C296 140.418 292.418 144 288 144H32C27.5817 144 24 140.418 24 136V117Z" fill="url(#paint3_linear_250_35)" fill-opacity="0.3"/>
<rect x="30" y="118.5" width="16" height="16" rx="8" fill="white" fill-opacity="0.4"/>
<path d="M34.875 126.812L37.375 129.312L41.125 123.688" stroke="#242424" stroke-width="1.5" stroke-linecap="round" stroke-linejoin="round"/>
<path d="M57.728 120.672V132H56.24V123.792H53.392V122.768C54.3093 122.768 55.0347 122.619 55.568 122.32C56.112 122.021 56.4747 121.472 56.656 120.672H57.728ZM65.0026 120.656C65.6853 120.656 66.2666 120.784 66.7466 121.04C67.2373 121.285 67.6106 121.589 67.8666 121.952C68.1226 122.315 68.3253 122.789 68.4746 123.376C68.624 123.952 68.7146 124.475 68.7466 124.944C68.7786 125.403 68.7946 125.957 68.7946 126.608C68.7946 127.205 68.768 127.744 68.7146 128.224C68.672 128.704 68.5706 129.205 68.4106 129.728C68.2613 130.251 68.0533 130.688 67.7866 131.04C67.52 131.381 67.1573 131.664 66.6986 131.888C66.24 132.112 65.696 132.224 65.0666 132.224C64.4053 132.224 63.8293 132.112 63.3386 131.888C62.8586 131.653 62.4853 131.365 62.2186 131.024C61.952 130.683 61.7386 130.251 61.5786 129.728C61.4293 129.195 61.3333 128.693 61.2906 128.224C61.248 127.744 61.2266 127.195 61.2266 126.576C61.2266 126.043 61.2373 125.579 61.2586 125.184C61.2906 124.789 61.344 124.347 61.4186 123.856C61.504 123.355 61.632 122.933 61.8026 122.592C61.9733 122.24 62.192 121.909 62.4586 121.6C62.7253 121.291 63.072 121.056 63.4986 120.896C63.936 120.736 64.4373 120.656 65.0026 120.656ZM65.8826 122.064C65.6266 121.936 65.3333 121.872 65.0026 121.872C64.672 121.872 64.3786 121.936 64.1226 122.064C63.8666 122.181 63.6586 122.32 63.4986 122.48C63.3386 122.64 63.2 122.88 63.0826 123.2C62.9653 123.509 62.88 123.771 62.8266 123.984C62.784 124.197 62.7466 124.507 62.7146 124.912C62.6826 125.307 62.6666 125.589 62.6666 125.76C62.6666 125.92 62.6666 126.192 62.6666 126.576C62.6666 126.949 62.672 127.259 62.6826 127.504C62.6933 127.749 62.72 128.069 62.7626 128.464C62.8053 128.859 62.88 129.189 62.9866 129.456C63.0933 129.712 63.2266 129.973 63.3866 130.24C63.5466 130.496 63.7653 130.693 64.0426 130.832C64.3306 130.96 64.6613 131.024 65.0346 131.024C65.3546 131.024 65.6373 130.965 65.8826 130.848C66.1386 130.731 66.3466 130.592 66.5066 130.432C66.6666 130.272 66.8 130.048 66.9066 129.76C67.024 129.461 67.1093 129.205 67.1626 128.992C67.216 128.768 67.2533 128.475 67.2746 128.112C67.3066 127.739 67.3226 127.467 67.3226 127.296C67.3333 127.115 67.3386 126.853 67.3386 126.512C67.3386 126.139 67.3386 125.872 67.3386 125.712C67.3386 125.552 67.3226 125.275 67.2906 124.88C67.2586 124.485 67.216 124.181 67.1626 123.968C67.12 123.755 67.04 123.493 66.9226 123.184C66.8053 122.875 66.6666 122.64 66.5066 122.48C66.3466 122.32 66.1386 122.181 65.8826 122.064ZM73.5733 120.656C74.2559 120.656 74.8373 120.784 75.3173 121.04C75.8079 121.285 76.1813 121.589 76.4373 121.952C76.6933 122.315 76.8959 122.789 77.0453 123.376C77.1946 123.952 77.2853 124.475 77.3173 124.944C77.3493 125.403 77.3653 125.957 77.3653 126.608C77.3653 127.205 77.3386 127.744 77.2853 128.224C77.2426 128.704 77.1413 129.205 76.9813 129.728C76.8319 130.251 76.6239 130.688 76.3573 131.04C76.0906 131.381 75.7279 131.664 75.2693 131.888C74.8106 132.112 74.2666 132.224 73.6373 132.224C72.9759 132.224 72.3999 132.112 71.9093 131.888C71.4293 131.653 71.0559 131.365 70.7893 131.024C70.5226 130.683 70.3093 130.251 70.1493 129.728C69.9999 129.195 69.9039 128.693 69.8613 128.224C69.8186 127.744 69.7973 127.195 69.7973 126.576C69.7973 126.043 69.8079 125.579 69.8293 125.184C69.8613 124.789 69.9146 124.347 69.9893 123.856C70.0746 123.355 70.2026 122.933 70.3733 122.592C70.5439 122.24 70.7626 121.909 71.0293 121.6C71.2959 121.291 71.6426 121.056 72.0693 120.896C72.5066 120.736 73.0079 120.656 73.5733 120.656ZM74.4533 122.064C74.1973 121.936 73.9039 121.872 73.5733 121.872C73.2426 121.872 72.9493 121.936 72.6933 122.064C72.4373 122.181 72.2293 122.32 72.0693 122.48C71.9093 122.64 71.7706 122.88 71.6533 123.2C71.5359 123.509 71.4506 123.771 71.3973 123.984C71.3546 124.197 71.3173 124.507 71.2853 124.912C71.2533 125.307 71.2373 125.589 71.2373 125.76C71.2373 125.92 71.2373 126.192 71.2373 126.576C71.2373 126.949 71.2426 127.259 71.2533 127.504C71.2639 127.749 71.2906 128.069 71.3333 128.464C71.3759 128.859 71.4506 129.189 71.5573 129.456C71.6639 129.712 71.7973 129.973 71.9573 130.24C72.1173 130.496 72.3359 130.693 72.6133 130.832C72.9013 130.96 73.2319 131.024 73.6053 131.024C73.9253 131.024 74.2079 130.965 74.4533 130.848C74.7093 130.731 74.9173 130.592 75.0773 130.432C75.2373 130.272 75.3706 130.048 75.4773 129.76C75.5946 129.461 75.6799 129.205 75.7333 128.992C75.7866 128.768 75.8239 128.475 75.8453 128.112C75.8773 127.739 75.8933 127.467 75.8933 127.296C75.9039 127.115 75.9093 126.853 75.9093 126.512C75.9093 126.139 75.9093 125.872 75.9093 125.712C75.9093 125.552 75.8933 125.275 75.8613 124.88C75.8293 124.485 75.7866 124.181 75.7333 123.968C75.6906 123.755 75.6106 123.493 75.4933 123.184C75.3759 122.875 75.2373 122.64 75.0773 122.48C74.9173 122.32 74.7093 122.181 74.4533 122.064ZM89.3439 120.304L82.9599 132.544H81.8719L88.2879 120.304H89.3439ZM81.8399 120.624C82.6505 120.624 83.2692 120.885 83.6959 121.408C84.1332 121.931 84.3519 122.688 84.3519 123.68C84.3519 124.768 84.1332 125.6 83.6959 126.176C83.2585 126.752 82.6185 127.04 81.7759 127.04C80.0585 127.04 79.1999 125.963 79.1999 123.808C79.1999 122.795 79.4292 122.011 79.8879 121.456C80.3465 120.901 80.9972 120.624 81.8399 120.624ZM83.1519 123.744C83.1519 122.283 82.6932 121.552 81.7759 121.552C80.8585 121.552 80.3999 122.331 80.3999 123.888C80.3999 125.381 80.8585 126.128 81.7759 126.128C82.6932 126.128 83.1519 125.333 83.1519 123.744ZM89.8079 125.824C90.6185 125.824 91.2372 126.085 91.6639 126.608C92.1012 127.131 92.3199 127.888 92.3199 128.88C92.3199 129.968 92.1012 130.8 91.6639 131.376C91.2265 131.952 90.5865 132.24 89.7439 132.24C88.0265 132.24 87.1679 131.163 87.1679 129.008C87.1679 127.995 87.3972 127.211 87.8559 126.656C88.3145 126.101 88.9652 125.824 89.8079 125.824ZM91.1199 128.944C91.1199 127.483 90.6612 126.752 89.7439 126.752C88.8265 126.752 88.3679 127.531 88.3679 129.088C88.3679 130.581 88.8265 131.328 89.7439 131.328C90.6612 131.328 91.1199 130.533 91.1199 128.944Z" fill="white" fill-opacity="0.7"/>
</g>
<rect x="23" y="108" width="274" height="37" rx="9" stroke="white" stroke-opacity="0.1" stroke-width="2"/>
</g>
<path d="M30.996 163.964H29.904C29.784 162.804 29.076 162.224 27.78 162.224C27.164 162.224 26.688 162.348 26.352 162.596C26.016 162.844 25.848 163.192 25.848 163.64C25.848 163.8 25.872 163.94 25.92 164.06C25.968 164.18 26.048 164.288 26.16 164.384C26.28 164.472 26.392 164.548 26.496 164.612C26.6 164.676 26.764 164.74 26.988 164.804C27.212 164.868 27.392 164.916 27.528 164.948C27.664 164.972 27.876 165.016 28.164 165.08C28.516 165.152 28.808 165.22 29.04 165.284C29.272 165.34 29.548 165.436 29.868 165.572C30.188 165.708 30.44 165.86 30.624 166.028C30.816 166.188 30.98 166.404 31.116 166.676C31.26 166.948 31.332 167.256 31.332 167.6C31.332 168.2 31.164 168.704 30.828 169.112C30.492 169.512 30.084 169.792 29.604 169.952C29.124 170.112 28.592 170.192 28.008 170.192C26.936 170.192 26.076 169.94 25.428 169.436C24.788 168.924 24.468 168.172 24.468 167.18H25.56C25.584 167.908 25.828 168.44 26.292 168.776C26.756 169.104 27.36 169.268 28.104 169.268C28.688 169.268 29.188 169.148 29.604 168.908C30.02 168.66 30.228 168.26 30.228 167.708C30.228 167.452 30.172 167.236 30.06 167.06C29.948 166.876 29.772 166.728 29.532 166.616C29.292 166.496 29.052 166.4 28.812 166.328C28.572 166.256 28.256 166.176 27.864 166.088C27.808 166.08 27.768 166.072 27.744 166.064C26.864 165.864 26.288 165.704 26.016 165.584C25.184 165.224 24.768 164.604 24.768 163.724C24.768 162.908 25.068 162.3 25.668 161.9C26.276 161.492 27.008 161.288 27.864 161.288C28.8 161.288 29.548 161.512 30.108 161.96C30.668 162.408 30.964 163.076 30.996 163.964ZM36.0893 161.252C37.3853 161.252 38.3933 161.66 39.1133 162.476C39.8333 163.284 40.1933 164.344 40.1933 165.656C40.1933 166.976 39.8373 168.064 39.1253 168.92C38.4133 169.776 37.4053 170.204 36.1013 170.204C35.4373 170.204 34.8413 170.084 34.3133 169.844C33.7853 169.604 33.3533 169.272 33.0173 168.848C32.6893 168.424 32.4373 167.94 32.2613 167.396C32.0933 166.852 32.0093 166.264 32.0093 165.632C32.0093 164.296 32.3773 163.232 33.1133 162.44C33.8573 161.648 34.8493 161.252 36.0893 161.252ZM36.0893 162.236C35.1373 162.236 34.4053 162.572 33.8933 163.244C33.3893 163.908 33.1373 164.732 33.1373 165.716C33.1373 166.788 33.4053 167.644 33.9413 168.284C34.4853 168.916 35.2093 169.232 36.1133 169.232C37.0093 169.232 37.7253 168.912 38.2613 168.272C38.7973 167.632 39.0653 166.78 39.0653 165.716C39.0653 164.66 38.7933 163.816 38.2493 163.184C37.7133 162.552 36.9933 162.236 36.0893 162.236ZM41.3064 161.456H42.4464V166.844C42.4464 167.676 42.6264 168.284 42.9864 168.668C43.3464 169.052 43.9344 169.244 44.7504 169.244C45.5904 169.244 46.1824 169.048 46.5264 168.656C46.8784 168.264 47.0544 167.66 47.0544 166.844V161.456H48.1944V166.544C48.1944 167.792 47.9344 168.712 47.4144 169.304C46.8944 169.888 46.0064 170.18 44.7504 170.18C43.5344 170.18 42.6544 169.896 42.1104 169.328C41.5744 168.752 41.3064 167.864 41.3064 166.664V161.456ZM49.7386 161.456H50.9746L55.4866 168.392V161.456H56.5786V170H55.3066L50.8186 163.148V170H49.7386V161.456ZM58.2068 161.456H60.9908C62.4388 161.456 63.5068 161.792 64.1948 162.464C64.8828 163.136 65.2268 164.2 65.2268 165.656C65.2268 167.088 64.9068 168.172 64.2668 168.908C63.6268 169.636 62.6028 170 61.1948 170H58.2068V161.456ZM59.3348 162.428V169.028H61.0508C62.1228 169.028 62.8988 168.768 63.3788 168.248C63.8668 167.72 64.1108 166.9 64.1108 165.788C64.1108 164.62 63.8748 163.768 63.4028 163.232C62.9308 162.696 62.1308 162.428 61.0028 162.428H59.3348Z" fill="white" fill-opacity="0.4"/>
<rect x="24" y="178" width="272" height="35" rx="8" fill="url(#paint4_linear_250_35)" fill-opacity="0.1"/>
<rect x="23" y="177" width="274" height="37" rx="9" stroke="white" stroke-opacity="0.1" stroke-width="2"/>
<path d="M24 186C24 181.582 27.5817 178 32 178H158C162.418 178 166 181.582 166 186V205C166 209.418 162.418 213 158 213H32C27.5817 213 24 209.418 24 205V186Z" fill="url(#paint5_linear_250_35)" fill-opacity="0.3"/>
<path d="M126.736 193.336C126.768 192.163 127.093 191.256 127.712 190.616C128.341 189.976 129.216 189.656 130.336 189.656C131.339 189.656 132.144 189.928 132.752 190.472C133.36 191.016 133.664 191.731 133.664 192.616C133.664 193.149 133.525 193.629 133.248 194.056C132.981 194.472 132.603 194.781 132.112 194.984C132.752 195.133 133.259 195.453 133.632 195.944C134.005 196.435 134.192 197.027 134.192 197.72C134.203 198.765 133.84 199.613 133.104 200.264C132.379 200.904 131.435 201.224 130.272 201.224C129.12 201.224 128.197 200.909 127.504 200.28C126.821 199.64 126.48 198.781 126.48 197.704V197.496H127.824C127.856 198.307 128.085 198.931 128.512 199.368C128.939 199.805 129.531 200.024 130.288 200.024C131.013 200.024 131.6 199.821 132.048 199.416C132.507 199 132.736 198.467 132.736 197.816C132.736 197.155 132.507 196.627 132.048 196.232C131.6 195.837 130.992 195.64 130.224 195.64C130.032 195.64 129.787 195.661 129.488 195.704V194.552C129.637 194.563 129.792 194.568 129.952 194.568C130.656 194.568 131.211 194.403 131.616 194.072C132.032 193.731 132.24 193.272 132.24 192.696C132.24 192.141 132.059 191.693 131.696 191.352C131.344 191.011 130.869 190.84 130.272 190.84C129.589 190.84 129.056 191.059 128.672 191.496C128.288 191.923 128.085 192.536 128.064 193.336H126.736ZM142.107 189.864V191.064H137.515L136.843 194.44C137.397 193.843 138.16 193.544 139.131 193.544C140.197 193.544 141.061 193.891 141.723 194.584C142.384 195.267 142.715 196.157 142.715 197.256C142.715 198.408 142.352 199.357 141.627 200.104C140.901 200.851 139.957 201.224 138.795 201.224C137.717 201.224 136.843 200.925 136.171 200.328C135.509 199.731 135.163 198.936 135.131 197.944H136.507C136.56 198.573 136.8 199.085 137.227 199.48C137.653 199.875 138.181 200.072 138.811 200.072C139.515 200.072 140.101 199.816 140.571 199.304C141.04 198.792 141.275 198.157 141.275 197.4C141.275 196.611 141.045 195.971 140.587 195.48C140.128 194.979 139.531 194.728 138.795 194.728C137.856 194.728 137.131 195.096 136.619 195.832L135.451 195.752L136.507 189.864H142.107ZM154.773 189.304L148.389 201.544H147.301L153.717 189.304H154.773ZM147.269 189.624C148.08 189.624 148.699 189.885 149.125 190.408C149.563 190.931 149.781 191.688 149.781 192.68C149.781 193.768 149.563 194.6 149.125 195.176C148.688 195.752 148.048 196.04 147.205 196.04C145.488 196.04 144.629 194.963 144.629 192.808C144.629 191.795 144.859 191.011 145.317 190.456C145.776 189.901 146.427 189.624 147.269 189.624ZM148.581 192.744C148.581 191.283 148.123 190.552 147.205 190.552C146.288 190.552 145.829 191.331 145.829 192.888C145.829 194.381 146.288 195.128 147.205 195.128C148.123 195.128 148.581 194.333 148.581 192.744ZM155.237 194.824C156.048 194.824 156.667 195.085 157.093 195.608C157.531 196.131 157.749 196.888 157.749 197.88C157.749 198.968 157.531 199.8 157.093 200.376C156.656 200.952 156.016 201.24 155.173 201.24C153.456 201.24 152.597 200.163 152.597 198.008C152.597 196.995 152.827 196.211 153.285 195.656C153.744 195.101 154.395 194.824 155.237 194.824ZM156.549 197.944C156.549 196.483 156.091 195.752 155.173 195.752C154.256 195.752 153.797 196.531 153.797 198.088C153.797 199.581 154.256 200.328 155.173 200.328C156.091 200.328 156.549 199.533 156.549 197.944Z" fill="white" fill-opacity="0.7"/>
<g filter="url(#filter0_b_250_35)">
<rect x="201" y="151" width="40" height="40" rx="12" fill="white" fill-opacity="0.1"/>
<rect x="202" y="152" width="38" height="38" rx="11" stroke="white" stroke-opacity="0.1" stroke-width="2"/>
<path d="M221 163.5V178.5M228.5 171H213.5" stroke="white" stroke-width="1.5" stroke-linecap="round" stroke-linejoin="round"/>
</g>
</g>
<rect x="1" y="1" width="248" height="198" rx="15" stroke="white" stroke-opacity="0.1" stroke-width="2"/>
<defs>
<filter id="filter0_b_250_35" x="188" y="138" width="66" height="66" filterUnits="userSpaceOnUse" color-interpolation-filters="sRGB">
<feFlood flood-opacity="0" result="BackgroundImageFix"/>
<feGaussianBlur in="BackgroundImageFix" stdDeviation="6.5"/>
<feComposite in2="SourceAlpha" operator="in" result="effect1_backgroundBlur_250_35"/>
<feBlend mode="normal" in="SourceGraphic" in2="effect1_backgroundBlur_250_35" result="shape"/>
</filter>
<linearGradient id="paint0_linear_250_35" x1="24" y1="40" x2="142.74" y2="193.531" gradientUnits="userSpaceOnUse">
<stop stop-color="white"/>
<stop offset="1" stop-color="white" stop-opacity="0.3"/>
</linearGradient>
<linearGradient id="paint1_linear_250_35" x1="214" y1="75" x2="91.9511" y2="-35.2341" gradientUnits="userSpaceOnUse">
<stop stop-color="white"/>
<stop offset="1" stop-color="white" stop-opacity="0.3"/>
</linearGradient>
<linearGradient id="paint2_linear_250_35" x1="24" y1="109" x2="142.74" y2="262.531" gradientUnits="userSpaceOnUse">
<stop stop-color="white"/>
<stop offset="1" stop-color="white" stop-opacity="0.3"/>
</linearGradient>
<linearGradient id="paint3_linear_250_35" x1="296" y1="144" x2="177.26" y2="-9.53071" gradientUnits="userSpaceOnUse">
<stop stop-color="white"/>
<stop offset="1" stop-color="white" stop-opacity="0.3"/>
</linearGradient>
<linearGradient id="paint4_linear_250_35" x1="24" y1="178" x2="142.74" y2="331.531" gradientUnits="userSpaceOnUse">
<stop stop-color="white"/>
<stop offset="1" stop-color="white" stop-opacity="0.3"/>
</linearGradient>
<linearGradient id="paint5_linear_250_35" x1="166" y1="213" x2="52.2189" y2="136.195" gradientUnits="userSpaceOnUse">
<stop stop-color="white"/>
<stop offset="1" stop-color="white" stop-opacity="0.3"/>
</linearGradient>
<clipPath id="clip0_250_35">
<rect width="250" height="200" rx="16" fill="white"/>
</clipPath>
<clipPath id="clip1_250_35">
<rect x="24" y="109" width="272" height="35" rx="8" fill="white"/>
</clipPath>
</defs>
</svg>
