<svg width="438" height="437" viewBox="0 0 438 437" fill="none" xmlns="http://www.w3.org/2000/svg">
<g filter="url(#filter0_f_117_103)">
<rect x="123.5" y="122.833" width="191" height="191" rx="8" fill="url(#paint0_linear_117_103)" fill-opacity="0.9">
    <animateTransform attributeType="XML" attributeName="transform" type="rotate"
        from="0 219 218.333" to="360 219 218.333" dur="5s" repeatCount="indefinite"/>
    <animate attributeName="opacity" values="0.7; 0.9; 0.7" dur="3s" repeatCount="indefinite"/>
</rect>
</g>
<g filter="url(#filter1_b_117_103)">
<rect x="123.5" y="122.833" width="191" height="191" rx="8" fill="url(#paint1_linear_117_103)" fill-opacity="0.9"/>
<rect x="122.5" y="121.833" width="193" height="193" rx="9" stroke="url(#paint2_linear_117_103)" stroke-opacity="0.2" stroke-width="2"/>
<path fill-rule="evenodd" clip-rule="evenodd" d="M176.134 170.964C176.134 171.037 181.728 180.864 188.565 192.804L200.996 214.513L200.618 215.306C200.41 215.742 199.089 218.499 197.682 221.432C196.275 224.365 194.588 227.88 193.934 229.245C193.279 230.609 192.153 232.953 191.43 234.453C190.706 235.954 189.635 238.186 189.048 239.414C187.504 242.644 183.706 250.553 181.902 254.296C178.328 261.71 176.636 265.335 176.636 265.577C176.636 265.751 182.055 265.812 193.597 265.769L210.558 265.705L213.601 260.373C215.275 257.44 217.281 253.853 218.059 252.401C218.838 250.95 219.69 249.411 219.954 248.982L220.434 248.201L225.403 257.017L230.373 265.833L246.056 265.769L261.739 265.705L261.803 218.269L261.866 170.833H245.446H229.026L229.026 186.645L229.026 202.457L224.509 194.768C222.024 190.539 217.879 183.427 215.297 178.964L210.602 170.849L193.368 170.841C183.89 170.836 176.134 170.892 176.134 170.964ZM187.118 177.84C187.391 178.283 191.927 186.18 197.197 195.388C202.468 204.596 210.341 218.269 214.692 225.772C219.044 233.275 225.152 243.934 228.266 249.459L233.927 259.504L243.635 259.569C248.974 259.605 253.342 259.577 253.342 259.507C253.342 259.437 249.151 251.762 244.03 242.452C238.908 233.142 232.576 221.618 229.959 216.843C227.342 212.068 223.261 204.869 220.89 200.845C218.519 196.821 214.794 190.459 212.613 186.707C210.431 182.956 208.26 179.244 207.789 178.46L206.931 177.034H196.776H186.622L187.118 177.84Z" fill="white" fill-opacity="0.15" stroke="white" stroke-opacity="0.8" stroke-linecap="square"/>
<path d="M176 122.833V313.833" stroke="url(#paint3_linear_117_103)" stroke-opacity="0.4" stroke-dasharray="2 2"/>
<path d="M262 122.833V313.833" stroke="url(#paint4_linear_117_103)" stroke-opacity="0.4" stroke-dasharray="2 2"/>
<path d="M314.5 170.333L123.5 170.333" stroke="url(#paint5_linear_117_103)" stroke-opacity="0.4" stroke-dasharray="2 2"/>
<path d="M314.5 266.333L123.5 266.333" stroke="url(#paint6_linear_117_103)" stroke-opacity="0.4" stroke-dasharray="2 2"/>
</g>
<defs>
<filter id="filter0_f_117_103" x="0.800003" y="0.133011" width="436.4" height="436.4" filterUnits="userSpaceOnUse" color-interpolation-filters="sRGB">
<feFlood flood-opacity="0" result="BackgroundImageFix"/>
<feBlend mode="normal" in="SourceGraphic" in2="BackgroundImageFix" result="shape"/>
<feGaussianBlur stdDeviation="61.35" result="effect1_foregroundBlur_117_103"/>
</filter>
<filter id="filter1_b_117_103" x="85.5" y="84.833" width="267" height="267" filterUnits="userSpaceOnUse" color-interpolation-filters="sRGB">
<feFlood flood-opacity="0" result="BackgroundImageFix"/>
<feGaussianBlur in="BackgroundImageFix" stdDeviation="18"/>
<feComposite in2="SourceAlpha" operator="in" result="effect1_backgroundBlur_117_103"/>
<feBlend mode="normal" in="SourceGraphic" in2="effect1_backgroundBlur_117_103" result="shape"/>
</filter>
<linearGradient id="paint0_linear_117_103" x1="123.5" y1="122.833" x2="353.261" y2="203.688" gradientUnits="userSpaceOnUse">
<stop stop-color="#3E46DE"/>
<stop offset="1" stop-color="#EE54E4"/>
</linearGradient>
<linearGradient id="paint1_linear_117_103" x1="314.5" y1="313.833" x2="97.7225" y2="277.766" gradientUnits="userSpaceOnUse">
<stop stop-color="#0A0A0A"/>
<stop offset="1" stop-color="#0A0A0A" stop-opacity="0.3"/>
</linearGradient>
<linearGradient id="paint2_linear_117_103" x1="123.5" y1="122.833" x2="340.277" y2="158.9" gradientUnits="userSpaceOnUse">
<stop stop-color="white"/>
<stop offset="1" stop-color="white" stop-opacity="0.2"/>
</linearGradient>
<linearGradient id="paint3_linear_117_103" x1="176.001" y1="315.333" x2="176" y2="122.333" gradientUnits="userSpaceOnUse">
<stop offset="0.115" stop-color="white" stop-opacity="0"/>
<stop offset="0.5" stop-color="white"/>
<stop offset="0.885" stop-color="white" stop-opacity="0"/>
</linearGradient>
<linearGradient id="paint4_linear_117_103" x1="262.001" y1="315.333" x2="262" y2="122.333" gradientUnits="userSpaceOnUse">
<stop offset="0.115" stop-color="white" stop-opacity="0"/>
<stop offset="0.5" stop-color="white"/>
<stop offset="0.885" stop-color="white" stop-opacity="0"/>
</linearGradient>
<linearGradient id="paint5_linear_117_103" x1="122" y1="170.334" x2="315" y2="170.333" gradientUnits="userSpaceOnUse">
<stop offset="0.115" stop-color="white" stop-opacity="0"/>
<stop offset="0.5" stop-color="white"/>
<stop offset="0.885" stop-color="white" stop-opacity="0"/>
</linearGradient>
<linearGradient id="paint6_linear_117_103" x1="122" y1="266.334" x2="315" y2="266.333" gradientUnits="userSpaceOnUse">
<stop offset="0.115" stop-color="white" stop-opacity="0"/>
<stop offset="0.5" stop-color="white"/>
<stop offset="0.885" stop-color="white" stop-opacity="0"/>
</linearGradient>
</defs>
</svg>
