<svg width="438" height="437" viewBox="-100 -100 638 637" fill="none" xmlns="http://www.w3.org/2000/svg" >
<g filter="url(#filter0_f_117_103)" overflow="visible">
<rect x="123.5" y="122.833" width="160" height="160" rx="8" fill="url(#paint0_linear_117_103)" fill-opacity="0.9">
    <animateTransform attributeType="XML" attributeName="transform" type="rotate"
        from="0 219 218.333" to="360 219 218.333" dur="5s" repeatCount="indefinite"/>
    <animate attributeName="opacity" values="0.7; 0.9; 0.7" dur="3s" repeatCount="indefinite"/>
</rect>
</g>
<g filter="url(#filter1_b_117_103)" > 
<rect x="123.5" y="122.833" width="191" height="191" rx="8" fill="url(#paint1_linear_117_103)" fill-opacity="0.9"/>
<rect x="122.5" y="121.833" width="193" height="193" rx="9" stroke="url(#paint2_linear_117_103)" stroke-opacity="0.2" stroke-width="2"/>


<path d="M180.385 214.969V176H257V214.969H235.055L215.035 262H203.485L228.51 202.875H245.835V188.094H191.935V202.875H215.805L191.55 262H180L191.165 236.917L200.405 214.969H180.385Z" fill="white" fill-opacity="0.3"/>
<path d="M191.935 203.375H215.059L191.215 261.5H180.77L191.622 237.12L191.622 237.12L191.626 237.111L200.866 215.163L201.158 214.469H200.405H180.885V176.5H256.5V214.469H235.055H234.724L234.595 214.773L214.704 261.5H204.24L228.841 203.375H245.835H246.335V202.875V188.094V187.594H245.835H191.935H191.435V188.094V202.875V203.375H191.935Z" stroke="white" stroke-opacity="0.72"/>
<path d="M176 122.833V313.833" stroke="url(#paint3_linear_117_103)" stroke-opacity="0.4" stroke-dasharray="2 2"/>
<path d="M262 122.833V313.833" stroke="url(#paint4_linear_117_103)" stroke-opacity="0.4" stroke-dasharray="2 2"/>
<path d="M314.5 170.333L123.5 170.333" stroke="url(#paint5_linear_117_103)" stroke-opacity="0.4" stroke-dasharray="2 2"/>
<path d="M314.5 266.333L123.5 266.333" stroke="url(#paint6_linear_117_103)" stroke-opacity="0.4" stroke-dasharray="2 2"/>
</g>
<defs>
<filter id="filter0_f_117_103" x="-500" y="-500" width="4306.4" height="4360.4" filterUnits="userSpaceOnUse" color-interpolation-filters="sRGB">
<feFlood flood-opacity="0" result="BackgroundImageFix"/>
<feBlend mode="normal" in="SourceGraphic" in2="BackgroundImageFix" result="shape"/>
<feGaussianBlur stdDeviation="61.35" result="effect1_foregroundBlur_117_103"/>
</filter>
<filter id="filter1_b_117_103" x="85.5" y="84.833" width="267" height="267" filterUnits="userSpaceOnUse" color-interpolation-filters="sRGB">
<feFlood flood-opacity="0" result="BackgroundImageFix"/>
<feGaussianBlur in="BackgroundImageFix" stdDeviation="18"/>
<feComposite in2="SourceAlpha" operator="in" result="effect1_backgroundBlur_117_103"/>
<feBlend mode="normal" in="SourceGraphic" in2="effect1_backgroundBlur_117_103" result="shape"/>
</filter>
<linearGradient id="paint0_linear_117_103" x1="123.5" y1="122.833" x2="353.261" y2="203.688" gradientUnits="userSpaceOnUse">
<stop stop-color="#FF9601"/>
<stop offset="1" stop-color="#4EF854"/>
</linearGradient>
<linearGradient id="paint1_linear_117_103" x1="314.5" y1="313.833" x2="97.7225" y2="277.766" gradientUnits="userSpaceOnUse">
<stop stop-color="#0A0A0A"/>
<stop offset="1" stop-color="#0A0A0A" stop-opacity="0.3"/>
</linearGradient>
<linearGradient id="paint2_linear_117_103" x1="123.5" y1="122.833" x2="340.277" y2="158.9" gradientUnits="userSpaceOnUse">
<stop stop-color="white"/>
<stop offset="1" stop-color="white" stop-opacity="0.2"/>
</linearGradient>
<linearGradient id="paint3_linear_117_103" x1="176.001" y1="315.333" x2="176" y2="122.333" gradientUnits="userSpaceOnUse">
<stop offset="0.115" stop-color="white" stop-opacity="0"/>
<stop offset="0.5" stop-color="white"/>
<stop offset="0.885" stop-color="white" stop-opacity="0"/>
</linearGradient>
<linearGradient id="paint4_linear_117_103" x1="262.001" y1="315.333" x2="262" y2="122.333" gradientUnits="userSpaceOnUse">
<stop offset="0.115" stop-color="white" stop-opacity="0"/>
<stop offset="0.5" stop-color="white"/>
<stop offset="0.885" stop-color="white" stop-opacity="0"/>
</linearGradient>
<linearGradient id="paint5_linear_117_103" x1="122" y1="170.334" x2="315" y2="170.333" gradientUnits="userSpaceOnUse">
<stop offset="0.115" stop-color="white" stop-opacity="0"/>
<stop offset="0.5" stop-color="white"/>
<stop offset="0.885" stop-color="white" stop-opacity="0"/>
</linearGradient>
<linearGradient id="paint6_linear_117_103" x1="122" y1="266.334" x2="315" y2="266.333" gradientUnits="userSpaceOnUse">
<stop offset="0.115" stop-color="white" stop-opacity="0"/>
<stop offset="0.5" stop-color="white"/>
<stop offset="0.885" stop-color="white" stop-opacity="0"/>
</linearGradient>
</defs>
</svg>
