<svg width="28" height="27" viewBox="0 0 28 27" fill="none" xmlns="http://www.w3.org/2000/svg">
<path d="M4.55067 0.877008C7.31733 0.517008 10.1373 0.333008 13 0.333008C15.8627 0.333008 18.6827 0.518341 21.4493 0.877008C24.012 1.21034 25.8373 3.35834 25.9893 5.84634C25.5436 5.69784 25.0816 5.60339 24.6133 5.56501C20.8775 5.25489 17.1225 5.25489 13.3867 5.56501C10.2427 5.82634 8 8.48501 8 11.477V17.1917C7.99874 18.29 8.30103 19.3674 8.87349 20.3048C9.44595 21.2422 10.2663 22.0031 11.244 22.5037L7.70667 26.0397C7.56682 26.1794 7.38871 26.2744 7.19485 26.313C7.00098 26.3515 6.80005 26.3317 6.61744 26.2561C6.43482 26.1804 6.2787 26.0524 6.16881 25.8881C6.05892 25.7238 6.00017 25.5307 6 25.333V19.9597C5.51626 19.9082 5.03312 19.8513 4.55067 19.789C1.87333 19.4397 0 17.1103 0 14.4823V6.18367C0 3.55701 1.87333 1.22501 4.55067 0.877008Z" fill="white" fill-opacity="0.4"/>
<path d="M19 7.33301C17.1653 7.33301 15.348 7.40901 13.552 7.55834C11.4987 7.72901 10 9.47034 10 11.4783V17.1917C10 19.201 11.504 20.9437 13.56 21.1117C15.2173 21.2477 16.8933 21.321 18.584 21.3317L22.2933 25.0397C22.4332 25.1794 22.6113 25.2745 22.8052 25.313C22.999 25.3515 23.1999 25.3317 23.3826 25.2561C23.5652 25.1804 23.7213 25.0524 23.8312 24.8881C23.9411 24.7238 23.9998 24.5307 24 24.333V21.1463L24.44 21.1117C26.496 20.945 28 19.201 28 17.1917V11.477C28 9.47034 26.5 7.72901 24.448 7.55701C22.6359 7.40717 20.8183 7.33243 19 7.33301Z" fill="white" fill-opacity="0.4"/>
</svg>
