<svg width="14" height="16" viewBox="0 0 14 16" fill="none" xmlns="http://www.w3.org/2000/svg">
<path fill-rule="evenodd" clip-rule="evenodd" d="M5.95036 0.0935196C5.04813 0.292022 4.25103 0.687214 3.55416 1.28151C3.34464 1.4602 3.12424 1.60637 3.06445 1.60637C2.87743 1.60637 2.46363 1.36071 2.16907 1.07488C2.01356 0.923939 1.88687 0.823042 1.88761 0.850718C1.88835 0.878394 1.98656 1.08872 2.10593 1.31819C2.68706 2.43538 4.09881 3.80858 5.54563 4.66399C5.82575 4.82964 6.08102 4.96513 6.11293 4.96513C6.14477 4.96513 6.30256 4.90535 6.46365 4.83226C6.8497 4.65707 7.35735 4.6574 7.69954 4.83307C7.84585 4.90817 8.02608 4.95452 8.09997 4.93605C8.17386 4.9175 8.51881 4.71799 8.86651 4.49255C10.3837 3.50911 11.5225 2.33872 12.1291 1.13964L12.3141 0.773668L11.9731 1.08032C11.6123 1.40471 11.2547 1.60637 11.0404 1.60637C10.9694 1.60637 10.8379 1.52751 10.7483 1.43118C10.2455 0.89015 9.23254 0.347173 8.31668 0.127577C7.66797 -0.0279331 6.57402 -0.0436521 5.95036 0.0935196ZM2.09746 3.48049C1.70026 4.41349 1.67406 4.60507 1.61951 6.98039C1.5741 8.95924 1.55294 9.24285 1.39353 10.0103C1.19362 10.9728 0.863656 11.9905 0.551896 12.6063C0.434944 12.8372 0.358902 13.0262 0.382816 13.0262C0.406797 13.0262 0.791106 12.7314 1.23695 12.3712C1.68286 12.0109 2.08027 11.6958 2.12023 11.6707C2.16403 11.6433 2.4453 12.0365 2.82887 12.6613C3.17865 13.231 3.48624 13.6898 3.51231 13.6808C3.53837 13.6717 3.8459 13.3999 4.19575 13.0765C4.54553 12.7532 4.84647 12.4888 4.86454 12.4888C4.88255 12.4888 5.28291 13.116 5.75421 13.8826C6.22551 14.6492 6.71408 15.4393 6.8399 15.6383L7.0687 16L7.38469 15.5039C7.55847 15.231 8.04744 14.4411 8.47131 13.7485C8.89512 13.0558 9.25914 12.489 9.28017 12.489C9.30126 12.4888 9.60832 12.7608 9.9626 13.0933C10.3169 13.4258 10.6219 13.6979 10.6405 13.6979C10.6589 13.6979 10.8645 13.388 11.0973 13.0094C11.33 12.6307 11.6214 12.1612 11.7448 11.9661L11.9693 11.6114L12.8364 12.3187C13.3134 12.7078 13.7182 13.0262 13.7361 13.0262C13.754 13.0262 13.6675 12.8043 13.5439 12.5331C13.2503 11.8888 12.926 10.869 12.7633 10.0781C12.5749 9.16257 12.5012 8.15441 12.5001 6.47657C12.4992 5.24391 12.4772 4.90776 12.3676 4.4507C12.2294 3.87394 11.8432 2.93194 11.7583 2.96439C11.7309 2.97487 11.5767 3.1465 11.4157 3.34574C10.8336 4.06586 10.8754 3.95838 11.0244 4.35041C11.4661 5.51274 10.7864 6.57848 9.49426 6.74944L9.14206 6.79606L9.18317 7.17372C9.20796 7.40124 9.26788 7.58631 9.33391 7.63931C9.39417 7.68768 9.7684 7.91305 10.1656 8.14003C10.5628 8.36709 10.887 8.56935 10.8861 8.5895C10.8852 8.60965 10.5348 8.82112 10.1074 9.05939C9.28521 9.51773 9.02275 9.75969 8.67008 10.3846C8.26965 11.0942 7.79405 12.3932 7.32692 14.0531C7.20439 14.4886 7.08394 14.8211 7.05929 14.7921C7.03464 14.7629 6.86798 14.2403 6.68895 13.6307C6.0743 11.5382 5.56767 10.3571 5.0343 9.77326C4.8147 9.53291 4.50307 9.31332 3.97844 9.02923C3.56907 8.80755 3.23339 8.61106 3.23252 8.59259C3.23165 8.57412 3.59533 8.35177 4.04077 8.09852C4.90438 7.60747 4.97632 7.52632 4.97632 7.0432C4.97632 6.81621 4.95557 6.77886 4.82961 6.77886C4.52699 6.77886 3.92449 6.56128 3.62496 6.34384C3.23998 6.06445 2.96134 5.54432 2.9604 5.10311C2.95999 4.93484 3.02448 4.6128 3.10361 4.38736L3.2475 3.97759L2.83095 3.48049C2.60188 3.20716 2.39384 2.97621 2.36865 2.96727C2.34353 2.95841 2.22147 3.18936 2.09746 3.48049ZM3.87512 4.73553C3.79995 4.93141 3.83334 5.24498 3.95042 5.44322C4.09404 5.68639 4.53109 5.90558 4.8722 5.90558C5.15004 5.90558 5.64807 5.77735 5.64807 5.70581C5.64807 5.68149 5.51957 5.59127 5.36258 5.50535C5.20559 5.41937 4.83055 5.18708 4.52927 4.98918C4.22799 4.79122 3.96675 4.62926 3.94868 4.62926C3.93067 4.62926 3.89756 4.67708 3.87512 4.73553ZM9.79554 4.8733C9.61974 5.00524 9.24396 5.24539 8.96048 5.40694L8.44498 5.7007L8.69017 5.80314C9.19318 6.01333 9.93943 5.84916 10.1851 5.47425C10.3438 5.23209 10.3269 4.62402 10.1616 4.63127C10.1361 4.63241 9.9714 4.7413 9.79554 4.8733ZM6.79005 5.57764C6.55601 5.67047 6.19743 6.02751 6.04891 6.31549C5.91691 6.57163 5.79425 7.19448 5.7659 7.7529C5.74897 8.08609 5.74568 8.09066 5.35398 8.32161L4.95913 8.55437L5.18604 8.72177C5.88742 9.23895 6.3819 10.0082 6.7869 11.2124C6.90499 11.5634 7.01724 11.8959 7.03638 11.9514C7.05553 12.0068 7.18343 11.7196 7.32067 11.3132C7.45791 10.9068 7.67374 10.3643 7.80037 10.1077C8.03918 9.62366 8.61205 8.94338 8.94785 8.74501C9.05419 8.6822 9.14118 8.60932 9.14118 8.58305C9.14118 8.55679 8.97795 8.44192 8.77851 8.32779C8.57906 8.21366 8.39769 8.07292 8.37546 8.01509C8.35322 7.95718 8.33508 7.73241 8.33508 7.51557C8.33508 6.64713 8.02158 5.95294 7.49539 5.65623C7.20385 5.49185 7.04962 5.47472 6.79005 5.57764Z" fill="#121212"/>
</svg>
