<svg width="24" height="24" viewBox="0 0 24 24" fill="none" xmlns="http://www.w3.org/2000/svg">
<path fill-rule="evenodd" clip-rule="evenodd" d="M10.8464 0.0331283C8.52234 0.272436 6.25205 1.2235 4.45679 2.70974C3.86342 3.20097 2.87395 4.24878 2.42795 4.85821C1.73352 5.80707 1.10448 6.99095 0.710156 8.09127C-0.236438 10.7325 -0.236719 13.8619 0.709313 16.5142C0.954177 17.2005 1.56257 18.4498 1.93995 19.0411C2.85846 20.48 4.24703 21.876 5.64333 22.7641C6.21619 23.1285 7.1552 23.6079 7.71973 23.8244C8.28721 24.0419 8.57317 24.0556 8.78176 23.8752C9.00069 23.6857 9.0211 23.5258 8.98847 22.2562C8.96231 21.2393 8.95051 21.1116 8.88455 21.1314C8.61615 21.2119 7.95228 21.2643 7.48217 21.2423C6.60158 21.201 5.93983 20.9289 5.43376 20.4002C5.23374 20.1912 5.11264 19.9951 4.89381 19.5258C4.46273 18.6012 4.17312 18.225 3.58158 17.8213C2.95339 17.3926 3.06199 17.0667 3.8124 17.1287C4.44963 17.1812 5.0692 17.637 5.5711 18.4223C6.17154 19.3616 6.87327 19.7595 7.82712 19.7015C8.10161 19.6848 8.38158 19.6306 8.63061 19.546L9.01281 19.4161L9.08668 19.0797C9.17824 18.6628 9.3835 18.2136 9.60243 17.951L9.76884 17.7514L9.35972 17.6931C8.77052 17.6093 7.79982 17.3446 7.31838 17.1365C5.28233 16.2564 4.26651 14.3285 4.35114 11.5053C4.37052 10.8595 4.39388 10.6701 4.49915 10.3053C4.66687 9.72431 4.98293 9.07868 5.29937 8.67072C5.46236 8.46058 5.54882 8.30805 5.53131 8.26161C5.35545 7.79584 5.2777 6.87558 5.36439 6.28636C5.3936 6.08782 5.47313 5.73622 5.5411 5.50505C5.65733 5.10979 5.67338 5.08303 5.80969 5.05685C6.31716 4.95943 7.55412 5.42024 8.60786 6.09922L8.97874 6.33824L9.50296 6.21772C10.477 5.99382 11.0917 5.93707 12.2507 5.96398C13.3058 5.98847 13.7409 6.03998 14.5684 6.23837L14.9733 6.33545L15.3836 6.07448C16.2397 5.52998 17.0402 5.18656 17.6889 5.08544C18.2256 5.00179 18.2669 5.02354 18.4008 5.4612C18.4628 5.66354 18.5396 5.99675 18.5715 6.2016C18.6507 6.71001 18.6085 7.66406 18.4899 8.04372L18.3995 8.33313L18.6495 8.66942C19.1826 9.38676 19.5219 10.2771 19.5927 11.1447C19.6134 11.3978 19.6135 11.9124 19.5929 12.2884C19.45 14.9039 18.3631 16.5249 16.2486 17.2764C15.7801 17.4428 15.1113 17.6072 14.6614 17.6663C14.5327 17.6832 14.3686 17.709 14.2969 17.7235L14.1664 17.75L14.3372 17.9444C14.5306 18.1646 14.7366 18.5909 14.8552 19.017C14.9239 19.2637 14.9395 19.6271 14.9624 21.5118L14.9891 23.7178L15.1419 23.8582C15.4375 24.1296 15.904 24.0205 17.1891 23.3792C18.4282 22.7608 19.3068 22.1262 20.2953 21.1356C20.6391 20.791 21.0744 20.3141 21.2625 20.0759C22.3373 18.7149 23.1656 17.0168 23.5827 15.3191C23.7387 14.6845 23.9058 13.6184 23.9061 13.2562C23.9063 13.132 23.9274 13.017 23.9532 13.0006C23.981 12.9829 24 12.6783 24 12.2489C24 11.8518 23.982 11.5384 23.96 11.5524C23.938 11.5664 23.9061 11.375 23.8892 11.127C23.7932 9.7232 23.3196 8.08121 22.5929 6.63266C21.9693 5.38963 21.3096 4.48202 20.2947 3.47069C19.3007 2.4803 18.3937 1.82514 17.1896 1.22798C16.0341 0.654885 14.9622 0.311374 13.7346 0.120775C13.0129 0.00872586 11.5225 -0.0364691 10.8464 0.0331283ZM0.00524277 12.3027C0.00524277 12.7131 0.0124515 12.8809 0.021205 12.6757C0.0300053 12.4706 0.0300053 12.1349 0.021205 11.9297C0.0124515 11.7246 0.00524277 11.8924 0.00524277 12.3027Z" fill="white" fill-opacity="0.8"/>
</svg>
