<svg width="1312" height="438" viewBox="0 0 1312 438" fill="none" xmlns="http://www.w3.org/2000/svg">
<rect x="0.437333" y="0.437333" width="72.0113" height="72.0113" stroke="white" stroke-opacity="0.2" stroke-width="0.874667"/>
<rect x="73.3231" y="0.437333" width="72.0113" height="72.0113" stroke="white" stroke-opacity="0.2" stroke-width="0.874667"/>
<rect x="146.209" y="0.437333" width="72.0113" height="72.0113" stroke="white" stroke-opacity="0.2" stroke-width="0.874667"/>
<rect x="219.095" y="0.437333" width="72.0113" height="72.0113" stroke="white" stroke-opacity="0.2" stroke-width="0.874667"/>
<rect x="291.981" y="0.437333" width="72.0113" height="72.0113" stroke="white" stroke-opacity="0.2" stroke-width="0.874667"/>
<rect x="364.867" y="0.437333" width="72.0113" height="72.0113" stroke="white" stroke-opacity="0.2" stroke-width="0.874667"/>
<rect x="437.753" y="0.437333" width="72.0113" height="72.0113" stroke="white" stroke-opacity="0.2" stroke-width="0.874667"/>
<rect x="510.639" y="0.437333" width="72.0113" height="72.0113" stroke="white" stroke-opacity="0.2" stroke-width="0.874667"/>
<rect x="583.525" y="0.437333" width="72.0113" height="72.0113" stroke="white" stroke-opacity="0.2" stroke-width="0.874667"/>
<rect x="656.411" y="0.437333" width="72.0113" height="72.0113" stroke="white" stroke-opacity="0.2" stroke-width="0.874667"/>
<rect x="729.298" y="0.437333" width="72.0113" height="72.0113" stroke="white" stroke-opacity="0.2" stroke-width="0.874667"/>
<rect x="802.183" y="0.437333" width="72.0113" height="72.0113" stroke="white" stroke-opacity="0.2" stroke-width="0.874667"/>
<rect x="875.069" y="0.437333" width="72.0113" height="72.0113" stroke="white" stroke-opacity="0.2" stroke-width="0.874667"/>
<rect x="947.955" y="0.437333" width="72.0113" height="72.0113" stroke="white" stroke-opacity="0.2" stroke-width="0.874667"/>
<rect x="1020.84" y="0.437333" width="72.0113" height="72.0113" stroke="white" stroke-opacity="0.2" stroke-width="0.874667"/>
<rect x="1093.73" y="0.437333" width="72.0113" height="72.0113" stroke="white" stroke-opacity="0.2" stroke-width="0.874667"/>
<rect x="1166.61" y="0.437333" width="72.0113" height="72.0113" stroke="white" stroke-opacity="0.2" stroke-width="0.874667"/>
<rect x="1239.5" y="0.437333" width="72.0113" height="72.0113" stroke="white" stroke-opacity="0.2" stroke-width="0.874667"/>
<rect x="0.437333" y="73.3231" width="72.0113" height="72.0113" stroke="white" stroke-opacity="0.2" stroke-width="0.874667"/>
<rect x="73.3231" y="73.3231" width="72.0113" height="72.0113" stroke="white" stroke-opacity="0.2" stroke-width="0.874667"/>
<rect x="146.209" y="73.3231" width="72.0113" height="72.0113" stroke="white" stroke-opacity="0.2" stroke-width="0.874667"/>
<rect x="219.095" y="73.3231" width="72.0113" height="72.0113" stroke="white" stroke-opacity="0.2" stroke-width="0.874667"/>
<rect x="291.981" y="73.3231" width="72.0113" height="72.0113" stroke="white" stroke-opacity="0.2" stroke-width="0.874667"/>
<rect x="364.867" y="73.3231" width="72.0113" height="72.0113" stroke="white" stroke-opacity="0.2" stroke-width="0.874667"/>
<rect x="437.753" y="73.3231" width="72.0113" height="72.0113" stroke="white" stroke-opacity="0.2" stroke-width="0.874667"/>
<rect x="510.639" y="73.3231" width="72.0113" height="72.0113" stroke="white" stroke-opacity="0.2" stroke-width="0.874667"/>
<rect x="583.525" y="73.3231" width="72.0113" height="72.0113" stroke="white" stroke-opacity="0.2" stroke-width="0.874667"/>
<rect x="656.411" y="73.3231" width="72.0113" height="72.0113" stroke="white" stroke-opacity="0.2" stroke-width="0.874667"/>
<rect x="729.297" y="73.3231" width="72.0113" height="72.0113" stroke="white" stroke-opacity="0.2" stroke-width="0.874667"/>
<rect x="802.183" y="73.3231" width="72.0113" height="72.0113" stroke="white" stroke-opacity="0.2" stroke-width="0.874667"/>
<rect x="875.069" y="73.3231" width="72.0113" height="72.0113" stroke="white" stroke-opacity="0.2" stroke-width="0.874667"/>
<rect x="947.955" y="73.3231" width="72.0113" height="72.0113" stroke="white" stroke-opacity="0.2" stroke-width="0.874667"/>
<rect x="1020.84" y="73.3231" width="72.0113" height="72.0113" stroke="white" stroke-opacity="0.2" stroke-width="0.874667"/>
<rect x="1093.73" y="73.3231" width="72.0113" height="72.0113" stroke="white" stroke-opacity="0.2" stroke-width="0.874667"/>
<rect x="1166.61" y="73.3231" width="72.0113" height="72.0113" stroke="white" stroke-opacity="0.2" stroke-width="0.874667"/>
<rect x="1239.5" y="73.3231" width="72.0113" height="72.0113" stroke="white" stroke-opacity="0.2" stroke-width="0.874667"/>
<rect x="0.437333" y="146.209" width="72.0113" height="72.0113" stroke="white" stroke-opacity="0.2" stroke-width="0.874667"/>
<rect x="73.3231" y="146.209" width="72.0113" height="72.0113" stroke="white" stroke-opacity="0.2" stroke-width="0.874667"/>
<rect x="146.209" y="146.209" width="72.0113" height="72.0113" stroke="white" stroke-opacity="0.2" stroke-width="0.874667"/>
<rect x="219.095" y="146.209" width="72.0113" height="72.0113" stroke="white" stroke-opacity="0.2" stroke-width="0.874667"/>
<rect x="291.981" y="146.209" width="72.0113" height="72.0113" stroke="white" stroke-opacity="0.2" stroke-width="0.874667"/>
<rect x="364.867" y="146.209" width="72.0113" height="72.0113" stroke="white" stroke-opacity="0.2" stroke-width="0.874667"/>
<rect x="437.753" y="146.209" width="72.0113" height="72.0113" stroke="white" stroke-opacity="0.2" stroke-width="0.874667"/>
<rect x="510.639" y="146.209" width="72.0113" height="72.0113" stroke="white" stroke-opacity="0.2" stroke-width="0.874667"/>
<rect x="583.525" y="146.209" width="72.0113" height="72.0113" stroke="white" stroke-opacity="0.2" stroke-width="0.874667"/>
<rect x="656.411" y="146.209" width="72.0113" height="72.0113" stroke="white" stroke-opacity="0.2" stroke-width="0.874667"/>
<rect x="729.298" y="146.209" width="72.0113" height="72.0113" stroke="white" stroke-opacity="0.2" stroke-width="0.874667"/>
<rect x="802.183" y="146.209" width="72.0113" height="72.0113" stroke="white" stroke-opacity="0.2" stroke-width="0.874667"/>
<rect x="875.069" y="146.209" width="72.0113" height="72.0113" stroke="white" stroke-opacity="0.2" stroke-width="0.874667"/>
<rect x="947.955" y="146.209" width="72.0113" height="72.0113" stroke="white" stroke-opacity="0.2" stroke-width="0.874667"/>
<rect x="1020.84" y="146.209" width="72.0113" height="72.0113" stroke="white" stroke-opacity="0.2" stroke-width="0.874667"/>
<rect x="1093.73" y="146.209" width="72.0113" height="72.0113" stroke="white" stroke-opacity="0.2" stroke-width="0.874667"/>
<rect x="1166.61" y="146.209" width="72.0113" height="72.0113" stroke="white" stroke-opacity="0.2" stroke-width="0.874667"/>
<rect x="1239.5" y="146.209" width="72.0113" height="72.0113" stroke="white" stroke-opacity="0.2" stroke-width="0.874667"/>
<rect x="0.437333" y="219.096" width="72.0113" height="72.0113" stroke="white" stroke-opacity="0.2" stroke-width="0.874667"/>
<rect x="73.3231" y="219.096" width="72.0113" height="72.0113" stroke="white" stroke-opacity="0.2" stroke-width="0.874667"/>
<rect x="146.209" y="219.096" width="72.0113" height="72.0113" stroke="white" stroke-opacity="0.2" stroke-width="0.874667"/>
<rect x="219.095" y="219.096" width="72.0113" height="72.0113" stroke="white" stroke-opacity="0.2" stroke-width="0.874667"/>
<rect x="291.981" y="219.096" width="72.0113" height="72.0113" stroke="white" stroke-opacity="0.2" stroke-width="0.874667"/>
<rect x="364.867" y="219.096" width="72.0113" height="72.0113" stroke="white" stroke-opacity="0.2" stroke-width="0.874667"/>
<rect x="437.753" y="219.096" width="72.0113" height="72.0113" stroke="white" stroke-opacity="0.2" stroke-width="0.874667"/>
<rect x="510.639" y="219.096" width="72.0113" height="72.0113" stroke="white" stroke-opacity="0.2" stroke-width="0.874667"/>
<rect x="583.525" y="219.096" width="72.0113" height="72.0113" stroke="white" stroke-opacity="0.2" stroke-width="0.874667"/>
<rect x="656.411" y="219.096" width="72.0113" height="72.0113" stroke="white" stroke-opacity="0.2" stroke-width="0.874667"/>
<rect x="729.298" y="219.096" width="72.0113" height="72.0113" stroke="white" stroke-opacity="0.2" stroke-width="0.874667"/>
<rect x="802.183" y="219.096" width="72.0113" height="72.0113" stroke="white" stroke-opacity="0.2" stroke-width="0.874667"/>
<rect x="875.069" y="219.096" width="72.0113" height="72.0113" stroke="white" stroke-opacity="0.2" stroke-width="0.874667"/>
<rect x="947.955" y="219.096" width="72.0113" height="72.0113" stroke="white" stroke-opacity="0.2" stroke-width="0.874667"/>
<rect x="1020.84" y="219.096" width="72.0113" height="72.0113" stroke="white" stroke-opacity="0.2" stroke-width="0.874667"/>
<rect x="1093.73" y="219.096" width="72.0113" height="72.0113" stroke="white" stroke-opacity="0.2" stroke-width="0.874667"/>
<rect x="1166.61" y="219.096" width="72.0113" height="72.0113" stroke="white" stroke-opacity="0.2" stroke-width="0.874667"/>
<rect x="1239.5" y="219.096" width="72.0113" height="72.0113" stroke="white" stroke-opacity="0.2" stroke-width="0.874667"/>
<rect x="0.437333" y="291.981" width="72.0113" height="72.0113" stroke="white" stroke-opacity="0.2" stroke-width="0.874667"/>
<rect x="73.3231" y="291.981" width="72.0113" height="72.0113" stroke="white" stroke-opacity="0.2" stroke-width="0.874667"/>
<rect x="146.209" y="291.981" width="72.0113" height="72.0113" stroke="white" stroke-opacity="0.2" stroke-width="0.874667"/>
<rect x="219.095" y="291.981" width="72.0113" height="72.0113" stroke="white" stroke-opacity="0.2" stroke-width="0.874667"/>
<rect x="291.981" y="291.981" width="72.0113" height="72.0113" stroke="white" stroke-opacity="0.2" stroke-width="0.874667"/>
<rect x="364.867" y="291.981" width="72.0113" height="72.0113" stroke="white" stroke-opacity="0.2" stroke-width="0.874667"/>
<rect x="437.753" y="291.981" width="72.0113" height="72.0113" stroke="white" stroke-opacity="0.2" stroke-width="0.874667"/>
<rect x="510.639" y="291.981" width="72.0113" height="72.0113" stroke="white" stroke-opacity="0.2" stroke-width="0.874667"/>
<rect x="583.525" y="291.981" width="72.0113" height="72.0113" stroke="white" stroke-opacity="0.2" stroke-width="0.874667"/>
<rect x="656.411" y="291.981" width="72.0113" height="72.0113" stroke="white" stroke-opacity="0.2" stroke-width="0.874667"/>
<rect x="729.297" y="291.981" width="72.0113" height="72.0113" stroke="white" stroke-opacity="0.2" stroke-width="0.874667"/>
<rect x="802.183" y="291.981" width="72.0113" height="72.0113" stroke="white" stroke-opacity="0.2" stroke-width="0.874667"/>
<rect x="875.069" y="291.981" width="72.0113" height="72.0113" stroke="white" stroke-opacity="0.2" stroke-width="0.874667"/>
<rect x="947.955" y="291.981" width="72.0113" height="72.0113" stroke="white" stroke-opacity="0.2" stroke-width="0.874667"/>
<rect x="1020.84" y="291.981" width="72.0113" height="72.0113" stroke="white" stroke-opacity="0.2" stroke-width="0.874667"/>
<rect x="1093.73" y="291.981" width="72.0113" height="72.0113" stroke="white" stroke-opacity="0.2" stroke-width="0.874667"/>
<rect x="1166.61" y="291.981" width="72.0113" height="72.0113" stroke="white" stroke-opacity="0.2" stroke-width="0.874667"/>
<rect x="1239.5" y="291.981" width="72.0113" height="72.0113" stroke="white" stroke-opacity="0.2" stroke-width="0.874667"/>
<rect x="0.437333" y="364.867" width="72.0113" height="72.0113" stroke="white" stroke-opacity="0.2" stroke-width="0.874667"/>
<rect x="73.3231" y="364.867" width="72.0113" height="72.0113" stroke="white" stroke-opacity="0.2" stroke-width="0.874667"/>
<rect x="146.209" y="364.867" width="72.0113" height="72.0113" stroke="white" stroke-opacity="0.2" stroke-width="0.874667"/>
<rect x="219.095" y="364.867" width="72.0113" height="72.0113" stroke="white" stroke-opacity="0.2" stroke-width="0.874667"/>
<rect x="291.981" y="364.867" width="72.0113" height="72.0113" stroke="white" stroke-opacity="0.2" stroke-width="0.874667"/>
<rect x="364.867" y="364.867" width="72.0113" height="72.0113" stroke="white" stroke-opacity="0.2" stroke-width="0.874667"/>
<rect x="437.753" y="364.867" width="72.0113" height="72.0113" stroke="white" stroke-opacity="0.2" stroke-width="0.874667"/>
<rect x="510.639" y="364.867" width="72.0113" height="72.0113" stroke="white" stroke-opacity="0.2" stroke-width="0.874667"/>
<rect x="583.525" y="364.867" width="72.0113" height="72.0113" stroke="white" stroke-opacity="0.2" stroke-width="0.874667"/>
<rect x="656.411" y="364.867" width="72.0113" height="72.0113" stroke="white" stroke-opacity="0.2" stroke-width="0.874667"/>
<rect x="729.297" y="364.867" width="72.0113" height="72.0113" stroke="white" stroke-opacity="0.2" stroke-width="0.874667"/>
<rect x="802.183" y="364.867" width="72.0113" height="72.0113" stroke="white" stroke-opacity="0.2" stroke-width="0.874667"/>
<rect x="875.069" y="364.867" width="72.0113" height="72.0113" stroke="white" stroke-opacity="0.2" stroke-width="0.874667"/>
<rect x="947.955" y="364.867" width="72.0113" height="72.0113" stroke="white" stroke-opacity="0.2" stroke-width="0.874667"/>
<rect x="1020.84" y="364.867" width="72.0113" height="72.0113" stroke="white" stroke-opacity="0.2" stroke-width="0.874667"/>
<rect x="1093.73" y="364.867" width="72.0113" height="72.0113" stroke="white" stroke-opacity="0.2" stroke-width="0.874667"/>
<rect x="1166.61" y="364.867" width="72.0113" height="72.0113" stroke="white" stroke-opacity="0.2" stroke-width="0.874667"/>
<rect x="1239.5" y="364.867" width="72.0113" height="72.0113" stroke="white" stroke-opacity="0.2" stroke-width="0.874667"/>
</svg>
