<svg width="741" height="901" viewBox="0 0 741 901" fill="none" xmlns="http://www.w3.org/2000/svg">
<path fill-rule="evenodd" clip-rule="evenodd" d="M729.42 395.277L717.84 395.277L717.84 383.652L717.84 372.026L729.42 372.026L741 372.026L741 383.652L741 395.277L729.42 395.277ZM717.261 130.209L693.521 130.209L693.527 118.293L693.533 106.376L715.24 106.486C727.179 106.547 737.859 106.678 738.973 106.777C740.757 106.935 741 108.355 741 118.583L741 130.209L717.261 130.209ZM706.495 448.657C693.829 448.914 692.889 448.572 693.143 443.802C693.253 441.732 693.383 436.505 693.432 432.189L693.521 424.342L705.101 424.342L716.682 424.342L716.682 436.397L716.682 448.45L706.495 448.657ZM704.95 370.613L693.218 370.282L693.218 356.912L693.218 343.543L704.95 343.211L716.682 342.88L716.682 356.912L716.682 370.945L704.95 370.613ZM690.663 317.384L664.571 317.384L664.571 303.411L664.571 289.438L690.337 289.751L716.103 290.064L716.429 303.724L716.755 317.384L690.663 317.384ZM705.101 211.59L693.521 211.59L693.521 197.639L693.521 183.688L705.101 183.688L716.682 183.688L716.682 197.639L716.682 211.59L705.101 211.59ZM691.495 663.94C691.017 664 684.894 664.024 677.888 663.995L665.15 663.943L664.823 650.518L664.498 637.094L678.43 637.094L692.363 637.094L692.363 650.464C692.363 657.817 691.973 663.882 691.495 663.94ZM678.467 582.453L664.571 582.453L664.571 570.827L664.571 559.201L678.467 559.201L692.363 559.201L692.363 570.827L692.363 582.453L678.467 582.453ZM691.591 264.293C691.167 264.72 684.914 265.068 677.695 265.068L664.571 265.068L664.571 251.117L664.571 237.166L678.467 237.166L692.363 237.166L692.363 250.342C692.363 257.589 692.016 263.867 691.591 264.293ZM678.467 76.7303L664.571 76.7303L664.571 65.1045L664.571 53.4787L678.467 53.4787L692.363 53.4787L692.363 65.1045L692.363 76.7303L678.467 76.7303ZM661.965 423.26C661.169 423.304 655.958 423.434 650.385 423.55L640.251 423.761L640.253 410.1L640.253 396.44L651.833 396.44L663.413 396.44L663.413 409.81C663.413 419.688 663.035 423.2 661.965 423.26ZM651.833 341.799L640.253 341.799L640.253 330.173L640.253 318.547L651.833 318.547L663.413 318.547L663.413 330.173L663.413 341.799L651.833 341.799ZM655.307 182.67C650.848 182.751 646.419 182.816 645.464 182.816C640.161 182.816 640.252 183.025 640.252 170.899L640.252 159.273L651.833 159.273L663.413 159.273L663.413 170.899L663.413 182.525L655.307 182.67ZM651.833 130.209L640.252 130.209L640.252 118.293L640.251 106.376L651.829 106.376L663.406 106.376L663.409 118.293L663.413 130.209L651.833 130.209ZM625.198 501.072L611.302 501.072L611.302 489.446L611.302 477.821L625.198 477.821L639.094 477.821L639.094 489.446L639.094 501.072L625.198 501.072ZM625.198 395.277L611.302 395.277L611.302 383.652L611.302 372.026L625.198 372.026L639.094 372.026L639.094 383.652L639.094 395.277L625.198 395.277ZM625.198 236.004L611.302 236.004L611.302 224.378L611.302 212.752L625.198 212.752L639.094 212.752L639.094 224.378L639.094 236.004L625.198 236.004ZM625.198 76.7303L611.302 76.7303L611.302 65.1045L611.302 53.4787L625.198 53.4787L639.094 53.4787L639.094 65.1045L639.094 76.7303L625.198 76.7303ZM625.198 24.4141L611.302 24.4141L611.302 12.207L611.302 -5.89422e-05L625.198 -5.95496e-05L639.094 -6.0157e-05L639.094 12.207L639.094 24.4141L625.198 24.4141ZM599.143 341.799L586.984 341.799L586.984 330.173L586.984 318.547L599.143 318.547L611.302 318.547L611.302 330.173L611.302 341.799L599.143 341.799ZM599.143 289.483L586.984 289.483L586.984 277.938C586.984 264.529 585.901 265.402 601.748 266.025L611.302 266.402L611.302 277.942L611.302 289.483L599.143 289.483ZM601.011 182.733C586.06 183.275 586.984 183.94 586.984 172.653C586.984 167.317 587.3 162.124 587.687 161.113C588.262 159.607 590.467 159.274 599.846 159.274L611.302 159.274L611.302 170.817L611.302 182.36L601.011 182.733ZM586.019 528.972C585.791 529.659 580.216 530.137 572.412 530.137L559.191 530.137L559.191 516.186L559.191 502.235L572.956 502.235L586.719 502.235L586.562 515.021C586.475 522.053 586.231 528.331 586.019 528.972ZM586.039 445.559L585.672 448.756L572.432 448.756L559.191 448.756L559.191 436.549L559.191 424.342L572.509 424.342C579.833 424.342 585.869 424.734 585.92 425.214C586.256 428.328 586.341 442.919 586.039 445.559ZM586.121 254.314L585.739 265.068L572.465 265.068L559.191 265.068L559.191 251.117L559.191 237.166L573.088 237.166L586.984 237.166L586.743 240.364C586.611 242.122 586.331 248.399 586.121 254.314ZM546.453 395.277L534.873 395.277L534.873 383.652L534.873 372.026L546.453 372.026L558.033 372.026L558.033 383.652L558.033 395.277L546.453 395.277ZM546.453 341.799L534.873 341.799L534.873 330.173L534.873 318.547L546.453 318.547L558.033 318.547L558.033 330.173L558.033 341.799L546.453 341.799ZM546.584 236.004L535.136 236.004L534.595 232.304C534.297 230.27 534.309 225.038 534.619 220.679L535.184 212.752L546.608 212.752L558.033 212.752L558.033 224.378L558.033 236.004L546.584 236.004ZM546.453 182.525L534.873 182.525L534.873 170.899L534.873 159.274L546.453 159.274L558.033 159.274L558.033 170.899L558.033 182.525L546.453 182.525ZM546.453 130.209L534.873 130.209L534.873 118.293L534.873 106.376L546.453 106.376L558.033 106.376L558.033 118.293L558.033 130.209L546.453 130.209ZM546.453 76.7303L534.873 76.7303L534.873 65.1045L534.873 53.4787L546.453 53.4787L558.033 53.4787L558.033 65.1045L558.033 76.7303L546.453 76.7303ZM546.453 24.4141L534.873 24.4141L534.873 12.207L534.873 -5.56013e-05L546.453 -5.61075e-05L558.033 -5.66137e-05L558.033 12.207L558.033 24.4141L546.453 24.4141ZM507.66 635.932L481.604 635.932L481.604 624.306L481.604 612.68L507.66 612.68L533.715 612.68L533.715 624.306L533.715 635.932L507.66 635.932ZM519.819 501.072L505.923 501.072L505.923 489.446L505.923 477.821L519.819 477.821L533.715 477.821L533.715 489.446L533.715 501.072L519.819 501.072ZM519.819 317.384L505.85 317.384L506.175 303.724L506.502 290.064L519.819 290.064L533.136 290.064L533.462 303.724L533.788 317.384L519.819 317.384ZM503.317 448.202C502.52 448.496 490.926 448.61 477.551 448.455L453.233 448.175L453.233 436.549L453.233 424.923L478.999 424.61L504.765 424.298L504.765 435.982C504.765 444.27 504.344 447.823 503.317 448.202ZM493.184 370.863L481.604 370.863L481.604 356.912L481.604 342.961L493.184 342.961L504.765 342.961L504.765 356.912L504.765 370.863L493.184 370.863ZM493.225 289.483L481.604 289.483L481.604 277.566L481.605 265.65L492.895 265.73L504.186 265.811L504.516 277.646L504.846 289.483L493.225 289.483ZM493.184 211.59L481.604 211.59L481.604 197.639L481.604 183.688L493.184 183.688L504.765 183.688L504.765 197.639L504.765 211.59L493.184 211.59ZM503.896 158.19C503.419 158.234 498.208 158.364 492.317 158.481L481.606 158.692L481.605 145.032L481.604 131.372L493.184 131.372L504.765 131.372L504.765 144.741C504.765 152.095 504.373 158.147 503.896 158.19ZM466.499 582.453L452.553 582.453L452.892 571.118L453.233 559.783L466.839 559.455L480.446 559.128L480.446 570.79L480.446 582.453L466.499 582.453ZM466.839 341.545L453.233 341.217L452.859 329.882L452.486 318.547L466.465 318.547L480.446 318.547L480.446 330.21L480.446 341.872L466.839 341.545ZM466.839 264.815L453.233 264.487L453.233 251.117L453.233 237.748L466.839 237.42L480.446 237.093L480.446 251.117L480.446 265.142L466.839 264.815ZM466.839 129.956L453.233 129.628L453.134 119.746C453.08 114.311 453.34 109.079 453.713 108.12C454.26 106.713 456.912 106.376 467.418 106.376L480.446 106.376L480.446 118.33L480.446 130.282L466.839 129.956ZM440.495 530.137L428.335 530.137L428.335 516.186L428.335 502.235L440.495 502.235L452.654 502.235L452.654 516.186L452.654 530.137L440.495 530.137ZM440.495 395.277L428.335 395.277L428.335 383.652L428.335 372.026L440.495 372.026L452.654 372.026L452.654 383.652L452.654 395.277L440.495 395.277ZM440.495 289.483L428.335 289.483L428.335 277.456L428.335 265.429L439.626 265.761C445.837 265.944 451.308 266.124 451.785 266.162C452.262 266.2 452.654 271.463 452.654 277.857L452.654 289.483L440.495 289.483ZM440.532 52.3161L428.335 52.3161L428.335 38.3244L428.335 24.3328L440.205 24.6641L452.075 24.9954L452.401 38.6558L452.727 52.3161L440.532 52.3161ZM414.476 476.658L400.543 476.658L400.543 462.67L400.543 448.683L414.15 449.01L427.756 449.337L428.083 462.998L428.408 476.658L414.476 476.658ZM414.439 341.799L400.543 341.799L400.543 330.173L400.543 318.547L414.439 318.547L428.335 318.547L428.335 330.173L428.335 341.799L414.439 341.799ZM414.439 236.004L400.543 236.004L400.543 224.378L400.543 212.752L414.439 212.752L428.335 212.752L428.335 224.378L428.335 236.004L414.439 236.004ZM414.439 182.525L400.543 182.525L400.543 170.899L400.543 159.274L414.439 159.274L428.335 159.274L428.335 170.899L428.335 182.525L414.439 182.525ZM414.439 105.795L400.543 105.795L400.543 91.8438L400.543 77.8929L414.439 77.8929L428.335 77.8929L428.335 91.8438L428.335 105.795L414.439 105.795ZM387.805 741.726L376.225 741.726L376.225 730.101L376.225 718.475L387.805 718.475L399.385 718.475L399.385 730.101L399.385 741.726L387.805 741.726ZM387.805 423.179L376.225 423.179L376.225 409.81L376.225 396.44L387.805 396.44L399.385 396.44L399.385 409.81L399.385 423.179L387.805 423.179ZM387.805 24.4141L376.225 24.4141L376.225 12.207L376.225 -4.86666e-05L387.805 -4.91728e-05L399.385 -4.9679e-05L399.385 12.207L399.385 24.4141L387.805 24.4141ZM361.17 558.039L347.274 558.039L347.273 544.378L347.272 530.718L360.301 530.981C367.467 531.125 373.72 531.256 374.198 531.271C374.676 531.287 375.067 537.316 375.067 544.669L375.067 558.039L361.17 558.039ZM361.133 476.658L347.201 476.658L347.527 462.998L347.853 449.337L361.46 449.01L375.067 448.683L375.067 462.67L375.067 476.658L361.133 476.658ZM361.17 370.863L347.274 370.863L347.274 356.912L347.274 342.961L361.17 342.961L375.067 342.961L375.067 356.912L375.067 370.863L361.17 370.863ZM361.17 317.384L347.201 317.384L347.527 303.724L347.853 290.064L361.17 290.064L374.488 290.064L374.814 303.724L375.14 317.384L361.17 317.384ZM361.17 236.004L347.274 236.004L347.274 224.378L347.274 212.752L361.17 212.752L375.067 212.752L375.067 224.378L375.067 236.004L361.17 236.004ZM373.932 182.719C373.308 182.932 367.054 182.942 360.036 182.744L347.274 182.38L347.274 170.827L347.274 159.274L361.17 159.274L375.067 159.274L375.067 170.803C375.067 177.29 374.571 182.501 373.932 182.719ZM361.17 76.7303L347.274 76.7303L347.274 65.1045L347.274 53.4787L361.17 53.4787L375.067 53.4787L375.067 65.1045L375.067 76.7303L361.17 76.7303ZM334.536 689.41L322.956 689.41L322.956 677.203L322.956 664.996L334.536 664.996L346.116 664.996L346.116 677.203L346.116 689.41L334.536 689.41ZM334.536 611.517L322.956 611.517L322.956 597.566L322.956 583.615L334.536 583.615L346.116 583.615L346.116 597.566L346.116 611.517L334.536 611.517ZM345.248 423.333C344.769 423.418 339.56 423.548 333.668 423.623L322.956 423.761L322.956 410.1L322.956 396.44L334.536 396.44L346.116 396.44L346.116 409.81C346.116 417.163 345.726 423.248 345.248 423.333ZM322.034 16.5667L321.692 24.4141L308.621 24.4141C301.432 24.4141 295.333 24.1979 295.067 23.9352C294.801 23.6713 294.749 18.1781 294.95 11.7281L295.317 -4.513e-05L308.435 -4.57034e-05L321.555 -4.62769e-05L321.966 4.35963C322.192 6.75687 322.223 12.2501 322.034 16.5667ZM308.137 501.072L294.476 501.072L294.469 489.446L294.461 477.821L308.13 477.821L321.798 477.821L321.798 489.446L321.798 501.072L308.137 501.072ZM308.481 448.582L295.163 448.414L295.031 444.807C294.58 432.446 294.559 427.075 294.958 425.795C295.286 424.744 299.064 424.342 308.605 424.342L321.798 424.342L321.798 436.546L321.798 448.749L308.481 448.582ZM308.638 370.863L295.48 370.863L294.682 358.91C294.243 352.335 294.228 346.057 294.648 344.959C295.308 343.232 297.202 342.961 308.605 342.961L321.798 342.961L321.798 356.912L321.798 370.863L308.638 370.863ZM308.521 289.483C301.175 289.483 295.114 289.091 295.053 288.611C294.613 285.148 294.434 269.855 294.81 267.975C295.243 265.81 296.17 265.655 308.247 265.729L321.219 265.808L321.549 277.645L321.879 289.483L308.521 289.483ZM295.686 236.004L269.574 236.004L269.773 224.378L269.973 212.752L295.885 212.752L321.798 212.752L321.798 224.378L321.798 236.004L295.686 236.004ZM308.481 130.209C298.663 130.209 295.132 129.828 295.043 128.756C294.945 127.558 295.018 109.113 295.13 106.875C295.148 106.509 301.156 106.247 308.479 106.293L321.796 106.376L321.797 118.293L321.798 130.209L308.481 130.209ZM281.846 558.039L269.687 558.039L269.687 544.841L269.687 531.643L278.662 530.973C283.597 530.603 289.07 530.587 290.821 530.935L294.005 531.57L294.005 544.805L294.005 558.039L281.846 558.039ZM293.137 423.272C292.659 423.322 287.187 423.454 280.978 423.563L269.687 423.761L269.687 410.1L269.687 396.44L281.846 396.44L294.005 396.44L294.005 409.81C294.005 417.163 293.615 423.221 293.137 423.272ZM283.714 342.007C268.606 342.554 269.687 343.474 269.687 330.088L269.687 318.547L281.846 318.547L294.005 318.547L294.005 330.09L294.005 341.634L283.714 342.007ZM268.954 688.597C268.508 689.044 262.238 689.41 255.019 689.41L241.895 689.41L241.895 677.301L241.895 665.191L255.501 665.384L269.108 665.577L269.437 676.68C269.618 682.786 269.4 688.148 268.954 688.597ZM255.791 611.517L241.895 611.517L241.895 597.566L241.895 583.615L255.791 583.615L269.687 583.615L269.687 597.566L269.687 611.517L255.791 611.517ZM255.791 501.072L241.895 501.072L241.895 489.446L241.895 477.821L255.791 477.821L269.687 477.821L269.687 489.446L269.687 501.072L255.791 501.072ZM261.87 182.674C257.572 182.755 252.751 182.965 251.159 183.138C249.567 183.312 246.83 183.18 245.079 182.845L241.895 182.234L241.895 170.754L241.895 159.274L255.791 159.274L269.687 159.274L269.687 170.899L269.687 182.525L261.87 182.674ZM229.157 741.726L217.576 741.726L217.576 730.101L217.576 718.475L229.157 718.475L240.737 718.475L240.737 730.101L240.737 741.726L229.157 741.726ZM239.289 423.215C238.492 423.235 233.281 423.365 227.708 423.506L217.574 423.761L217.575 410.1L217.576 396.44L229.156 396.44L240.737 396.44L240.737 409.81C240.737 419.711 240.361 423.189 239.289 423.215ZM229.156 341.799L217.576 341.799L217.576 330.173L217.576 318.547L229.156 318.547L240.737 318.547L240.737 330.173L240.737 341.799L229.156 341.799ZM229.116 289.483L217.495 289.483L217.825 277.566L218.155 265.65L229.446 265.526L240.737 265.404L240.737 277.443L240.737 289.483L229.116 289.483ZM229.291 236.004L217.846 236.004L217.366 228.435C217.102 224.272 217.098 219.041 217.357 216.81L217.83 212.752L229.283 212.752L240.737 212.752L240.737 224.378L240.737 236.004L229.291 236.004ZM229.273 105.795L217.809 105.795L217.386 100.454C217.154 97.5161 217.158 91.2381 217.397 86.5029L217.83 77.8929L229.283 77.8929L240.737 77.8929L240.737 91.8438L240.737 105.795L229.273 105.795ZM206.322 558.246C200.73 558.451 194.46 558.456 192.389 558.256L188.626 557.891L188.626 544.618C188.626 529.049 187.418 530.102 204.838 530.48L215.839 530.718L216.165 544.295L216.49 557.871L206.322 558.246ZM202.485 476.658L188.553 476.658L188.878 462.998L189.205 449.337L202.812 449.01L216.418 448.683L216.418 462.67L216.418 476.658L202.485 476.658ZM202.522 395.277L188.626 395.277L188.626 383.652L188.626 372.026L202.522 372.026L216.418 372.026L216.418 383.652L216.418 395.277L202.522 395.277ZM187.821 896.64L187.328 901L175.818 901L164.308 901L164.308 889.374L164.308 877.748L175.888 877.748L187.468 877.748L187.468 881.672C187.468 883.83 187.658 887.1 187.891 888.938C188.123 890.776 188.092 894.242 187.821 896.64ZM187.673 528.159C187.35 529.862 185.707 530.137 175.803 530.137L164.308 530.137L164.308 516.186L164.308 502.235L176.177 502.235L188.047 502.234L188.047 514.208C188.047 520.793 187.879 527.071 187.673 528.159ZM187.704 175.68L187.361 182.204L177.367 182.83C171.868 183.175 166.681 183.191 165.838 182.866C164.712 182.432 164.308 179.238 164.308 170.775L164.308 159.274L175.888 159.274C186.088 159.274 187.485 159.516 187.617 161.308C188.003 166.562 188.021 169.639 187.704 175.68ZM175.888 370.863L164.308 370.863L164.308 356.912L164.308 342.961L175.888 342.961L187.468 342.961L187.468 356.912L187.468 370.863L175.888 370.863ZM175.888 265.068L164.308 265.068L164.308 251.117L164.308 237.166L175.888 237.166L187.468 237.166L187.468 251.117L187.468 265.068L175.888 265.068ZM149.832 717.312L136.515 717.312L136.515 703.361L136.515 689.41L149.832 689.41L163.15 689.41L163.15 703.361L163.15 717.312L149.832 717.312ZM149.832 476.658L136.515 476.658L136.515 462.707L136.515 448.756L149.832 448.756L163.15 448.756L163.15 462.707L163.15 476.658L149.832 476.658ZM149.832 341.799L136.515 341.799L136.515 330.173L136.515 318.547L149.832 318.547L163.15 318.547L163.15 330.173L163.15 341.799L149.832 341.799ZM149.543 130.209L135.936 130.21L136.205 118.874C136.352 112.64 136.483 107.277 136.494 106.957C136.506 106.638 142.508 106.376 149.832 106.376L163.15 106.376L163.15 118.293L163.15 130.209L149.543 130.209ZM134.489 663.916C134.01 663.961 127.888 663.992 120.882 663.985L108.144 663.971L107.817 650.532L107.492 637.094L121.424 637.094L135.357 637.094L135.357 650.464C135.357 657.817 134.967 663.871 134.489 663.916ZM121.461 611.517L107.565 611.517L107.565 597.566L107.565 583.615L121.461 583.615L135.357 583.615L135.357 597.566L135.357 611.517L121.461 611.517ZM121.461 501.072L107.565 501.072L107.565 489.446L107.565 477.821L121.461 477.821L135.357 477.821L135.357 489.446L135.357 501.072L121.461 501.072ZM133.91 423.24C133.113 423.274 126.86 423.404 120.013 423.53L107.564 423.761L107.565 410.1L107.565 396.44L121.461 396.44L135.357 396.44L135.357 409.81C135.357 419.699 134.981 423.196 133.91 423.24ZM134.585 264.293C134.161 264.72 127.908 265.068 120.689 265.068L107.565 265.068L107.565 251.117L107.565 237.166L121.461 237.166L135.357 237.166L135.357 250.342C135.357 257.589 135.01 263.867 134.585 264.293ZM94.8265 558.039L83.2464 558.039L83.2464 544.805L83.2464 531.57L86.4089 530.963C88.1483 530.63 93.3594 530.645 97.9891 530.996L106.407 531.635L106.407 544.836L106.407 558.039L94.8265 558.039ZM80.3143 476.658L54.223 476.658L54.5484 462.998L54.875 449.337L80.6408 449.025L106.407 448.712L106.407 462.685L106.407 476.658L80.3143 476.658ZM94.8265 370.863L83.2464 370.863L83.2464 356.912L83.2464 342.961L94.8265 342.961L106.407 342.961L106.407 356.912L106.407 370.863L94.8265 370.863ZM94.8265 317.385L83.2464 317.385L83.2464 303.434L83.2464 289.483L94.8265 289.483L106.407 289.483L106.407 303.434L106.407 317.385L94.8265 317.385ZM94.8265 52.3161L83.2464 52.3161L83.2464 38.3651L83.2464 24.4142L94.8265 24.4142L106.407 24.4142L106.407 38.3651L106.407 52.3161L94.8265 52.3161ZM81.2198 663.982C76.4384 664.798 73.1346 664.855 64.4286 664.27L54.296 663.587L54.296 650.341L54.296 637.094L68.1922 637.094L82.0884 637.094L82.0884 650.464C82.0884 657.817 81.6981 663.9 81.2198 663.982ZM68.1921 236.004L54.2959 236.004L54.2959 224.378L54.2959 212.752L68.1921 212.752L82.0883 212.752L82.0883 224.378L82.0883 236.004L68.1921 236.004ZM77.7458 158.553C75.3568 158.406 69.1047 158.247 63.8496 158.199L54.2959 158.111L54.2959 144.741L54.2959 131.372L68.1921 131.372L82.0883 131.372L82.0883 145.096L82.0883 158.819L77.7458 158.553ZM41.8473 795.201L29.9776 795.205L29.9776 783.579L29.9776 771.954L41.8623 771.954L53.7459 771.954L53.732 783.575L53.717 795.195L41.8473 795.201ZM41.8473 611.517L29.9776 611.517L29.9776 597.566L29.9776 583.615L41.5578 583.615C47.9269 583.615 53.1669 584.007 53.2028 584.487C53.2376 584.968 53.3684 591.246 53.4923 598.438L53.7169 611.519L41.8473 611.517ZM45.5495 423.325C40.8062 423.405 36.144 423.47 35.1887 423.47C29.8479 423.47 29.9776 423.811 29.9776 409.769L29.9776 396.359L41.6805 396.69L53.3823 397.021L53.7783 410.1L54.1732 423.179L45.5495 423.325ZM15.888 476.658L2.18519 476.658L2.18519 462.707L2.18519 448.756L15.5024 448.756L28.8196 448.756L28.9157 460.091C28.969 466.325 29.1427 472.604 29.3013 474.042C29.5874 476.624 29.4113 476.658 15.888 476.658ZM29.0245 368.864C28.6957 370.616 27.0142 370.863 15.4178 370.863C7.39858 370.863 2.16668 370.405 2.13889 369.701C2.11341 369.061 2.09252 363.306 2.09252 356.912C2.09252 350.518 2.11341 344.747 2.13889 344.087C2.16899 343.315 6.9898 343.004 15.683 343.215L29.182 343.543L29.2897 355.203C29.3499 361.616 29.2307 367.764 29.0245 368.864ZM29.1044 315.35C28.7037 317.143 27.0744 317.385 15.4178 317.385L2.18518 317.385L2.18518 303.434L2.18518 289.483L15.5024 289.483L28.8196 289.483L28.9088 299.655C28.9574 305.249 29.123 310.612 29.2781 311.572C29.4333 312.531 29.3557 314.232 29.1044 315.35ZM15.7919 848.466L2.76421 848.103L2.1852 836.665C1.86675 830.376 1.82273 825.013 2.08908 824.749C2.35426 824.486 8.4767 824.27 15.6958 824.27L28.8196 824.27L28.8196 836.55L28.8196 848.829L15.7919 848.466ZM15.6252 664.415L2.44113 664.415L1.95124 654.13C1.68143 648.472 1.6838 642.326 1.95478 640.469L2.44805 637.094L15.6332 637.094L28.8196 637.094L28.8149 650.755L28.8092 664.415L15.6252 664.415ZM15.5024 558.039L2.18519 558.039L2.18519 544.669L2.18519 531.299L13.6704 531.299C19.9874 531.299 25.9802 530.982 26.9876 530.594C28.5961 529.974 28.8196 531.606 28.8196 543.963L28.8196 558.039L15.5024 558.039ZM0.170254 604.833C-0.0567176 600.836 -0.0567179 594.296 0.170253 590.3C0.396066 586.303 0.581327 589.574 0.581327 597.566C0.581327 605.559 0.396067 608.828 0.170254 604.833ZM0.17025 523.452C-0.0567211 519.455 -0.0567214 512.915 0.17025 508.92C0.396063 504.923 0.581323 508.193 0.581323 516.186C0.581324 524.179 0.396064 527.448 0.17025 523.452Z" fill="white" fill-opacity="0.1"/>
</svg>
