<svg width="29" height="32" viewBox="0 0 29 32" fill="none" xmlns="http://www.w3.org/2000/svg">
<path d="M2 30.5256H10.8852C13.5904 25.7504 12.5071 27.4837 14.6737 23.7282L9.50876 14.7266L2 30.5256Z" fill="white"/>
<path d="M27.0585 30.5252V1.47559H18.4613V14.7266L27.0585 30.5252Z" fill="white"/>
<path d="M27.0585 30.5252L18.4613 30.5256L14.6737 23.7282M27.0585 30.5252V1.47559H18.4613V14.7266M27.0585 30.5252L18.4613 14.7266M18.4613 14.7266L16.9536 11.9561C14.7863 8.25766 12.5127 4.31795 10.8852 1.47559H2L9.50876 14.7266M9.50876 14.7266L2 30.5256H10.8852C13.5904 25.7504 12.5071 27.4837 14.6737 23.7282M9.50876 14.7266L14.6737 23.7282" stroke="white" stroke-width="2" stroke-linecap="round"/>
</svg>
