<svg width="12" height="11" viewBox="0 0 12 11" fill="none" xmlns="http://www.w3.org/2000/svg">
<path fill-rule="evenodd" clip-rule="evenodd" d="M10.3119 0.514194C9.74091 0.61984 7.97754 1.39897 3.65291 3.45643C1.34203 4.55584 0.614205 4.90454 0.518389 4.95819C0.215369 5.12788 0.0585938 5.30249 0.0585938 5.47028C0.0585938 5.5723 0.0822955 5.6287 0.161568 5.71528C0.281046 5.84578 0.405616 5.90495 0.980914 6.1044C1.80388 6.38974 2.18572 6.49986 2.55039 6.55702C2.89911 6.61168 3.25142 6.51689 3.63664 6.26474C3.69295 6.22788 4.16906 5.87915 4.69466 5.48979C6.86842 3.87947 7.92556 3.11437 8.08458 3.03636C8.14715 3.00566 8.24985 3.00299 8.28885 3.03103C8.34888 3.07421 8.38077 3.18985 8.35042 3.25429C8.26287 3.44019 7.63067 4.11715 5.73936 6.05023C5.45539 6.34047 5.03708 6.80102 4.97417 6.89269C4.76216 7.20161 4.77544 7.43225 5.02128 7.71083C5.11944 7.82204 5.24817 7.92706 5.61569 8.1957C5.78157 8.31694 6.13976 8.58247 6.41168 8.78576C6.68361 8.98905 7.09008 9.28912 7.31494 9.45258C7.53981 9.61604 7.81546 9.82101 7.92749 9.90808C8.22508 10.1393 8.37218 10.2424 8.52773 10.3288C8.75436 10.4545 8.90978 10.4994 9.12102 10.5C9.27311 10.5004 9.33777 10.4811 9.44444 10.4033C9.62299 10.273 9.76735 9.98731 9.86202 9.57678C9.89212 9.44625 9.97594 8.95616 10.1046 8.15836C10.582 5.19839 10.9585 2.49842 11.0542 1.34854C11.0654 1.21279 11.0546 1.02512 11.028 0.89587C11.0076 0.796575 10.9654 0.704663 10.9145 0.648795C10.8652 0.594631 10.7554 0.535973 10.6633 0.514542C10.5805 0.495293 10.415 0.49513 10.3119 0.514194Z" fill="#121212"/>
</svg>
