<svg width="13" height="12" viewBox="0 0 13 12" fill="none" xmlns="http://www.w3.org/2000/svg">
<path fill-rule="evenodd" clip-rule="evenodd" d="M0.0585938 0.0155012C0.0585938 0.0240352 0.163988 0.177815 0.292799 0.357196C0.484628 0.624418 3.59122 5.01182 4.50106 6.30052L4.74819 6.65055L4.02339 7.47012C1.00697 10.8809 0.0742283 11.9407 0.0643197 11.9688C0.0572569 11.9886 0.248331 12.0005 0.561463 11.9997L1.07002 11.9983L3.14191 9.6506C4.9355 7.6182 5.21914 7.31054 5.2537 7.36008C5.99496 8.42163 8.51335 11.958 8.54054 11.9755C8.59385 12.0098 12.0586 12.0073 12.0586 11.973C12.0586 11.9576 11.9687 11.8188 11.8588 11.6646C11.6765 11.4088 11.0978 10.5915 8.17203 6.4585L7.18653 5.06639L7.71274 4.475C8.00215 4.14978 8.76237 3.29111 9.4021 2.56688C10.0419 1.84265 10.7981 0.986948 11.0827 0.665355C11.3672 0.343728 11.6115 0.0624718 11.6256 0.0403033C11.6452 0.00946744 11.5309 0 11.1397 0H10.6281L9.38163 1.40845C8.69606 2.18311 7.81947 3.17373 7.43366 3.6099C6.87638 4.23988 6.72384 4.39406 6.69144 4.35996C6.66905 4.33633 5.98341 3.37195 5.16782 2.21685C4.35223 1.06175 3.66117 0.0904408 3.63216 0.0583382C3.5832 0.00420035 3.45261 0 1.81899 0C0.850765 0 0.0585938 0.00696712 0.0585938 0.0155012ZM1.91688 1.249C2.09225 1.49659 2.73237 2.4007 3.33933 3.2581C3.94632 4.11554 5.32464 6.06217 6.40227 7.58396C7.47991 9.10575 8.49528 10.5419 8.65865 10.7755L8.95574 11.2002L9.73574 11.2006C10.1647 11.2008 10.5157 11.194 10.5157 11.1856C10.5157 11.1771 9.61015 9.89079 8.50334 8.32702C7.39649 6.76323 5.74766 4.4337 4.83926 3.15026L3.18758 0.816734L2.3928 0.807767L1.59802 0.798833L1.91688 1.249Z" fill="#121212"/>
</svg>
